{
.appVersion = "3257";
.formatVersion = 3;
customParameters = (
{
name = panose;
value = (
2,
0,
0,
0,
0,
0,
0,
0,
0,
0
);
},
{
name = "Use Typo Metrics";
value = 1;
},
{
name = fsType;
value = (
);
}
);
date = "2011-03-04 20:59:00 +0000";
familyName = "Holtwood One SC";
featurePrefixes = (
{
automatic = 1;
code = "languagesystem DFLT dflt;

languagesystem latn dflt;
languagesystem latn AZE;
languagesystem latn CRT;
languagesystem latn KAZ;
languagesystem latn TAT;
languagesystem latn TRK;
languagesystem latn ROM;
languagesystem latn MOL;
languagesystem latn CAT;
";
name = Languagesystems;
}
);
features = (
{
automatic = 1;
code = "feature locl;
feature sups;
feature frac;
feature ordn;
feature case;
";
tag = aalt;
},
{
automatic = 1;
code = "lookup ccmp_Other_1 {
	@CombiningTopAccents = [acutecomb brevecomb breveinvertedcomb caroncomb circumflexcomb dblgravecomb dieresiscomb dotaccentcomb gravecomb hungarumlautcomb macroncomb ringcomb tildecomb];
	lookupflag UseMarkFilteringSet @CombiningTopAccents;
	sub i' @CombiningTopAccents by idotless;
	sub j' @CombiningTopAccents by jdotless;
} ccmp_Other_1;

lookup ccmp_latn_1 {
	lookupflag 0;
	sub fi by f i;
	sub fl by f l;
} ccmp_latn_1;

script latn;
lookup ccmp_latn_1;
";
tag = ccmp;
},
{
automatic = 1;
code = "script latn;
language AZE;
lookup locl_latn_0 {
	sub i by idotaccent;
} locl_latn_0;
language CRT;
lookup locl_latn_0;
language KAZ;
lookup locl_latn_0;
language TAT;
lookup locl_latn_0;
language TRK;
lookup locl_latn_0;

script latn;
language ROM;
lookup locl_latn_1 {
	sub Scedilla by Scommaaccent;
	sub scedilla by scommaaccent;
	sub Tcedilla by Tcommaaccent;
	sub tcedilla by tcommaaccent;
} locl_latn_1;
language MOL;
lookup locl_latn_1;

script latn;
language CAT;
lookup locl_latn_2 {
	sub l periodcentered' l by periodcentered.loclCAT;
	sub L periodcentered' L by periodcentered.loclCAT.case;
} locl_latn_2;
";
tag = locl;
},
{
automatic = 1;
code = "sub one by onesuperior;
sub two by twosuperior;

glyphs = (
{
glyphname = A;
lastChange = "2024-04-24 09:57:12 +0000";
layers = (
{
anchors = (
{
name = bottom;
pos = (909,0);
},
{
name = ogonek;
pos = (1635,10);
},
{
name = top;
pos = (909,1536);
}
);
background = {
shapes = (
{
closed = 1;
nodes = (
(1117,258,l),
(699,258,l),
(646,0,l),
(77,0,l),
(77,504,l),
(200,529,l),
(495,1536,l),
(1321,1536,l),
(1617,529,l),
(1740,504,l),
(1740,0,l),
(1171,0,l)
);
},
{
closed = 1;
nodes = (
(1031,601,l),
(908,1180,l),
(785,601,l)
);
}
);
};
layerId = m001;
shapes = (
{
closed = 1;
nodes = (
(646,0,l),
(699,258,l),
(1117,258,l),
(1171,0,l),
(1740,0,l),
(1740,504,l),
(1617,529,l),
(1321,1536,l),
(495,1536,l),
(200,529,l),
(77,504,l),
(77,0,l)
);
},
{
closed = 1;
nodes = (
(908,1180,l),
(1031,601,l),
(785,601,l)
);
}
);
userData = {
com.fontlab.hintData = {
hhints = (
{
position = 0;
width = 21;
},
{
position = 258;
width = 343;
},
{
position = 1516;
width = 20;
}
);
};
};
width = 1817;
}
);
unicode = 65;
},
{
glyphname = Aacute;
lastChange = "2024-04-24 09:22:35 +0000";
layers = (
{
background = {
shapes = (
{
closed = 1;
nodes = (
(741,1681,l),
(1080,2321,l),
(1570,2321,l),
(1166,1681,l)
);
},
{
closed = 1;
nodes = (
(1117,258,l),
(699,258,l),
(646,0,l),
(77,0,l),
(77,504,l),
(200,529,l),
(495,1536,l),
(1321,1536,l),
(1617,529,l),
(1740,504,l),
(1740,0,l),
(1171,0,l)
);
},
{
closed = 1;
nodes = (
(1031,601,l),
(908,1180,l),
(785,601,l)
);
}
);
};
layerId = m001;
shapes = (
{
ref = A;
},
{
pos = (652,126);
ref = acutecomb;
}
);
userData = {
com.fontlab.hintData = {
hhints = (
{
position = 0;
width = 21;
},
{
position = 258;
width = 343;
},
{
position = 1516;
width = 20;
},
{
position = 1681;
width = 640;
}
);
};
};
width = 1817;
}
);
unicode = 193;
},
{
glyphname = Abreve;
lastChange = "2024-04-24 09:22:02 +0000";
layers = (
{
background = {
shapes = (
{
closed = 1;
nodes = (
(1293,1867,o),
(1142,1681,o),
(890,1681,cs),
(638,1681,o),
(489,1870,o),
(489,2126,c),
(758,2126,l),
(758,2040,o),
(807,1974,o),
(891,1974,cs),
(974,1974,o),
(1024,2040,o),
(1024,2126,c),
(1293,2126,l)
);
},
{
closed = 1;
nodes = (
(1117,258,l),
(699,258,l),
(646,0,l),
(77,0,l),
(77,504,l),
(200,529,l),
(495,1536,l),
(1321,1536,l),
(1617,529,l),
(1740,504,l),
(1740,0,l),
(1171,0,l)
);
},
{
closed = 1;
nodes = (
(1031,601,l),
(908,1180,l),
(785,601,l)
);
}
);
};
layerId = m001;
shapes = (
{
ref = A;
},
{
pos = (459,128);
ref = brevecomb;
}
);
userData = {
com.fontlab.hintData = {
hhints = (
{
position = 0;
width = 21;
},
{
position = 258;
width = 343;
},
{
position = 1516;
width = 20;
},
{
position = 1681;
width = 293;
}
);
};
};
width = 1817;
}
);
unicode = 258;
},
{
glyphname = Acircumflex;
lastChange = "2024-04-24 09:23:52 +0000";
layers = (
{
background = {
shapes = (
{
closed = 1;
nodes = (
(695,2320,l),
(1185,2320,l),
(1524,1681,l),
(1099,1681,l),
(940,2064,l),
(780,1681,l),
(355,1681,l)
);
},
{
closed = 1;
nodes = (
(1117,258,l),
(699,258,l),
(646,0,l),
(77,0,l),
(77,504,l),
(200,529,l),
(495,1536,l),
(1321,1536,l),
(1617,529,l),
(1740,504,l),
(1740,0,l),
(1171,0,l)
);
},
{
closed = 1;
nodes = (
(1031,601,l),
(908,1180,l),
(785,601,l)
);
}
);
};
layerId = m001;
shapes = (
{
ref = A;
},
{
pos = (239,123);
ref = circumflexcomb;
}
);
userData = {
com.fontlab.hintData = {
hhints = (
{
position = 0;
width = 21;
},
{
position = 258;
width = 343;
},
{
position = 1516;
width = 20;
},
{
position = 1681;
width = 639;
}
);
};
};
width = 1817;
}
);
unicode = 194;
},
{
glyphname = Adblgrave;
lastChange = "2024-04-24 09:25:14 +0000";
layers = (
{
background = {
shapes = (
{
closed = 1;
nodes = (
(1117,258,l),
(699,258,l),
(646,0,l),
(77,0,l),
(77,504,l),
(200,529,l),
(495,1536,l),
(1321,1536,l),
(1617,529,l),
(1740,504,l),
(1740,0,l),
(1171,0,l)
);
},
{
closed = 1;
nodes = (
(1031,601,l),
(908,1180,l),
(785,601,l)
);
}
);
};
layerId = m001;
shapes = (
{
ref = A;
},
{
pos = (156,123);
ref = dblgravecomb;
}
);
userData = {
com.fontlab.hintData = {
hhints = (
{
position = 0;
width = 21;
},
{
position = 258;
width = 343;
},
{
position = 1516;
width = 20;
},
{
position = 1681;
width = 640;
}
);
};
};
width = 1817;
}
);
unicode = 512;
},
{
glyphname = Adieresis;
lastChange = "2024-04-24 09:25:30 +0000";
layers = (
{
background = {
shapes = (
{
closed = 1;
nodes = (
(1486,2065,l),
(1486,1681,l),
(1061,1681,l),
(1061,2065,l)
);
},
{
closed = 1;
nodes = (
(742,1681,l),
(317,1681,l),
(317,2065,l),
(742,2065,l)
);
},
{
closed = 1;
nodes = (
(1117,258,l),
(699,258,l),
(646,0,l),
(77,0,l),
(77,504,l),
(200,529,l),
(495,1536,l),
(1321,1536,l),
(1617,529,l),
(1740,504,l),
(1740,0,l),
(1171,0,l)
);
},
{
closed = 1;
nodes = (
(1031,601,l),
(908,1180,l),
(785,601,l)
);
}
);
};
layerId = m001;
shapes = (
{
ref = A;
},
{
pos = (235,123);
ref = dieresiscomb;
}
);
userData = {
com.fontlab.hintData = {
hhints = (
{
position = 0;
width = 21;
},
{
position = 258;
width = 343;
},
{
position = 1516;
width = 20;
},
{
position = 1681;
width = 384;
}
);
vhints = (
{
position = 317;
width = 425;
},
{
position = 1061;
width = 425;
}
);
};
};
width = 1817;
}
);
unicode = 196;
},
{
glyphname = Agrave;
lastChange = "2024-04-24 09:25:50 +0000";
layers = (
{
background = {
shapes = (
{
closed = 1;
nodes = (
(833,2321,l),
(1172,1681,l),
(747,1681,l),
(343,2321,l)
);
},
{
closed = 1;
nodes = (
(1117,258,l),
(699,258,l),
(646,0,l),
(77,0,l),
(77,504,l),
(200,529,l),
(495,1536,l),
(1321,1536,l),
(1617,529,l),
(1740,504,l),
(1740,0,l),
(1171,0,l)
);
},
{
closed = 1;
nodes = (
(1031,601,l),
(908,1180,l),
(785,601,l)
);
}
);
};
layerId = m001;
shapes = (
{
ref = A;
},
{
pos = (261,123);
ref = gravecomb;
}
);
userData = {
com.fontlab.hintData = {
hhints = (
{
position = 0;
width = 21;
},
{
position = 258;
width = 343;
},
{
position = 1516;
width = 20;
},
{
position = 1681;
width = 640;
}
);
};
};
width = 1817;
}
);
unicode = 192;
},
{
glyphname = Ainvertedbreve;
lastChange = "2024-04-24 09:29:25 +0000";
layers = (
{
background = {
shapes = (
{
closed = 1;
nodes = (
(1117,258,l),
(699,258,l),
(646,0,l),
(77,0,l),
(77,504,l),
(200,529,l),
(495,1536,l),
(1321,1536,l),
(1617,529,l),
(1740,504,l),
(1740,0,l),
(1171,0,l)
);
},
{
closed = 1;
nodes = (
(1031,601,l),
(908,1180,l),
(785,601,l)
);
}
);
};
layerId = m001;
shapes = (
{
ref = A;
},
{
pos = (449,123);
ref = breveinvertedcomb;
}
);
userData = {
com.fontlab.hintData = {
hhints = (
{
position = 0;
width = 21;
},
{
position = 258;
width = 343;
},
{
position = 1516;
width = 20;
},
{
position = 1681;
width = 21;
},
{
position = 1833;
width = 293;
}
);
};
};
width = 1817;
}
);
unicode = 514;
},
{
color = 9;
glyphname = Amacron;
lastChange = "2024-04-24 09:22:02 +0000";
layers = (
{
background = {
shapes = (
{
closed = 1;
nodes = (
(1117,258,l),
(699,258,l),
(646,0,l),
(77,0,l),
(77,504,l),
(200,529,l),
(495,1536,l),
(1321,1536,l),
(1617,529,l),
(1740,504,l),
(1740,0,l),
(1171,0,l)
);
},
{
closed = 1;
nodes = (
(1031,601,l),
(908,1180,l),
(785,601,l)
);
},
{
closed = 1;
nodes = (
(2389,1536,l),
(1877,1536,l),
(1877,1752,l),
(2389,1752,l)
);
}
);
};
layerId = m001;
shapes = (
{
ref = A;
},
{
pos = (593,128);
ref = macroncomb;
}
);
width = 1817;
}
);
unicode = 256;
},
{
glyphname = Aogonek;
lastChange = "2024-04-24 09:22:02 +0000";
layers = (
{
background = {
shapes = (
{
closed = 1;
nodes = (
(786,-866,o),
(648,-730,o),
(648,-482,cs),
(648,-331,o),
(713,-218,o),
(775,-125,cs),
(812,-70,o),
(854,-19,o),
(903,30,c),
(1237,30,l),
(1134,-70,o),
(1026,-188,o),
(980,-339,cs),
(972,-364,o),
(968,-389,o),
(968,-412,cs),
(968,-503,o),
(1015,-543,o),
(1104,-543,cs),
(1149,-543,o),
(1210,-530,o),
(1287,-505,c),
(1287,-822,l),
(1213,-846,o),
(1121,-866,o),
(1031,-866,cs)
);
},
{
closed = 1;
nodes = (
(1090,258,l),
(672,258,l),
(619,0,l),
(50,0,l),
(50,504,l),
(173,529,l),
(468,1536,l),
(1294,1536,l),
(1590,529,l),
(1713,504,l),
(1713,0,l),
(1144,0,l)
);
},
{
closed = 1;
nodes = (
(1004,601,l),
(881,1180,l),
(758,601,l)
);
}
);
};
layerId = m001;
shapes = (
{
ref = A;
},
{
pos = (942,-10);
ref = ogonekcomb;
}
);
userData = {
com.fontlab.hintData = {
hhints = (
{
position = -866;
width = 323;
},
{
position = 0;
width = 21;
},
{
position = 258;
width = 343;
},
{
position = 1516;
width = 20;
}
);
vhints = (
{
position = 648;
width = 320;
}
);
};
};
width = 1817;
}
);
unicode = 260;
},
{
glyphname = Aring;
lastChange = "2024-04-24 09:30:09 +0000";
layers = (
{
background = {
shapes = (
{
closed = 1;
nodes = (
(1123,2369,o),
(1291,2221,o),
(1291,1983,cs),
(1291,1743,o),
(1125,1593,o),
(888,1593,cs),
(653,1593,o),
(487,1744,o),
(487,1983,cs),
(487,2221,o),
(653,2369,o),
(888,2369,cs)
);
},
{
closed = 1;
nodes = (
(998,1781,o),
(1062,1866,o),
(1062,1978,cs),
(1062,2089,o),
(996,2173,o),
(888,2173,cs),
(780,2173,o),
(716,2089,o),
(716,1978,cs),
(716,1865,o),
(779,1781,o),
(889,1781,cs)
);
},
{
closed = 1;
nodes = (
(1117,258,l),
(699,258,l),
(646,0,l),
(77,0,l),
(77,504,l),
(200,529,l),
(495,1536,l),
(1321,1536,l),
(1617,529,l),
(1740,504,l),
(1740,0,l),
(1171,0,l)
);
},
{
closed = 1;
nodes = (
(1031,601,l),
(908,1180,l),
(785,601,l)
);
}
);
};
layerId = m001;
shapes = (
{
ref = A;
},
{
alignment = -1;
pos = (439,58);
ref = ringcomb;
}
);
userData = {
com.fontlab.hintData = {
hhints = (
{
position = 0;
width = 21;
},
{
position = 258;
width = 343;
},
{
position = 1516;
width = 20;
},
{
position = 1593;
width = 188;
},
{
position = 2173;
width = 196;
}
);
vhints = (
{
position = 487;
width = 229;
},
{
position = 1062;
width = 229;
}
);
};
};
width = 1817;
}
);
unicode = 197;
},
{
glyphname = Atilde;
lastChange = "2024-04-24 09:22:02 +0000";
layers = (
{
background = {
shapes = (
{
closed = 1;
nodes = (
(819,2182,o),
(905,2067,o),
(1056,2067,cs),
(1180,2067,o),
(1257,2117,o),
(1335,2188,c),
(1275,1771,l),
(1240,1721,o),
(1189,1690,o),
(1114,1690,cs),
(966,1690,o),
(871,1786,o),
(722,1786,cs),
(600,1786,o),
(519,1745,o),
(439,1681,c),
(501,2107,l),
(543,2154,o),
(592,2182,o),
(671,2182,cs)
);
},
{
closed = 1;
nodes = (
(1117,258,l),
(699,258,l),
(646,0,l),
(77,0,l),
(77,504,l),
(200,529,l),
(495,1536,l),
(1321,1536,l),
(1617,529,l),
(1740,504,l),
(1740,0,l),
(1171,0,l)
);
},
{
closed = 1;
nodes = (
(1031,601,l),
(908,1180,l),
(785,601,l)
);
}
);
};
layerId = m001;
shapes = (
{
ref = A;
},
{
pos = (403,128);
ref = tildecomb;
}
);
userData = {
com.fontlab.hintData = {
hhints = (
{
position = 0;
width = 21;
},
{
position = 258;
width = 343;
},
{
position = 1516;
width = 20;
},
{
position = 1690;
width = 377;
},
{
position = 1786;
width = 396;
}
);
};
};
width = 1817;
}
);
unicode = 195;
},
{
glyphname = AE;
lastChange = "2024-04-24 09:57:12 +0000";
layers = (
{
background = {
shapes = (
{
closed = 1;
nodes = (
(1899.23,384,o),
(2038.43,439.12,o),
(2143,512,c),
(2310,512,l),
(2310,0,l),
(1121,0,l),
(1142,258,l),
(724,258,l),
(596,0,l),
(27,0,l),
(174,504,l),
(304,529,l),
(895,1536,l),
(2310,1536,l),
(2310,1024,l),
(2149,1024,l),
(2042.08,1095.28,o),
(1899.67,1152,o),
(1721,1152,c),
(1721,879,l),
(2021,944,l),
(2021,590,l),
(1721,655,l),
(1721,384,l)
);
},
{
closed = 1;
nodes = (
(1157,601,l),
(1203,1180,l),
(911,601,l)
);
}
);
};
layerId = m001;
shapes = (
{
closed = 1;
nodes = (
(596,0,l),
(724,258,l),
(1142,258,l),
(1121,0,l),
(2310,0,l),
(2310,512,l),
(2143,512,l),
(2038,439,o),
(1899,384,o),
(1721,384,c),
(1721,655,l),
(2021,590,l),
(2021,944,l),
(1721,879,l),
(1721,1152,l),
(1900,1152,o),
(2042,1095,o),
(2149,1024,c),
(2310,1024,l),
(2310,1536,l),
(895,1536,l),
(304,529,l),
(174,504,l),
(27,0,l)
);
},
{
closed = 1;
nodes = (
(1203,1180,l),
(1157,601,l),
(911,601,l)
);
}
);
userData = {
com.fontlab.hintData = {
hhints = (
{
position = 0;
width = 384;
},
{
position = 258;
width = 343;
},
{
position = 1152;
width = 384;
}
);
};
};
width = 2383;
}
);
unicode = 198;
},
{
glyphname = B;
lastChange = "2024-04-24 12:25:54 +0000";
layers = (
{
anchors = (
{
name = bottom;
pos = (922,0);
},
{
name = center;
pos = (461,384);
},
{
name = top;
pos = (922,1536);
}
);
layerId = m001;
shapes = (
{
closed = 1;
nodes = (
(1236,0,ls),
(1582,0,o),
(1782,123,o),
(1782,459,cs),
(1782,687,o),
(1604,775,o),
(1389,786,c),
(1590,786,o),
(1680,965,o),
(1680,1177,cs),
(1680,1395,o),
(1555,1491,o),
(1367,1536,c),
(45,1536,l),
(45,1139,l),
(203,1114,l),
(203,459,l),
(45,434,l),
(45,0,l)
);
},
{
closed = 1;
nodes = (
(843,680,l),
(937,680,ls),
(1058,680,o),
(1142,668,o),
(1142,545,cs),
(1142,413,o),
(1066,393,o),
(937,393,cs),
(843,393,l)
);
},
{
closed = 1;
nodes = (
(843,1180,l),
(937,1180,ls),
(1058,1180,o),
(1142,1167,o),
(1142,1044,cs),
(1142,913,o),
(1066,893,o),
(937,893,cs),
(843,893,l)
);
}
);
userData = {
com.fontlab.hintData = {
hhints = (
{
position = 0;
width = 393;
},
{
position = 680;
width = 213;
},
{
position = 1180;
width = 356;
}
);
vhints = (
{
position = 203;
width = 640;
},
{
position = 1142;
width = 640;
},
{
position = 1142;
width = 538;
}
);
};
};
width = 1844;
}
);
unicode = 66;
},
{
glyphname = C;
lastChange = "2024-04-24 09:57:08 +0000";
layers = (
{
anchors = (
{
name = bottom;
pos = (921,0);
},
{
name = top;
pos = (931,1536);
}
);
background = {
shapes = (
{
closed = 1;
nodes = (
(793.57,1113,o),
(693.629,963.329,o),
(693.629,807.079,cs),
(693.629,553.756,o),
(864.849,473.533,o),
(1071.49,473.533,cs),
(1228.77,473.533,o),
(1406.56,520.006,o),
(1545,572,c),
(1545,84,l),
(1355.67,20.499,o),
(1162.94,-18,o),
(931,-18,cs),
(401.226,-18,o),
(68,253.913,o),
(68,786,cs),
(68,1316.13,o),
(394.245,1559,o),
(923,1559,cs),
(1177.67,1559,o),
(1376.14,1510.09,o),
(1545,1433,c),
(1545,935,l),
(1244,935,l),
(1190.14,1031.67,o),
(1114.37,1113,o),
(1002,1113,cs)
);
}
);
};
layerId = m001;
shapes = (
{
closed = 1;
nodes = (
(1163,-18,o),
(1356,20,o),
(1545,84,c),
(1545,572,l),
(1407,520,o),
(1229,474,o),
(1071,474,cs),
(865,474,o),
(694,554,o),
(694,807,cs),
(694,963,o),
(794,1113,o),
(1002,1113,cs),
(1114,1113,o),
(1190,1032,o),
(1244,935,c),
(1545,935,l),
(1545,1433,l),
(1376,1510,o),
(1178,1559,o),
(923,1559,cs),
(394,1559,o),
(68,1316,o),
(68,786,cs),
(68,254,o),
(401,-18,o),
(931,-18,cs)
);
}
);
userData = {
com.fontlab.hintData = {
hhints = (
{
position = -18;
width = 492;
},
{
position = 1113;
width = 446;
}
);
vhints = (
{
position = 68;
width = 626;
}
);
};
};
width = 1621;
}
);
unicode = 67;
},
{
glyphname = Cacute;
lastChange = "2024-04-24 09:30:41 +0000";
layers = (
{
background = {
shapes = (
{
closed = 1;
nodes = (
(756,1681,l),
(1095,2321,l),
(1585,2321,l),
(1181,1681,l)
);
},
{
closed = 1;
nodes = (
(793.57,1113,o),
(693.629,963.329,o),
(693.629,807.079,cs),
(693.629,553.756,o),
(864.849,473.533,o),
(1071.49,473.533,cs),
(1228.77,473.533,o),
(1406.56,520.006,o),
(1545,572,c),
(1545,84,l),
(1355.67,20.499,o),
(1162.94,-18,o),
(931,-18,cs),
(401.226,-18,o),
(68,253.913,o),
(68,786,cs),
(68,1316.13,o),
(394.245,1559,o),
(923,1559,cs),
(1177.67,1559,o),
(1376.14,1510.09,o),
(1545,1433,c),
(1545,935,l),
(1244,935,l),
(1190.14,1031.67,o),
(1114.37,1113,o),
(1002,1113,cs)
);
}
);
};
layerId = m001;
shapes = (
{
ref = C;
},
{
pos = (674,126);
ref = acutecomb;
}
);
userData = {
com.fontlab.hintData = {
hhints = (
{
position = -18;
width = 492;
},
{
position = 1113;
width = 446;
},
{
position = 1681;
width = 640;
}
);
vhints = (
{
position = 68;
width = 626;
}
);
};
};
width = 1621;
}
);
unicode = 262;
},
{
glyphname = Ccaron;
lastChange = "2024-04-24 09:30:41 +0000";
layers = (
{
background = {
shapes = (
{
closed = 1;
nodes = (
(953,1937,l),
(1112,2320,l),
(1537,2320,l),
(1198,1681,l),
(708,1681,l),
(368,2320,l),
(793,2320,l)
);
},
{
closed = 1;
nodes = (
(793.57,1113,o),
(693.629,963.329,o),
(693.629,807.079,cs),
(693.629,553.756,o),
(864.849,473.533,o),
(1071.49,473.533,cs),
(1228.77,473.533,o),
(1406.56,520.006,o),
(1545,572,c),
(1545,84,l),
(1355.67,20.499,o),
(1162.94,-18,o),
(931,-18,cs),
(401.226,-18,o),
(68,253.913,o),
(68,786,cs),
(68,1316.13,o),
(394.245,1559,o),
(923,1559,cs),
(1177.67,1559,o),
(1376.14,1510.09,o),
(1545,1433,c),
(1545,935,l),
(1244,935,l),
(1190.14,1031.67,o),
(1114.37,1113,o),
(1002,1113,cs)
);
}
);
};
layerId = m001;
shapes = (
{
ref = C;
},
{
pos = (263,123);
ref = caroncomb;
}
);
userData = {
com.fontlab.hintData = {
hhints = (
{
position = -18;
width = 492;
},
{
position = 1113;
width = 446;
},
{
position = 1681;
width = 639;
}
);
vhints = (
{
position = 68;
width = 626;
}
);
};
};
width = 1621;
}
);
unicode = 268;
},
{
glyphname = Ccedilla;
lastChange = "2024-04-24 09:31:56 +0000";
layers = (
{
background = {
shapes = (
{
closed = 1;
nodes = (
(1091,-689,o),
(1138,-649,o),
(1138,-558,cs),
(1138,-484,o),
(1091,-427,o),
(1019,-427,cs),
(974,-427,o),
(942,-453,o),
(921,-484,c),
(799,-484,l),
(799,12,l),
(1020,12,l),
(1020,-245,l),
(1031,-245,ls),
(1038,-245,o),
(1044,-244,o),
(1051,-244,c),
(1040,-234,o),
(1035,-227,o),
(1035,-223,cs),
(1035,-220,o),
(1037,-218,o),
(1042,-218,cs),
(1094,-218,o),
(1398,-381,o),
(1398,-558,cs),
(1398,-773,o),
(1261,-885,o),
(1047,-885,cs),
(956,-885,o),
(873,-866,o),
(799,-841,c),
(799,-651,l),
(864,-671,o),
(932,-689,o),
(1002,-689,cs)
);
},
{
closed = 1;
nodes = (
(793.57,1113,o),
(693.629,963.329,o),
(693.629,807.079,cs),
(693.629,553.756,o),
(864.849,473.533,o),
(1071.49,473.533,cs),
(1228.77,473.533,o),
(1406.56,520.006,o),
(1545,572,c),
(1545,84,l),
(1355.67,20.499,o),
(1162.94,-18,o),
(931,-18,cs),
(401.226,-18,o),
(68,253.913,o),
(68,786,cs),
(68,1316.13,o),
(394.245,1559,o),
(923,1559,cs),
(1177.67,1559,o),
(1376.14,1510.09,o),
(1545,1433,c),
(1545,935,l),
(1244,935,l),
(1190.14,1031.67,o),
(1114.37,1113,o),
(1002,1113,cs)
);
}
);
};
layerId = m001;
shapes = (
{
ref = C;
},
{
pos = (728,-117);
ref = cedillacomb;
}
);
userData = {
com.fontlab.hintData = {
hhints = (
{
position = -885;
width = 196;
},
{
position = -18;
width = 492;
},
{
position = 1113;
width = 446;
}
);
vhints = (
{
position = 68;
width = 626;
},
{
position = 799;
width = 221;
},
{
position = 1138;
width = 260;
}
);
};
};
width = 1621;
}
);
unicode = 199;
},
{
color = 9;
glyphname = Cdotaccent;
lastChange = "2024-04-24 09:30:41 +0000";
layers = (
{
background = {
shapes = (
{
closed = 1;
nodes = (
(793.57,1113,o),
(693.629,963.329,o),
(693.629,807.079,cs),
(693.629,553.756,o),
(864.849,473.533,o),
(1071.49,473.533,cs),
(1228.77,473.533,o),
(1406.56,520.006,o),
(1545,572,c),
(1545,84,l),
(1355.67,20.499,o),
(1162.94,-18,o),
(931,-18,cs),
(401.226,-18,o),
(68,253.913,o),
(68,786,cs),
(68,1316.13,o),
(394.245,1559,o),
(923,1559,cs),
(1177.67,1559,o),
(1376.14,1510.09,o),
(1545,1433,c),
(1545,935,l),
(1244,935,l),
(1190.14,1031.67,o),
(1114.37,1113,o),
(1002,1113,cs)
);
},
{
closed = 1;
nodes = (
(2350,2176,l),
(2350,1664,l),
(1710,1664,l),
(1710,2176,l)
);
}
);
};
layerId = m001;
shapes = (
{
ref = C;
},
{
pos = (522,128);
ref = dotaccentcomb;
}
);
width = 1621;
}
);
unicode = 266;
},
{
glyphname = D;
lastChange = "2024-04-24 09:57:12 +0000";
layers = (
{
anchors = (
{
name = bottom;
pos = (938,0);
},
{
name = center;
pos = (469,768);
},
{
name = top;
pos = (968,1536);
}
);
background = {
shapes = (
{
closed = 1;
nodes = (
(1837,187.053,o),
(1413.09,0,o),
(813,0,cs),
(13,0,l),
(13,434,l),
(173,459,l),
(173,1114,l),
(13,1139,l),
(13,1536,l),
(1210,1536,l),
(1586.6,1455.48,o),
(1837,1241.89,o),
(1837,786,cs)
);
},
{
closed = 1;
nodes = (
(1080.88,459,o),
(1180.29,502.535,o),
(1191.5,652,cs),
(1194.5,692,o),
(1196,736.667,o),
(1196,786,cs),
(1196,1020.52,o),
(1151.73,1114,o),
(911,1114,cs),
(813,1114,l),
(813,459,l),
(911,459,ls)
);
}
);
};
layerId = m001;
shapes = (
{
closed = 1;
nodes = (
(813,0,ls),
(1413,0,o),
(1837,187,o),
(1837,786,cs),
(1837,1242,o),
(1587,1455,o),
(1210,1536,c),
(13,1536,l),
(13,1139,l),
(173,1114,l),
(173,459,l),
(13,434,l),
(13,0,l)
);
},
{
closed = 1;
nodes = (
(813,1114,l),
(911,1114,ls),
(1152,1114,o),
(1196,1021,o),
(1196,786,cs),
(1196,737,o),
(1195,692,o),
(1192,652,cs),
(1180,503,o),
(1081,459,o),
(911,459,cs),
(813,459,l)
);
}
);
userData = {
com.fontlab.hintData = {
hhints = (
{
position = 0;
width = 459;
},
{
position = 1114;
width = 422;
}
);
vhints = (
{
position = 173;
width = 640;
},
{
position = 1196;
width = 641;
}
);
};
};
width = 1876;
}
);
unicode = 68;
},
{
glyphname = Dcaron;
lastChange = "2024-04-24 09:32:41 +0000";
layers = (
{
background = {
shapes = (
{
closed = 1;
nodes = (
(972,1937,l),
(1131,2320,l),
(1556,2320,l),
(1217,1681,l),
(727,1681,l),
(387,2320,l),
(812,2320,l)
);
},
{
closed = 1;
nodes = (
(1837,187.053,o),
(1413.09,0,o),
(813,0,cs),
(13,0,l),
(13,434,l),
(173,459,l),
(173,1114,l),
(13,1139,l),
(13,1536,l),
(1210,1536,l),
(1586.6,1455.48,o),
(1837,1241.89,o),
(1837,786,cs)
);
},
{
closed = 1;
nodes = (
(1080.88,459,o),
(1180.29,502.535,o),
(1191.5,652,cs),
(1194.5,692,o),
(1196,736.667,o),
(1196,786,cs),
(1196,1020.52,o),
(1151.73,1114,o),
(911,1114,cs),
(813,1114,l),
(813,459,l),
(911,459,ls)
);
}
);
};
layerId = m001;
shapes = (
{
ref = D;
},
{
pos = (300,123);
ref = caroncomb;
}
);
userData = {
com.fontlab.hintData = {
hhints = (
{
position = 0;
width = 459;
},
{
position = 1114;
width = 422;
},
{
position = 1681;
width = 639;
}
);
vhints = (
{
position = 173;
width = 640;
},
{
position = 1196;
width = 641;
}
);
};
};
width = 1876;
}
);
unicode = 270;
},
{
glyphname = Dcroat;
lastChange = "2024-04-24 09:22:02 +0000";
layers = (
{
background = {
shapes = (
{
closed = 1;
nodes = (
(1866,187.053,o),
(1442.09,0,o),
(842,0,cs),
(74,0,l),
(74,434,l),
(202,459,l),
(202,656,l),
(74,656,l),
(74,913,l),
(202,913,l),
(202,1114,l),
(74,1139,l),
(74,1536,l),
(1239,1536,l),
(1615.6,1455.48,o),
(1866,1241.89,o),
(1866,786,cs)
);
},
{
closed = 1;
nodes = (
(1109.88,459,o),
(1209.29,502.535,o),
(1220.5,652,cs),
(1223.5,692,o),
(1225,736.667,o),
(1225,786,cs),
(1225,1020.52,o),
(1180.73,1114,o),
(940,1114,cs),
(842,1114,l),
(842,913,l),
(978,913,l),
(978,656,l),
(842,656,l),
(842,459,l),
(940,459,ls)
);
}
);
};
layerId = m001;
shapes = (
{
ref = Eth;
}
);
userData = {
com.fontlab.hintData = {
hhints = (
{
position = 0;
width = 459;
},
{
position = 656;
width = 257;
},
{
position = 1114;
width = 422;
}
);
vhints = (
{
position = 1225;
width = 641;
}
);
};
};
width = 1896;
}
);
unicode = 272;
},
{
glyphname = Eth;
lastChange = "2024-04-24 09:57:12 +0000";
layers = (
{
background = {
shapes = (
{
closed = 1;
nodes = (
(1864,187.053,o),
(1440.09,0,o),
(840,0,cs),
(72,0,l),
(72,434,l),
(200,459,l),
(200,640,l),
(76,640,l),
(76,896,l),
(200,896,l),
(200,1114,l),
(72,1139,l),
(72,1536,l),
(1237,1536,l),
(1613.6,1455.48,o),
(1864,1241.89,o),
(1864,786,cs)
);
},
{
closed = 1;
nodes = (
(1107.88,459,o),
(1207.29,502.535,o),
(1218.5,652,cs),
(1221.5,692,o),
(1223,736.667,o),
(1223,786,cs),
(1223,1020.52,o),
(1178.73,1114,o),
(938,1114,cs),
(840,1114,l),
(840,896,l),
(972,896,l),
(972,640,l),
(840,640,l),
(840,459,l),
(938,459,ls)
);
}
);
};
layerId = m001;
shapes = (
{
closed = 1;
nodes = (
(840,0,ls),
(1440,0,o),
(1864,187,o),
(1864,786,cs),
(1864,1242,o),
(1614,1455,o),
(1237,1536,c),
(72,1536,l),
(72,1139,l),
(200,1114,l),
(200,896,l),
(76,896,l),
(76,640,l),
(200,640,l),
(200,459,l),
(72,434,l),
(72,0,l)
);
},
{
closed = 1;
nodes = (
(840,640,l),
(972,640,l),
(972,896,l),
(840,896,l),
(840,1114,l),
(938,1114,ls),
(1179,1114,o),
(1223,1021,o),
(1223,786,cs),
(1223,737,o),
(1222,692,o),
(1219,652,cs),
(1207,503,o),
(1108,459,o),
(938,459,cs),
(840,459,l)
);
}
);
userData = {
com.fontlab.hintData = {
hhints = (
{
position = 0;
width = 459;
},
{
position = 640;
width = 256;
},
{
position = 1114;
width = 422;
}
);
vhints = (
{
position = 1223;
width = 641;
}
);
};
};
width = 1896;
}
);
unicode = 208;
},
{
glyphname = E;
lastChange = "2024-04-24 09:57:08 +0000";
layers = (
{
anchors = (
{
name = bottom;
pos = (748,0);
},
{
name = ogonek;
pos = (1110,30);
},
{
name = top;
pos = (748,1536);
},
{
name = topleft;
pos = (20,1536);
}
);
background = {
shapes = (
{
closed = 1;
nodes = (
(1017.54,384,o),
(1149.98,439.283,o),
(1248,512,c),
(1415,512,l),
(1415,0,l),
(48,0,l),
(48,434,l),
(206,459,l),
(206,1075,l),
(48,1100,l),
(48,1536,l),
(1415,1536,l),
(1415,1024,l),
(1254,1024,l),
(1151.59,1094.41,o),
(1019.73,1152,o),
(846,1152,c),
(846,879,l),
(1146,944,l),
(1146,590,l),
(846,655,l),
(846,384,l)
);
}
);
};
layerId = m001;
shapes = (
{
closed = 1;
nodes = (
(1415,0,l),
(1415,512,l),
(1248,512,l),
(1150,439,o),
(1018,384,o),
(846,384,c),
(846,655,l),
(1146,590,l),
(1146,944,l),
(846,879,l),
(846,1152,l),
(1020,1152,o),
(1152,1094,o),
(1254,1024,c),
(1415,1024,l),
(1415,1536,l),
(48,1536,l),
(48,1100,l),
(206,1075,l),
(206,459,l),
(48,434,l),
(48,0,l)
);
}
);
userData = {
com.fontlab.hintData = {
hhints = (
{
position = 0;
width = 384;
},
{
position = 1152;
width = 384;
}
);
};
};
width = 1495;
}
);
unicode = 69;
},
{
glyphname = Eacute;
lastChange = "2024-04-24 09:22:35 +0000";
layers = (
{
background = {
shapes = (
{
closed = 1;
nodes = (
(579,1681,l),
(918,2321,l),
(1408,2321,l),
(1004,1681,l)
);
},
{
closed = 1;
nodes = (
(1017.54,384,o),
(1149.98,439.283,o),
(1248,512,c),
(1415,512,l),
(1415,0,l),
(48,0,l),
(48,434,l),
(206,459,l),
(206,1075,l),
(48,1100,l),
(48,1536,l),
(1415,1536,l),
(1415,1024,l),
(1254,1024,l),
(1151.59,1094.41,o),
(1019.73,1152,o),
(846,1152,c),
(846,879,l),
(1146,944,l),
(1146,590,l),
(846,655,l),
(846,384,l)
);
}
);
};
layerId = m001;
shapes = (
{
ref = E;
},
{
pos = (491,126);
ref = acutecomb;
}
);
userData = {
com.fontlab.hintData = {
hhints = (
{
position = 0;
width = 384;
},
{
position = 1152;
width = 384;
},
{
position = 1681;
width = 640;
}
);
};
};
width = 1495;
}
);
unicode = 201;
},
{
glyphname = Ecaron;
lastChange = "2024-04-24 09:30:34 +0000";
layers = (
{
background = {
shapes = (
{
closed = 1;
nodes = (
(777,1937,l),
(936,2320,l),
(1361,2320,l),
(1022,1681,l),
(532,1681,l),
(192,2320,l),
(617,2320,l)
);
},
{
closed = 1;
nodes = (
(1017.54,384,o),
(1149.98,439.283,o),
(1248,512,c),
(1415,512,l),
(1415,0,l),
(48,0,l),
(48,434,l),
(206,459,l),
(206,1075,l),
(48,1100,l),
(48,1536,l),
(1415,1536,l),
(1415,1024,l),
(1254,1024,l),
(1151.59,1094.41,o),
(1019.73,1152,o),
(846,1152,c),
(846,879,l),
(1146,944,l),
(1146,590,l),
(846,655,l),
(846,384,l)
);
}
);
};
layerId = m001;
shapes = (
{
ref = E;
},
{
pos = (80,123);
ref = caroncomb;
}
);
userData = {
com.fontlab.hintData = {
hhints = (
{
position = 0;
width = 384;
},
{
position = 1152;
width = 384;
},
{
position = 1681;
width = 639;
}
);
};
};
width = 1495;
}
);
unicode = 282;
},
{
glyphname = Ecircumflex;
lastChange = "2024-04-24 09:23:52 +0000";
layers = (
{
background = {
shapes = (
{
closed = 1;
nodes = (
(534,2320,l),
(1024,2320,l),
(1363,1681,l),
(938,1681,l),
(779,2064,l),
(619,1681,l),
(194,1681,l)
);
},
{
closed = 1;
nodes = (
(1017.54,384,o),
(1149.98,439.283,o),
(1248,512,c),
(1415,512,l),
(1415,0,l),
(48,0,l),
(48,434,l),
(206,459,l),
(206,1075,l),
(48,1100,l),
(48,1536,l),
(1415,1536,l),
(1415,1024,l),
(1254,1024,l),
(1151.59,1094.41,o),
(1019.73,1152,o),
(846,1152,c),
(846,879,l),
(1146,944,l),
(1146,590,l),
(846,655,l),
(846,384,l)
);
}
);
};
layerId = m001;
shapes = (
{
ref = E;
},
{
pos = (78,123);
ref = circumflexcomb;
}
);
userData = {
com.fontlab.hintData = {
hhints = (
{
position = 0;
width = 384;
},
{
position = 1152;
width = 384;
},
{
position = 1681;
width = 639;
}
);
};
};
width = 1495;
}
);
unicode = 202;
},
{
glyphname = Edblgrave;
lastChange = "2024-04-24 09:25:14 +0000";
layers = (
{
background = {
shapes = (
{
closed = 1;
nodes = (
(1017.54,384,o),
(1149.98,439.283,o),
(1248,512,c),
(1415,512,l),
(1415,0,l),
(48,0,l),
(48,434,l),
(206,459,l),
(206,1075,l),
(48,1100,l),
(48,1536,l),
(1415,1536,l),
(1415,1024,l),
(1254,1024,l),
(1151.59,1094.41,o),
(1019.73,1152,o),
(846,1152,c),
(846,879,l),
(1146,944,l),
(1146,590,l),
(846,655,l),
(846,384,l)
);
}
);
};
layerId = m001;
shapes = (
{
ref = E;
},
{
pos = (-5,123);
ref = dblgravecomb;
}
);
userData = {
com.fontlab.hintData = {
hhints = (
{
position = 0;
width = 384;
},
{
position = 1152;
width = 384;
},
{
position = 1681;
width = 640;
}
);
};
};
width = 1495;
}
);
unicode = 516;
},
{
glyphname = Edieresis;
lastChange = "2024-04-24 09:25:30 +0000";
layers = (
{
background = {
shapes = (
{
closed = 1;
nodes = (
(1325,2065,l),
(1325,1681,l),
(900,1681,l),
(900,2065,l)
);
},
{
closed = 1;
nodes = (
(581,1681,l),
(156,1681,l),
(156,2065,l),
(581,2065,l)
);
},
{
closed = 1;
nodes = (
(1017.54,384,o),
(1149.98,439.283,o),
(1248,512,c),
(1415,512,l),
(1415,0,l),
(48,0,l),
(48,434,l),
(206,459,l),
(206,1075,l),
(48,1100,l),
(48,1536,l),
(1415,1536,l),
(1415,1024,l),
(1254,1024,l),
(1151.59,1094.41,o),
(1019.73,1152,o),
(846,1152,c),
(846,879,l),
(1146,944,l),
(1146,590,l),
(846,655,l),
(846,384,l)
);
}
);
};
layerId = m001;
shapes = (
{
ref = E;
},
{
pos = (74,123);
ref = dieresiscomb;
}
);
userData = {
com.fontlab.hintData = {
hhints = (
{
position = 0;
width = 384;
},
{
position = 1152;
width = 384;
},
{
position = 1681;
width = 384;
}
);
vhints = (
{
position = 156;
width = 425;
},
{
position = 900;
width = 425;
}
);
};
};
width = 1495;
}
);
unicode = 203;
},
{
color = 9;
glyphname = Edotaccent;
lastChange = "2024-04-24 09:22:02 +0000";
layers = (
{
background = {
shapes = (
{
closed = 1;
nodes = (
(1017.54,384,o),
(1149.98,439.283,o),
(1248,512,c),
(1415,512,l),
(1415,0,l),
(48,0,l),
(48,434,l),
(206,459,l),
(206,1075,l),
(48,1100,l),
(48,1536,l),
(1415,1536,l),
(1415,1024,l),
(1254,1024,l),
(1151.59,1094.41,o),
(1019.73,1152,o),
(846,1152,c),
(846,879,l),
(1146,944,l),
(1146,590,l),
(846,655,l),
(846,384,l)
);
},
{
closed = 1;
nodes = (
(2224,2176,l),
(2224,1664,l),
(1584,1664,l),
(1584,2176,l)
);
}
);
};
layerId = m001;
shapes = (
{
ref = E;
},
{
pos = (339,128);
ref = dotaccentcomb;
}
);
width = 1495;
}
);
unicode = 278;
},
{
glyphname = Egrave;
lastChange = "2024-04-24 09:25:50 +0000";
layers = (
{
background = {
shapes = (
{
closed = 1;
nodes = (
(672,2321,l),
(1011,1681,l),
(586,1681,l),
(182,2321,l)
);
},
{
closed = 1;
nodes = (
(1017.54,384,o),
(1149.98,439.283,o),
(1248,512,c),
(1415,512,l),
(1415,0,l),
(48,0,l),
(48,434,l),
(206,459,l),
(206,1075,l),
(48,1100,l),
(48,1536,l),
(1415,1536,l),
(1415,1024,l),
(1254,1024,l),
(1151.59,1094.41,o),
(1019.73,1152,o),
(846,1152,c),
(846,879,l),
(1146,944,l),
(1146,590,l),
(846,655,l),
(846,384,l)
);
}
);
};
layerId = m001;
shapes = (
{
ref = E;
},
{
pos = (100,123);
ref = gravecomb;
}
);
userData = {
com.fontlab.hintData = {
hhints = (
{
position = 0;
width = 384;
},
{
position = 1152;
width = 384;
},
{
position = 1681;
width = 640;
}
);
};
};
width = 1495;
}
);
unicode = 200;
},
{
glyphname = Einvertedbreve;
lastChange = "2024-04-24 09:29:25 +0000";
layers = (
{
background = {
shapes = (
{
closed = 1;
nodes = (
(1017.54,384,o),
(1149.98,439.283,o),
(1248,512,c),
(1415,512,l),
(1415,0,l),
(48,0,l),
(48,434,l),
(206,459,l),
(206,1075,l),
(48,1100,l),
(48,1536,l),
(1415,1536,l),
(1415,1024,l),
(1254,1024,l),
(1151.59,1094.41,o),
(1019.73,1152,o),
(846,1152,c),
(846,879,l),
(1146,944,l),
(1146,590,l),
(846,655,l),
(846,384,l)
);
}
);
};
layerId = m001;
shapes = (
{
ref = E;
},
{
pos = (288,123);
ref = breveinvertedcomb;
}
);
userData = {
com.fontlab.hintData = {
hhints = (
{
position = 0;
width = 384;
},
{
position = 1152;
width = 384;
},
{
position = 1681;
width = 21;
},
{
position = 1833;
width = 293;
}
);
};
};
width = 1495;
}
);
unicode = 518;
},
{
color = 9;
glyphname = Emacron;
lastChange = "2024-04-24 09:22:02 +0000";
layers = (
{
background = {
shapes = (
{
closed = 1;
nodes = (
(1017.54,384,o),
(1149.98,439.283,o),
(1248,512,c),
(1415,512,l),
(1415,0,l),
(48,0,l),
(48,434,l),
(206,459,l),
(206,1075,l),
(48,1100,l),
(48,1536,l),
(1415,1536,l),
(1415,1024,l),
(1254,1024,l),
(1151.59,1094.41,o),
(1019.73,1152,o),
(846,1152,c),
(846,879,l),
(1146,944,l),
(1146,590,l),
(846,655,l),
(846,384,l)
);
},
{
closed = 1;
nodes = (
(2067,1536,l),
(1555,1536,l),
(1555,1752,l),
(2067,1752,l)
);
}
);
};
layerId = m001;
shapes = (
{
ref = E;
},
{
pos = (432,128);
ref = macroncomb;
}
);
width = 1495;
}
);
unicode = 274;
},
{
glyphname = Eogonek;
lastChange = "2024-04-24 09:33:16 +0000";
layers = (
{
background = {
shapes = (
{
closed = 1;
nodes = (
(610,-866,o),
(472,-730,o),
(472,-482,cs),
(472,-331,o),
(537,-218,o),
(599,-125,cs),
(636,-70,o),
(678,-19,o),
(727,30,c),
(1061,30,l),
(958,-70,o),
(850,-188,o),
(804,-339,cs),
(796,-364,o),
(792,-389,o),
(792,-412,cs),
(792,-503,o),
(839,-543,o),
(928,-543,cs),
(973,-543,o),
(1034,-530,o),
(1111,-505,c),
(1111,-822,l),
(1037,-846,o),
(945,-866,o),
(855,-866,cs)
);
},
{
closed = 1;
nodes = (
(980,384,o),
(1112,439,o),
(1210,512,c),
(1377,512,l),
(1377,0,l),
(10,0,l),
(10,434,l),
(168,459,l),
(168,1075,l),
(10,1100,l),
(10,1536,l),
(1377,1536,l),
(1377,1024,l),
(1216,1024,l),
(1114,1094,o),
(982,1152,o),
(808,1152,c),
(808,879,l),
(1108,944,l),
(1108,590,l),
(808,655,l),
(808,384,l)
);
}
);
};
layerId = m001;
shapes = (
{
ref = E;
},
{
pos = (417,10);
ref = ogonekcomb;
}
);
userData = {
com.fontlab.hintData = {
hhints = (
{
position = -866;
width = 323;
},
{
position = 0;
width = 384;
},
{
position = 1152;
width = 384;
}
);
vhints = (
{
position = 472;
width = 320;
}
);
};
};
width = 1495;
}
);
unicode = 280;
},
{
glyphname = F;
lastChange = "2024-04-24 09:57:08 +0000";
layers = (
{
anchors = (
{
name = bottom;
pos = (695,0);
},
{
name = top;
pos = (695,1536);
}
);
background = {
shapes = (
{
closed = 1;
nodes = (
(1116,944,l),
(1116,590,l),
(844,655,l),
(844,459,l),
(1002,430,l),
(1002,0,l),
(46,0,l),
(46,434,l),
(204,459,l),
(204,1075,l),
(46,1100,l),
(46,1536,l),
(1313,1536,l),
(1313,1024,l),
(1145,1024,l),
(1073.26,1089.76,o),
(981.511,1152,o),
(844,1152,c),
(844,879,l)
);
}
);
};
layerId = m001;
shapes = (
{
closed = 1;
nodes = (
(1002,0,l),
(1002,430,l),
(844,459,l),
(844,655,l),
(1116,590,l),
(1116,944,l),
(844,879,l),
(844,1152,l),
(982,1152,o),
(1073,1090,o),
(1145,1024,c),
(1313,1024,l),
(1313,1536,l),
(46,1536,l),
(46,1100,l),
(204,1075,l),
(204,459,l),
(46,434,l),
(46,0,l)
);
}
);
userData = {
com.fontlab.hintData = {
hhints = (
{
position = 0;
width = 21;
},
{
position = 1516;
width = 20;
}
);
};
};
width = 1389;
}
);
unicode = 70;
},
{
glyphname = G;
lastChange = "2024-04-24 09:57:08 +0000";
layers = (
{
anchors = (
{
name = bottom;
pos = (929,0);
},
{
name = top;
pos = (862,1556);
}
);
background = {
shapes = (
{
closed = 1;
nodes = (
(381.305,-18,o),
(67,257.193,o),
(67,786,cs),
(67,1300.63,o),
(371.369,1559,o),
(882,1559,cs),
(1156.19,1559,o),
(1364.49,1514.67,o),
(1544,1430,c),
(1544,973,l),
(1243,973,l),
(1189.14,1049.04,o),
(1113.37,1113,o),
(1001,1113,cs),
(821.271,1113,o),
(708,969.988,o),
(708,786,cs),
(708,569.789,o),
(803.114,453,o),
(1010,453,cs),
(1062.64,453,o),
(1110.5,459.163,o),
(1156,469,c),
(1156,590,l),
(964,590,l),
(964,864,l),
(1586,864,l),
(1586,134,l),
(1394.53,54.02,o),
(1175.66,-18,o),
(911,-18,cs)
);
}
);
};
layerId = m001;
shapes = (
{
closed = 1;
nodes = (
(1176,-18,o),
(1395,54,o),
(1586,134,c),
(1586,864,l),
(964,864,l),
(964,590,l),
(1156,590,l),
(1156,469,l),
(1111,459,o),
(1063,453,o),
(1010,453,cs),
(803,453,o),
(708,570,o),
(708,786,cs),
(708,970,o),
(821,1113,o),
(1001,1113,cs),
(1113,1113,o),
(1189,1049,o),
(1243,973,c),
(1544,973,l),
(1544,1430,l),
(1364,1515,o),
(1156,1559,o),
(882,1559,cs),
(371,1559,o),
(67,1301,o),
(67,786,cs),
(67,257,o),
(381,-18,o),
(911,-18,cs)
);
}
);
userData = {
com.fontlab.hintData = {
hhints = (
{
position = -18;
width = 471;
},
{
position = 590;
width = 274;
},
{
position = 1113;
width = 446;
}
);
vhints = (
{
position = 67;
width = 641;
},
{
position = 1156;
width = 430;
}
);
};
};
width = 1658;
}
);
unicode = 71;
},
{
glyphname = Gbreve;
lastChange = "2024-04-24 09:33:27 +0000";
layers = (
{
background = {
shapes = (
{
closed = 1;
nodes = (
(1267,1867,o),
(1116,1681,o),
(864,1681,cs),
(612,1681,o),
(463,1870,o),
(463,2126,c),
(732,2126,l),
(732,2040,o),
(781,1974,o),
(865,1974,cs),
(948,1974,o),
(998,2040,o),
(998,2126,c),
(1267,2126,l)
);
},
{
closed = 1;
nodes = (
(381.305,-18,o),
(67,257.193,o),
(67,786,cs),
(67,1300.63,o),
(371.369,1559,o),
(882,1559,cs),
(1156.19,1559,o),
(1364.49,1514.67,o),
(1544,1430,c),
(1544,973,l),
(1243,973,l),
(1189.14,1049.04,o),
(1113.37,1113,o),
(1001,1113,cs),
(821.271,1113,o),
(708,969.988,o),
(708,786,cs),
(708,569.789,o),
(803.114,453,o),
(1010,453,cs),
(1062.64,453,o),
(1110.5,459.163,o),
(1156,469,c),
(1156,590,l),
(964,590,l),
(964,864,l),
(1586,864,l),
(1586,134,l),
(1394.53,54.02,o),
(1175.66,-18,o),
(911,-18,cs)
);
}
);
};
layerId = m001;
shapes = (
{
ref = G;
},
{
pos = (412,148);
ref = brevecomb;
}
);
userData = {
com.fontlab.hintData = {
hhints = (
{
position = -18;
width = 471;
},
{
position = 590;
width = 274;
},
{
position = 1113;
width = 446;
},
{
position = 1681;
width = 293;
}
);
vhints = (
{
position = 67;
width = 641;
},
{
position = 1156;
width = 430;
}
);
};
};
width = 1658;
}
);
unicode = 286;
},
{
color = 9;
glyphname = Gdotaccent;
lastChange = "2024-04-24 09:33:27 +0000";
layers = (
{
background = {
shapes = (
{
closed = 1;
nodes = (
(381.305,-18,o),
(67,257.193,o),
(67,786,cs),
(67,1300.63,o),
(371.369,1559,o),
(882,1559,cs),
(1156.19,1559,o),
(1364.49,1514.67,o),
(1544,1430,c),
(1544,973,l),
(1243,973,l),
(1189.14,1049.04,o),
(1113.37,1113,o),
(1001,1113,cs),
(821.271,1113,o),
(708,969.988,o),
(708,786,cs),
(708,569.789,o),
(803.114,453,o),
(1010,453,cs),
(1062.64,453,o),
(1110.5,459.163,o),
(1156,469,c),
(1156,590,l),
(964,590,l),
(964,864,l),
(1586,864,l),
(1586,134,l),
(1394.53,54.02,o),
(1175.66,-18,o),
(911,-18,cs)
);
},
{
closed = 1;
nodes = (
(2387,2176,l),
(2387,1664,l),
(1747,1664,l),
(1747,2176,l)
);
}
);
};
layerId = m001;
shapes = (
{
ref = G;
},
{
pos = (453,148);
ref = dotaccentcomb;
}
);
width = 1658;
}
);
unicode = 288;
},
{
glyphname = H;
lastChange = "2024-04-24 09:57:08 +0000";
layers = (
{
anchors = (
{
name = bottom;
pos = (1135,0);
},
{
name = center;
pos = (1135,1152);
},
{
name = top;
pos = (1135,1536);
},
{
name = topleft;
pos = (20,1536);
}
);
background = {
shapes = (
{
closed = 1;
nodes = (
(1027,1536,l),
(1027,1100,l),
(879,1075,l),
(879,886,l),
(1391,886,l),
(1391,1075,l),
(1243,1100,l),
(1243,1536,l),
(2187,1536,l),
(2187,1100,l),
(2031,1075,l),
(2031,459,l),
(2187,434,l),
(2187,0,l),
(1243,0,l),
(1243,434,l),
(1391,459,l),
(1391,660,l),
(879,660,l),
(879,459,l),
(1027,434,l),
(1027,0,l),
(83,0,l),
(83,434,l),
(239,459,l),
(239,1075,l),
(83,1100,l),
(83,1536,l)
);
}
);
};
layerId = m001;
shapes = (
{
closed = 1;
nodes = (
(1027,0,l),
(1027,434,l),
(879,459,l),
(879,660,l),
(1391,660,l),
(1391,459,l),
(1243,434,l),
(1243,0,l),
(2187,0,l),
(2187,434,l),
(2031,459,l),
(2031,1075,l),
(2187,1100,l),
(2187,1536,l),
(1243,1536,l),
(1243,1100,l),
(1391,1075,l),
(1391,886,l),
(879,886,l),
(879,1075,l),
(1027,1100,l),
(1027,1536,l),
(83,1536,l),
(83,1100,l),
(239,1075,l),
(239,459,l),
(83,434,l),
(83,0,l)
);
}
);
userData = {
com.fontlab.hintData = {
hhints = (
{
position = 0;
width = 434;
},
{
position = 660;
width = 226;
},
{
position = 1100;
width = 436;
}
);
vhints = (
{
position = 83;
width = 944;
},
{
position = 1243;
width = 944;
}
);
};
};
width = 2270;
}
);
unicode = 72;
},
{
color = 9;
glyphname = Hbar;
lastChange = "2024-04-24 09:34:53 +0000";
layers = (
{
anchors = (
{
name = bottom;
pos = (1135,0);
},
{
name = center;
pos = (1135,1152);
},
{
name = top;
pos = (1135,1536);
},
{
name = topleft;
pos = (20,1536);
}
);
layerId = m001;
shapes = (
{
closed = 1;
nodes = (
(1027,0,l),
(1027,434,l),
(879,459,l),
(879,660,l),
(1391,660,l),
(1391,459,l),
(1243,434,l),
(1243,0,l),
(2187,0,l),
(2187,434,l),
(2031,459,l),
(2031,1536,l),
(1391,1536,l),
(1391,886,l),
(879,886,l),
(879,1536,l),
(239,1536,l),
(239,459,l),
(83,434,l),
(83,0,l)
);
},
{
closed = 1;
nodes = (
(2201,1070,l),
(2201,1296,l),
(69,1296,l),
(69,1070,l)
);
}
);
width = 2270;
}
);
unicode = 294;
},
{
glyphname = I;
lastChange = "2024-04-24 09:57:08 +0000";
layers = (
{
anchors = (
{
name = bottom;
pos = (526,0);
},
{
name = ogonek;
pos = (947,10);
},
{
name = top;
pos = (526,1536);
},
{
name = topleft;
pos = (20,1536);
}
);
background = {
shapes = (
{
closed = 1;
nodes = (
(1004,1536,l),
(1004,1102,l),
(846,1077,l),
(846,459,l),
(1004,434,l),
(1004,0,l),
(48,0,l),
(48,434,l),
(206,459,l),
(206,1077,l),
(48,1102,l),
(48,1536,l)
);
}
);
};
layerId = m001;
shapes = (
{
closed = 1;
nodes = (
(1004,0,l),
(1004,434,l),
(846,459,l),
(846,1077,l),
(1004,1102,l),
(1004,1536,l),
(48,1536,l),
(48,1102,l),
(206,1077,l),
(206,459,l),
(48,434,l),
(48,0,l)
);
}
);
userData = {
com.fontlab.hintData = {
hhints = (
{
position = 0;
width = 21;
},
{
position = 1516;
width = 20;
}
);
vhints = (
{
position = 48;
width = 956;
},
{
position = 206;
width = 640;
}
);
};
};
width = 1052;
}
);
unicode = 73;
},
{
glyphname = Iacute;
lastChange = "2024-04-24 09:22:35 +0000";
layers = (
{
background = {
shapes = (
{
closed = 1;
nodes = (
(359,1681,l),
(698,2321,l),
(1188,2321,l),
(784,1681,l)
);
},
{
closed = 1;
nodes = (
(1004,1536,l),
(1004,1102,l),
(846,1077,l),
(846,459,l),
(1004,434,l),
(1004,0,l),
(48,0,l),
(48,434,l),
(206,459,l),
(206,1077,l),
(48,1102,l),
(48,1536,l)
);
}
);
};
layerId = m001;
shapes = (
{
ref = I;
},
{
pos = (269,126);
ref = acutecomb;
}
);
userData = {
com.fontlab.hintData = {
hhints = (
{
position = 0;
width = 21;
},
{
position = 1516;
width = 20;
},
{
position = 1681;
width = 640;
}
);
vhints = (
{
position = 48;
width = 956;
},
{
position = 206;
width = 640;
}
);
};
};
width = 1052;
}
);
unicode = 205;
},
{
glyphname = Icircumflex;
lastChange = "2024-04-24 09:23:52 +0000";
layers = (
{
background = {
shapes = (
{
closed = 1;
nodes = (
(313,2320,l),
(803,2320,l),
(1142,1681,l),
(717,1681,l),
(558,2064,l),
(398,1681,l),
(-27,1681,l)
);
},
{
closed = 1;
nodes = (
(1004,1536,l),
(1004,1102,l),
(846,1077,l),
(846,459,l),
(1004,434,l),
(1004,0,l),
(48,0,l),
(48,434,l),
(206,459,l),
(206,1077,l),
(48,1102,l),
(48,1536,l)
);
}
);
};
layerId = m001;
shapes = (
{
ref = I;
},
{
pos = (-144,123);
ref = circumflexcomb;
}
);
userData = {
com.fontlab.hintData = {
hhints = (
{
position = 0;
width = 21;
},
{
position = 1516;
width = 20;
},
{
position = 1681;
width = 639;
}
);
vhints = (
{
position = 48;
width = 956;
},
{
position = 206;
width = 640;
}
);
};
};
width = 1052;
}
);
unicode = 206;
},
{
glyphname = Idblgrave;
lastChange = "2024-04-24 09:25:14 +0000";
layers = (
{
background = {
shapes = (
{
closed = 1;
nodes = (
(1004,1536,l),
(1004,1102,l),
(846,1077,l),
(846,459,l),
(1004,434,l),
(1004,0,l),
(48,0,l),
(48,434,l),
(206,459,l),
(206,1077,l),
(48,1102,l),
(48,1536,l)
);
}
);
};
layerId = m001;
shapes = (
{
ref = I;
},
{
pos = (-227,123);
ref = dblgravecomb;
}
);
userData = {
com.fontlab.hintData = {
hhints = (
{
position = 0;
width = 21;
},
{
position = 1516;
width = 20;
},
{
position = 1681;
width = 640;
}
);
vhints = (
{
position = 48;
width = 956;
},
{
position = 206;
width = 640;
}
);
};
};
width = 1052;
}
);
unicode = 520;
},
{
glyphname = Idieresis;
lastChange = "2024-04-24 09:25:30 +0000";
layers = (
{
background = {
shapes = (
{
closed = 1;
nodes = (
(1104,2065,l),
(1104,1681,l),
(679,1681,l),
(679,2065,l)
);
},
{
closed = 1;
nodes = (
(360,1681,l),
(-65,1681,l),
(-65,2065,l),
(360,2065,l)
);
},
{
closed = 1;
nodes = (
(1004,1536,l),
(1004,1102,l),
(846,1077,l),
(846,459,l),
(1004,434,l),
(1004,0,l),
(48,0,l),
(48,434,l),
(206,459,l),
(206,1077,l),
(48,1102,l),
(48,1536,l)
);
}
);
};
layerId = m001;
shapes = (
{
ref = I;
},
{
pos = (-148,123);
ref = dieresiscomb;
}
);
userData = {
com.fontlab.hintData = {
hhints = (
{
position = 0;
width = 21;
},
{
position = 1516;
width = 20;
},
{
position = 1681;
width = 384;
}
);
vhints = (
{
position = -65;
width = 425;
},
{
position = 48;
width = 956;
},
{
position = 206;
width = 640;
},
{
position = 679;
width = 425;
}
);
};
};
width = 1052;
}
);
unicode = 207;
},
{
glyphname = Idotaccent;
lastChange = "2024-04-24 09:22:02 +0000";
layers = (
{
background = {
shapes = (
{
closed = 1;
nodes = (
(840,2193,l),
(840,1681,l),
(200,1681,l),
(200,2193,l)
);
},
{
closed = 1;
nodes = (
(1004,1536,l),
(1004,1102,l),
(846,1077,l),
(846,459,l),
(1004,434,l),
(1004,0,l),
(48,0,l),
(48,434,l),
(206,459,l),
(206,1077,l),
(48,1102,l),
(48,1536,l)
);
}
);
};
layerId = m001;
shapes = (
{
ref = I;
},
{
pos = (117,128);
ref = dotaccentcomb;
}
);
userData = {
com.fontlab.hintData = {
hhints = (
{
position = 0;
width = 21;
},
{
position = 1516;
width = 20;
},
{
position = 1681;
width = 512;
}
);
vhints = (
{
position = 48;
width = 956;
},
{
position = 200;
width = 640;
},
{
position = 206;
width = 640;
}
);
};
};
width = 1052;
}
);
unicode = 304;
},
{
glyphname = Igrave;
lastChange = "2024-04-24 09:25:50 +0000";
layers = (
{
background = {
shapes = (
{
closed = 1;
nodes = (
(451,2321,l),
(790,1681,l),
(365,1681,l),
(-39,2321,l)
);
},
{
closed = 1;
nodes = (
(1004,1536,l),
(1004,1102,l),
(846,1077,l),
(846,459,l),
(1004,434,l),
(1004,0,l),
(48,0,l),
(48,434,l),
(206,459,l),
(206,1077,l),
(48,1102,l),
(48,1536,l)
);
}
);
};
layerId = m001;
shapes = (
{
ref = I;
},
{
pos = (-122,123);
ref = gravecomb;
}
);
userData = {
com.fontlab.hintData = {
hhints = (
{
position = 0;
width = 21;
},
{
position = 1516;
width = 20;
},
{
position = 1681;
width = 640;
}
);
vhints = (
{
position = 48;
width = 956;
},
{
position = 206;
width = 640;
}
);
};
};
width = 1052;
}
);
unicode = 204;
},
{
glyphname = Iinvertedbreve;
lastChange = "2024-04-24 09:29:25 +0000";
layers = (
{
background = {
shapes = (
{
closed = 1;
nodes = (
(1004,1536,l),
(1004,1102,l),
(846,1077,l),
(846,459,l),
(1004,434,l),
(1004,0,l),
(48,0,l),
(48,434,l),
(206,459,l),
(206,1077,l),
(48,1102,l),
(48,1536,l)
);
}
);
};
layerId = m001;
shapes = (
{
ref = I;
},
{
pos = (66,123);
ref = breveinvertedcomb;
}
);
userData = {
com.fontlab.hintData = {
hhints = (
{
position = 0;
width = 21;
},
{
position = 1516;
width = 20;
},
{
position = 1681;
width = 21;
},
{
position = 1833;
width = 293;
}
);
vhints = (
{
position = 48;
width = 956;
},
{
position = 206;
width = 640;
}
);
};
};
width = 1052;
}
);
unicode = 522;
},
{
color = 9;
glyphname = Imacron;
lastChange = "2024-04-24 09:22:02 +0000";
layers = (
{
background = {
shapes = (
{
closed = 1;
nodes = (
(1004,1536,l),
(1004,1102,l),
(846,1077,l),
(846,459,l),
(1004,434,l),
(1004,0,l),
(48,0,l),
(48,434,l),
(206,459,l),
(206,1077,l),
(48,1102,l),
(48,1536,l)
);
},
{
closed = 1;
nodes = (
(1624,1536,l),
(1112,1536,l),
(1112,1752,l),
(1624,1752,l)
);
}
);
};
layerId = m001;
shapes = (
{
ref = I;
},
{
pos = (210,128);
ref = macroncomb;
}
);
width = 1052;
}
);
unicode = 298;
},
{
color = 9;
glyphname = Iogonek;
lastChange = "2024-04-24 09:22:02 +0000";
layers = (
{
background = {
shapes = (
{
closed = 1;
nodes = (
(1004,1536,l),
(1004,1102,l),
(846,1077,l),
(846,459,l),
(1004,434,l),
(1004,0,l),
(48,0,l),
(48,434,l),
(206,459,l),
(206,1077,l),
(48,1102,l),
(48,1536,l)
);
},
{
closed = 1;
nodes = (
(1244,-876,o),
(1106,-740,o),
(1106,-492,cs),
(1106,-341,o),
(1171,-228,o),
(1233,-135,cs),
(1270,-80,o),
(1312,-29,o),
(1361,20,c),
(1695,20,l),
(1592,-80,o),
(1484,-198,o),
(1438,-349,cs),
(1430,-374,o),
(1426,-399,o),
(1426,-422,cs),
(1426,-513,o),
(1473,-553,o),
(1562,-553,cs),
(1607,-553,o),
(1668,-540,o),
(1745,-515,c),
(1745,-832,l),
(1671,-856,o),
(1579,-876,o),
(1489,-876,cs)
);
}
);
};
layerId = m001;
shapes = (
{
ref = I;
},
{
pos = (254,-10);
ref = ogonekcomb;
}
);
width = 1052;
}
);
unicode = 302;
},
{
glyphname = J;
lastChange = "2024-04-24 09:57:08 +0000";
layers = (
{
anchors = (
{
name = bottom;
pos = (746,0);
},
{
name = top;
pos = (1006,1536);
}
);
background = {
shapes = (
{
closed = 1;
nodes = (
(639.019,423,o),
(683,532.828,o),
(683,640,cs),
(683,1077,l),
(525,1102,l),
(525,1536,l),
(1481,1536,l),
(1481,1102,l),
(1323,1077,l),
(1323,640,ls),
(1323,188.752,o),
(1066.54,-18,o),
(616,-18,cs),
(379.068,-18,o),
(190.283,16.993,o),
(44,99,c),
(44,563,l),
(345,563,l),
(383.114,490.784,o),
(444.627,423,o),
(537,423,cs)
);
}
);
};
layerId = m001;
shapes = (
{
closed = 1;
nodes = (
(1067,-18,o),
(1323,189,o),
(1323,640,cs),
(1323,1077,l),
(1481,1102,l),
(1481,1536,l),
(525,1536,l),
(525,1102,l),
(683,1077,l),
(683,640,ls),
(683,533,o),
(639,423,o),
(537,423,cs),
(445,423,o),
(383,491,o),
(345,563,c),
(44,563,l),
(44,99,l),
(190,17,o),
(379,-18,o),
(616,-18,cs)
);
}
);
userData = {
com.fontlab.hintData = {
hhints = (
{
position = -18;
width = 441;
},
{
position = 1516;
width = 20;
}
);
vhints = (
{
position = 683;
width = 640;
}
);
};
};
width = 1492;
}
);
unicode = 74;
},
{
glyphname = K;
lastChange = "2024-04-24 09:57:08 +0000";
layers = (
{
anchors = (
{
name = bottom;
pos = (997,0);
},
{
name = top;
pos = (997,1536);
}
);
background = {
shapes = (
{
closed = 1;
nodes = (
(1734.94,1155.06,o),
(1580.73,975.638,o),
(1453,786,c),
(1593.67,591.742,o),
(1739.43,383.928,o),
(1918,227,c),
(1919,0,l),
(1127,0,l),
(844,641,l),
(844,0,l),
(46,0,l),
(46,434,l),
(204,459,l),
(204,1077,l),
(46,1102,l),
(46,1536,l),
(844,1536,l),
(844,920,l),
(1127,1536,l),
(1919,1536,l),
(1920,1290,l)
);
}
);
};
layerId = m001;
shapes = (
{
closed = 1;
nodes = (
(844,0,l),
(844,641,l),
(1127,0,l),
(1918,0,l),
(1918,227,l),
(1739,384,o),
(1594,592,o),
(1453,786,c),
(1581,976,o),
(1735,1155,o),
(1920,1290,c),
(1920,1536,l),
(1127,1536,l),
(844,920,l),
(844,1536,l),
(46,1536,l),
(46,1102,l),
(204,1077,l),
(204,459,l),
(46,434,l),
(46,0,l)
);
}
);
userData = {
com.fontlab.hintData = {
hhints = (
{
position = 0;
width = 21;
},
{
position = 1516;
width = 20;
}
);
vhints = (
{
position = 46;
width = 798;
}
);
};
};
width = 1994;
}
);
unicode = 75;
},
{
glyphname = L;
lastChange = "2024-04-24 09:57:08 +0000";
layers = (
{
anchors = (
{
name = bottom;
pos = (686,0);
},
{
name = center;
pos = (686,768);
},
{
name = top;
pos = (546,1536);
},
{
name = topright;
pos = (1352,1536);
}
);
background = {
shapes = (
{
closed = 1;
nodes = (
(973.026,384,o),
(1065.4,445.517,o),
(1129,512,c),
(1296,512,l),
(1296,0,l),
(46,0,l),
(46,434,l),
(204,459,l),
(204,1077,l),
(46,1102,l),
(46,1536,l),
(992,1536,l),
(992,1102,l),
(844,1077,l),
(844,384,l)
);
}
);
};
layerId = m001;
shapes = (
{
closed = 1;
nodes = (
(1296,0,l),
(1296,512,l),
(1129,512,l),
(1065,446,o),
(973,384,o),
(844,384,c),
(844,1077,l),
(992,1102,l),
(992,1536,l),
(46,1536,l),
(46,1102,l),
(204,1077,l),
(204,459,l),
(46,434,l),
(46,0,l)
);
}
);
userData = {
com.fontlab.hintData = {
hhints = (
{
position = 0;
width = 21;
},
{
position = 1516;
width = 20;
}
);
vhints = (
{
position = 204;
width = 640;
}
);
};
};
width = 1372;
}
);
unicode = 76;
},
{
glyphname = Lacute;
lastChange = "2024-04-24 09:35:24 +0000";
layers = (
{
background = {
shapes = (
{
closed = 1;
nodes = (
(519,1681,l),
(858,2321,l),
(1348,2321,l),
(944,1681,l)
);
},
{
closed = 1;
nodes = (
(973.026,384,o),
(1065.4,445.517,o),
(1129,512,c),
(1296,512,l),
(1296,0,l),
(46,0,l),
(46,434,l),
(204,459,l),
(204,1077,l),
(46,1102,l),
(46,1536,l),
(992,1536,l),
(992,1102,l),
(844,1077,l),
(844,384,l)
);
}
);
};
layerId = m001;
shapes = (
{
ref = L;
},
{
pos = (289,126);
ref = acutecomb;
}
);
userData = {
com.fontlab.hintData = {
hhints = (
{
position = 0;
width = 21;
},
{
position = 1516;
width = 20;
},
{
position = 1681;
width = 640;
}
);
vhints = (
{
position = 204;
width = 640;
}
);
};
};
width = 1372;
}
);
unicode = 313;
},
{
glyphname = Lcaron;
lastChange = "2024-04-24 09:35:24 +0000";
layers = (
{
background = {
shapes = (
{
closed = 1;
nodes = (
(2075,1559,l),
(2075,1048,ls),
(2075,739,o),
(1867,595,o),
(1563,595,c),
(1563,919,l),
(1638,923,o),
(1690,965,o),
(1690,1047,c),
(1435,1047,l),
(1435,1559,l)
);
},
{
closed = 1;
nodes = (
(935,384,o),
(1027,446,o),
(1091,512,c),
(1258,512,l),
(1258,0,l),
(8,0,l),
(8,434,l),
(166,459,l),
(166,1077,l),
(8,1102,l),
(8,1536,l),
(954,1536,l),
(954,1102,l),
(806,1077,l),
(806,384,l)
);
}
);
};
layerId = m001;
shapes = (
{
ref = L;
},
{
pos = (-122,123);
ref = caroncomb;
}
);
userData = {
com.fontlab.hintData = {
hhints = (
{
position = 0;
width = 21;
},
{
position = 1516;
width = 20;
}
);
vhints = (
{
position = 166;
width = 640;
},
{
position = 1435;
width = 640;
}
);
};
};
width = 1372;
}
);
unicode = 317;
},
{
glyphname = Lslash;
lastChange = "2024-04-24 09:57:08 +0000";
layers = (
{
background = {
shapes = (
{
closed = 1;
nodes = (
(971.026,384,o),
(1063.4,445.517,o),
(1127,512,c),
(1294,512,l),
(1294,0,l),
(74,0,l),
(74,434,l),
(202,459,l),
(202,640,l),
(74,640,l),
(74,896,l),
(202,896,l),
(202,1077,l),
(74,1102,l),
(74,1536,l),
(970,1536,l),
(970,1102,l),
(842,1077,l),
(842,896,l),
(1014,896,l),
(1014,640,l),
(842,640,l),
(842,384,l)
);
}
);
};
layerId = m001;
shapes = (
{
closed = 1;
nodes = (
(1294,0,l),
(1294,512,l),
(1127,512,l),
(1063,446,o),
(971,384,o),
(842,384,c),
(842,640,l),
(1014,640,l),
(1014,896,l),
(842,896,l),
(842,1077,l),
(970,1102,l),
(970,1536,l),
(74,1536,l),
(74,1102,l),
(202,1077,l),
(202,896,l),
(74,896,l),
(74,640,l),
(202,640,l),
(202,459,l),
(74,434,l),
(74,0,l)
);
}
);
userData = {
com.fontlab.hintData = {
hhints = (
{
position = 0;
width = 21;
},
{
position = 640;
width = 256;
},
{
position = 1516;
width = 20;
}
);
};
};
width = 1353;
}
);
unicode = 321;
},
{
glyphname = M;
lastChange = "2024-04-24 09:57:08 +0000";
layers = (
{
anchors = (
{
name = bottom;
pos = (1166,0);
},
{
name = top;
pos = (1166,1536);
}
);
background = {
shapes = (
{
closed = 1;
nodes = (
(845,0,l),
(48,0,l),
(48,434,l),
(206,459,l),
(206,1077,l),
(48,1102,l),
(48,1536,l),
(845,1536,l),
(1167,946,l),
(1486,1536,l),
(2284,1536,l),
(2284,1102,l),
(2126,1077,l),
(2126,459,l),
(2284,434,l),
(2284,0,l),
(1486,0,l),
(1486,749,l),
(1167,197,l),
(845,749,l)
);
}
);
};
layerId = m001;
shapes = (
{
closed = 1;
nodes = (
(845,0,l),
(845,749,l),
(1167,197,l),
(1486,749,l),
(1486,0,l),
(2284,0,l),
(2284,434,l),
(2126,459,l),
(2126,1077,l),
(2284,1102,l),
(2284,1536,l),
(1486,1536,l),
(1167,946,l),
(845,1536,l),
(48,1536,l),
(48,1102,l),
(206,1077,l),
(206,459,l),
(48,434,l),
(48,0,l)
);
}
);
userData = {
com.fontlab.hintData = {
hhints = (
{
position = 0;
width = 21;
},
{
position = 1516;
width = 20;
}
);
};
};
width = 2332;
}
);
unicode = 77;
},
{
glyphname = N;
lastChange = "2024-04-24 09:57:08 +0000";
layers = (
{
anchors = (
{
name = bottom;
pos = (1003,0);
},
{
name = top;
pos = (1003,1536);
}
);
background = {
shapes = (
{
closed = 1;
nodes = (
(621,459,l),
(749,435,l),
(749,0,l),
(81,0,l),
(81,434,l),
(237,459,l),
(237,1077,l),
(81,1102,l),
(81,1536,l),
(877,1536,l),
(1389,749,l),
(1389,1075,l),
(1261,1102,l),
(1261,1536,l),
(1929,1536,l),
(1929,1102,l),
(1773,1077,l),
(1773,0,l),
(1132,0,l),
(621,749,l)
);
}
);
};
layerId = m001;
shapes = (
{
closed = 1;
nodes = (
(749,0,l),
(749,435,l),
(621,459,l),
(621,749,l),
(1132,0,l),
(1773,0,l),
(1773,1077,l),
(1929,1102,l),
(1929,1536,l),
(1261,1536,l),
(1261,1102,l),
(1389,1075,l),
(1389,749,l),
(877,1536,l),
(81,1536,l),
(81,1102,l),
(237,1077,l),
(237,459,l),
(81,434,l),
(81,0,l)
);
}
);
userData = {
com.fontlab.hintData = {
hhints = (
{
position = 0;
width = 21;
},
{
position = 1102;
width = 434;
}
);
vhints = (
{
position = 237;
width = 384;
},
{
position = 1389;
width = 384;
}
);
};
};
width = 2006;
}
);
unicode = 78;
},
{
glyphname = Nacute;
lastChange = "2024-04-24 09:22:35 +0000";
layers = (
{
background = {
shapes = (
{
closed = 1;
nodes = (
(838,1681,l),
(1177,2321,l),
(1667,2321,l),
(1263,1681,l)
);
},
{
closed = 1;
nodes = (
(621,459,l),
(749,435,l),
(749,0,l),
(81,0,l),
(81,434,l),
(237,459,l),
(237,1077,l),
(81,1102,l),
(81,1536,l),
(877,1536,l),
(1389,749,l),
(1389,1075,l),
(1261,1102,l),
(1261,1536,l),
(1929,1536,l),
(1929,1102,l),
(1773,1077,l),
(1773,0,l),
(1132,0,l),
(621,749,l)
);
}
);
};
layerId = m001;
shapes = (
{
ref = N;
},
{
pos = (746,126);
ref = acutecomb;
}
);
userData = {
com.fontlab.hintData = {
hhints = (
{
position = 0;
width = 21;
},
{
position = 1102;
width = 434;
},
{
position = 1681;
width = 640;
}
);
vhints = (
{
position = 237;
width = 384;
},
{
position = 1389;
width = 384;
}
);
};
};
width = 2006;
}
);
unicode = 323;
},
{
glyphname = Ncaron;
lastChange = "2024-04-24 09:30:34 +0000";
layers = (
{
background = {
shapes = (
{
closed = 1;
nodes = (
(1035,1937,l),
(1194,2320,l),
(1619,2320,l),
(1280,1681,l),
(790,1681,l),
(450,2320,l),
(875,2320,l)
);
},
{
closed = 1;
nodes = (
(621,459,l),
(749,435,l),
(749,0,l),
(81,0,l),
(81,434,l),
(237,459,l),
(237,1077,l),
(81,1102,l),
(81,1536,l),
(877,1536,l),
(1389,749,l),
(1389,1075,l),
(1261,1102,l),
(1261,1536,l),
(1929,1536,l),
(1929,1102,l),
(1773,1077,l),
(1773,0,l),
(1132,0,l),
(621,749,l)
);
}
);
};
layerId = m001;
shapes = (
{
ref = N;
},
{
pos = (335,123);
ref = caroncomb;
}
);
userData = {
com.fontlab.hintData = {
hhints = (
{
position = 0;
width = 21;
},
{
position = 1102;
width = 434;
},
{
position = 1681;
width = 639;
}
);
vhints = (
{
position = 237;
width = 384;
},
{
position = 1389;
width = 384;
}
);
};
};
width = 2006;
}
);
unicode = 327;
},
{
glyphname = Ntilde;
lastChange = "2024-04-24 09:22:02 +0000";
layers = (
{
background = {
shapes = (
{
closed = 1;
nodes = (
(916,2182,o),
(1002,2067,o),
(1153,2067,cs),
(1277,2067,o),
(1354,2117,o),
(1432,2188,c),
(1372,1771,l),
(1337,1721,o),
(1286,1690,o),
(1211,1690,cs),
(1063,1690,o),
(968,1786,o),
(819,1786,cs),
(697,1786,o),
(616,1745,o),
(536,1681,c),
(598,2107,l),
(640,2154,o),
(689,2182,o),
(768,2182,cs)
);
},
{
closed = 1;
nodes = (
(621,459,l),
(749,435,l),
(749,0,l),
(81,0,l),
(81,434,l),
(237,459,l),
(237,1077,l),
(81,1102,l),
(81,1536,l),
(877,1536,l),
(1389,749,l),
(1389,1075,l),
(1261,1102,l),
(1261,1536,l),
(1929,1536,l),
(1929,1102,l),
(1773,1077,l),
(1773,0,l),
(1132,0,l),
(621,749,l)
);
}
);
};
layerId = m001;
shapes = (
{
ref = N;
},
{
pos = (497,128);
ref = tildecomb;
}
);
userData = {
com.fontlab.hintData = {
hhints = (
{
position = 0;
width = 21;
},
{
position = 1102;
width = 434;
},
{
position = 1690;
width = 377;
},
{
position = 1786;
width = 396;
}
);
vhints = (
{
position = 237;
width = 384;
},
{
position = 1389;
width = 384;
}
);
};
};
width = 2006;
}
);
unicode = 209;
},
{
glyphname = O;
lastChange = "2024-04-24 09:57:12 +0000";
layers = (
{
anchors = (
{
name = bottom;
pos = (964,0);
},
{
name = center;
pos = (964,768);
},
{
name = ogonek;
pos = (1735,10);
},
{
name = top;
pos = (964,1536);
},
{
name = topleft;
pos = (20,1536);
},
{
name = topright;
pos = (1908,1536);
}
);
background = {
shapes = (
{
closed = 1;
nodes = (
(1860,234.909,o),
(1511.2,-18,o),
(963,-18,cs),
(408.325,-18,o),
(68,232.078,o),
(68,786,cs),
(68,1320.21,o),
(429.622,1559,o),
(963,1559,cs),
(1496.41,1559,o),
(1860,1320.15,o),
(1860,786,cs)
);
},
{
closed = 1;
nodes = (
(1220,979.607,o),
(1158.99,1102,o),
(963,1102,cs),
(766.971,1102,o),
(708,979.712,o),
(708,786,cs),
(708,591.717,o),
(766.353,465,o),
(963,465,cs),
(1159.62,465,o),
(1220,591.795,o),
(1220,786,cs)
);
}
);
};
layerId = m001;
shapes = (
{
closed = 1;
nodes = (
(1511,-18,o),
(1860,235,o),
(1860,786,cs),
(1860,1320,o),
(1496,1559,o),
(963,1559,cs),
(430,1559,o),
(68,1320,o),
(68,786,cs),
(68,232,o),
(408,-18,o),
(963,-18,cs)
);
},
{
closed = 1;
nodes = (
(766,465,o),
(708,592,o),
(708,786,cs),
(708,980,o),
(767,1102,o),
(963,1102,cs),
(1159,1102,o),
(1220,980,o),
(1220,786,cs),
(1220,592,o),
(1160,465,o),
(963,465,cs)
);
}
);
userData = {
com.fontlab.hintData = {
hhints = (
{
position = -18;
width = 483;
},
{
position = 1102;
width = 457;
}
);
vhints = (
{
position = 68;
width = 640;
},
{
position = 1220;
width = 640;
}
);
};
};
width = 1928;
}
);
unicode = 79;
},
{
glyphname = Oacute;
lastChange = "2024-04-24 09:22:35 +0000";
layers = (
{
background = {
shapes = (
{
closed = 1;
nodes = (
(795,1681,l),
(1134,2321,l),
(1624,2321,l),
(1220,1681,l)
);
},
{
closed = 1;
nodes = (
(1860,234.909,o),
(1511.2,-18,o),
(963,-18,cs),
(408.325,-18,o),
(68,232.078,o),
(68,786,cs),
(68,1320.21,o),
(429.622,1559,o),
(963,1559,cs),
(1496.41,1559,o),
(1860,1320.15,o),
(1860,786,cs)
);
},
{
closed = 1;
nodes = (
(1220,979.607,o),
(1158.99,1102,o),
(963,1102,cs),
(766.971,1102,o),
(708,979.712,o),
(708,786,cs),
(708,591.717,o),
(766.353,465,o),
(963,465,cs),
(1159.62,465,o),
(1220,591.795,o),
(1220,786,cs)
);
}
);
};
layerId = m001;
shapes = (
{
ref = O;
},
{
pos = (707,126);
ref = acutecomb;
}
);
userData = {
com.fontlab.hintData = {
hhints = (
{
position = -18;
width = 483;
},
{
position = 1102;
width = 457;
},
{
position = 1681;
width = 640;
}
);
vhints = (
{
position = 68;
width = 640;
},
{
position = 1220;
width = 640;
}
);
};
};
width = 1928;
}
);
unicode = 211;
},
{
glyphname = Ocircumflex;
lastChange = "2024-04-24 09:23:52 +0000";
layers = (
{
background = {
shapes = (
{
closed = 1;
nodes = (
(751,2320,l),
(1241,2320,l),
(1580,1681,l),
(1155,1681,l),
(996,2064,l),
(836,1681,l),
(411,1681,l)
);
},
{
closed = 1;
nodes = (
(1860,234.909,o),
(1511.2,-18,o),
(963,-18,cs),
(408.325,-18,o),
(68,232.078,o),
(68,786,cs),
(68,1320.21,o),
(429.622,1559,o),
(963,1559,cs),
(1496.41,1559,o),
(1860,1320.15,o),
(1860,786,cs)
);
},
{
closed = 1;
nodes = (
(1220,979.607,o),
(1158.99,1102,o),
(963,1102,cs),
(766.971,1102,o),
(708,979.712,o),
(708,786,cs),
(708,591.717,o),
(766.353,465,o),
(963,465,cs),
(1159.62,465,o),
(1220,591.795,o),
(1220,786,cs)
);
}
);
};
layerId = m001;
shapes = (
{
ref = O;
},
{
pos = (294,123);
ref = circumflexcomb;
}
);
userData = {
com.fontlab.hintData = {
hhints = (
{
position = -18;
width = 483;
},
{
position = 1102;
width = 457;
},
{
position = 1681;
width = 639;
}
);
vhints = (
{
position = 68;
width = 640;
},
{
position = 1220;
width = 640;
}
);
};
};
width = 1928;
}
);
unicode = 212;
},
{
glyphname = Odblgrave;
lastChange = "2024-04-24 09:25:14 +0000";
layers = (
{
background = {
shapes = (
{
closed = 1;
nodes = (
(1860,234.909,o),
(1511.2,-18,o),
(963,-18,cs),
(408.325,-18,o),
(68,232.078,o),
(68,786,cs),
(68,1320.21,o),
(429.622,1559,o),
(963,1559,cs),
(1496.41,1559,o),
(1860,1320.15,o),
(1860,786,cs)
);
},
{
closed = 1;
nodes = (
(1220,979.607,o),
(1158.99,1102,o),
(963,1102,cs),
(766.971,1102,o),
(708,979.712,o),
(708,786,cs),
(708,591.717,o),
(766.353,465,o),
(963,465,cs),
(1159.62,465,o),
(1220,591.795,o),
(1220,786,cs)
);
}
);
};
layerId = m001;
shapes = (
{
ref = O;
},
{
pos = (211,123);
ref = dblgravecomb;
}
);
userData = {
com.fontlab.hintData = {
hhints = (
{
position = -18;
width = 483;
},
{
position = 1102;
width = 457;
},
{
position = 1681;
width = 640;
}
);
vhints = (
{
position = 68;
width = 640;
},
{
position = 1220;
width = 640;
}
);
};
};
width = 1928;
}
);
unicode = 524;
},
{
glyphname = Odieresis;
lastChange = "2024-04-24 09:25:30 +0000";
layers = (
{
background = {
shapes = (
{
closed = 1;
nodes = (
(1542,2065,l),
(1542,1681,l),
(1117,1681,l),
(1117,2065,l)
);
},
{
closed = 1;
nodes = (
(798,1681,l),
(373,1681,l),
(373,2065,l),
(798,2065,l)
);
},
{
closed = 1;
nodes = (
(1860,234.909,o),
(1511.2,-18,o),
(963,-18,cs),
(408.325,-18,o),
(68,232.078,o),
(68,786,cs),
(68,1320.21,o),
(429.622,1559,o),
(963,1559,cs),
(1496.41,1559,o),
(1860,1320.15,o),
(1860,786,cs)
);
},
{
closed = 1;
nodes = (
(1220,979.607,o),
(1158.99,1102,o),
(963,1102,cs),
(766.971,1102,o),
(708,979.712,o),
(708,786,cs),
(708,591.717,o),
(766.353,465,o),
(963,465,cs),
(1159.62,465,o),
(1220,591.795,o),
(1220,786,cs)
);
}
);
};
layerId = m001;
shapes = (
{
ref = O;
},
{
pos = (290,123);
ref = dieresiscomb;
}
);
userData = {
com.fontlab.hintData = {
hhints = (
{
position = -18;
width = 483;
},
{
position = 1102;
width = 457;
},
{
position = 1681;
width = 384;
}
);
vhints = (
{
position = 68;
width = 640;
},
{
position = 373;
width = 425;
},
{
position = 1117;
width = 425;
},
{
position = 1220;
width = 640;
}
);
};
};
width = 1928;
}
);
unicode = 214;
},
{
glyphname = Ograve;
lastChange = "2024-04-24 09:25:50 +0000";
layers = (
{
background = {
shapes = (
{
closed = 1;
nodes = (
(889,2321,l),
(1228,1681,l),
(803,1681,l),
(399,2321,l)
);
},
{
closed = 1;
nodes = (
(1860,234.909,o),
(1511.2,-18,o),
(963,-18,cs),
(408.325,-18,o),
(68,232.078,o),
(68,786,cs),
(68,1320.21,o),
(429.622,1559,o),
(963,1559,cs),
(1496.41,1559,o),
(1860,1320.15,o),
(1860,786,cs)
);
},
{
closed = 1;
nodes = (
(1220,979.607,o),
(1158.99,1102,o),
(963,1102,cs),
(766.971,1102,o),
(708,979.712,o),
(708,786,cs),
(708,591.717,o),
(766.353,465,o),
(963,465,cs),
(1159.62,465,o),
(1220,591.795,o),
(1220,786,cs)
);
}
);
};
layerId = m001;
shapes = (
{
ref = O;
},
{
pos = (316,123);
ref = gravecomb;
}
);
userData = {
com.fontlab.hintData = {
hhints = (
{
position = -18;
width = 483;
},
{
position = 1102;
width = 457;
},
{
position = 1681;
width = 640;
}
);
vhints = (
{
position = 68;
width = 640;
},
{
position = 1220;
width = 640;
}
);
};
};
width = 1928;
}
);
unicode = 210;
},
{
glyphname = Ohungarumlaut;
lastChange = "2024-04-24 09:22:02 +0000";
layers = (
{
background = {
shapes = (
{
closed = 1;
nodes = (
(996,1681,l),
(1401,2321,l),
(1891,2321,l),
(1431,1681,l)
);
},
{
closed = 1;
nodes = (
(358,1681,l),
(607,2321,l),
(1097,2321,l),
(763,1681,l)
);
},
{
closed = 1;
nodes = (
(1860,234.909,o),
(1511.2,-18,o),
(963,-18,cs),
(408.325,-18,o),
(68,232.078,o),
(68,786,cs),
(68,1320.21,o),
(429.622,1559,o),
(963,1559,cs),
(1496.41,1559,o),
(1860,1320.15,o),
(1860,786,cs)
);
},
{
closed = 1;
nodes = (
(1220,979.607,o),
(1158.99,1102,o),
(963,1102,cs),
(766.971,1102,o),
(708,979.712,o),
(708,786,cs),
(708,591.717,o),
(766.353,465,o),
(963,465,cs),
(1159.62,465,o),
(1220,591.795,o),
(1220,786,cs)
);
}
);
};
layerId = m001;
shapes = (
{
ref = O;
},
{
pos = (111,128);
ref = hungarumlautcomb;
}
);
userData = {
com.fontlab.hintData = {
hhints = (
{
position = -18;
width = 483;
},
{
position = 1102;
width = 457;
},
{
position = 1681;
width = 640;
}
);
vhints = (
{
position = 68;
width = 640;
},
{
position = 1220;
width = 640;
}
);
};
};
width = 1928;
}
);
unicode = 336;
},
{
glyphname = Oinvertedbreve;
lastChange = "2024-04-24 09:29:25 +0000";
layers = (
{
background = {
shapes = (
{
closed = 1;
nodes = (
(1860,234.909,o),
(1511.2,-18,o),
(963,-18,cs),
(408.325,-18,o),
(68,232.078,o),
(68,786,cs),
(68,1320.21,o),
(429.622,1559,o),
(963,1559,cs),
(1496.41,1559,o),
(1860,1320.15,o),
(1860,786,cs)
);
},
{
closed = 1;
nodes = (
(1220,979.607,o),
(1158.99,1102,o),
(963,1102,cs),
(766.971,1102,o),
(708,979.712,o),
(708,786,cs),
(708,591.717,o),
(766.353,465,o),
(963,465,cs),
(1159.62,465,o),
(1220,591.795,o),
(1220,786,cs)
);
}
);
};
layerId = m001;
shapes = (
{
ref = O;
},
{
pos = (504,123);
ref = breveinvertedcomb;
}
);
userData = {
com.fontlab.hintData = {
hhints = (
{
position = -18;
width = 483;
},
{
position = 1102;
width = 457;
},
{
position = 1681;
width = 21;
},
{
position = 1833;
width = 293;
}
);
vhints = (
{
position = 68;
width = 640;
},
{
position = 1220;
width = 640;
}
);
};
};
width = 1928;
}
);
unicode = 526;
},
{
glyphname = Oslash;
lastChange = "2024-04-24 09:57:12 +0000";
layers = (
{
background = {
shapes = (
{
closed = 1;
nodes = (
(1827,231.249,o),
(1480.06,-40,o),
(930,-40,cs),
(840,-40,o),
(754.667,-32,o),
(674,-16,c),
(583,-208,l),
(391,-128,l),
(474,44,l),
(203.318,161.569,o),
(35,397.319,o),
(35,786,cs),
(35,1329.1,o),
(388.275,1576,o),
(930,1576,cs),
(1028.98,1576,o),
(1118.21,1568.08,o),
(1201,1551,c),
(1287,1728,l),
(1479,1664,l),
(1396,1492,l),
(1658.27,1381.14,o),
(1827,1159.09,o),
(1827,786,cs)
);
},
{
closed = 1;
nodes = (
(967.531,1100.81,o),
(948.843,1102,o),
(930,1102,cs),
(733.971,1102,o),
(675,979.712,o),
(675,786,cs),
(675,693.843,o),
(685.686,615.971,o),
(723,560,c),
(983,1098,l)
);
},
{
closed = 1;
nodes = (
(1126.62,465,o),
(1187,591.795,o),
(1187,786,cs),
(1187,862.379,o),
(1177.57,929.765,o),
(1153,983,c),
(905,466,l),
(909,465.333,o),
(913,465,o),
(917,465,cs),
(930,465,ls)
);
}
);
};
layerId = m001;
shapes = (
{
closed = 1;
nodes = (
(674,-16,l),
(755,-32,o),
(840,-40,o),
(930,-40,cs),
(1480,-40,o),
(1827,231,o),
(1827,786,cs),
(1827,1159,o),
(1658,1381,o),
(1396,1492,c),
(1479,1664,l),
(1287,1728,l),
(1201,1551,l),
(1118,1568,o),
(1029,1576,o),
(930,1576,cs),
(388,1576,o),
(35,1329,o),
(35,786,cs),
(35,397,o),
(203,162,o),
(474,44,c),
(391,-128,l),
(583,-208,l)
);
},
{
closed = 1;
nodes = (
(686,616,o),
(675,694,o),
(675,786,cs),
(675,980,o),
(734,1102,o),
(930,1102,cs),
(949,1102,o),
(968,1101,o),
(983,1098,c),
(723,560,l)
);
},
{
closed = 1;
nodes = (
(913,465,o),
(909,465,o),
(905,466,c),
(1153,983,l),
(1178,930,o),
(1187,862,o),
(1187,786,cs),
(1187,592,o),
(1127,465,o),
(930,465,cs),
(917,465,ls)
);
}
);
userData = {
com.fontlab.hintData = {
hhints = (
{
position = -40;
width = 505;
},
{
position = 1102;
width = 474;
}
);
vhints = (
{
position = 35;
width = 640;
},
{
position = 1187;
width = 640;
}
);
};
};
width = 1859;
}
);
unicode = 216;
},
{
glyphname = Otilde;
lastChange = "2024-04-24 09:22:02 +0000";
layers = (
{
background = {
shapes = (
{
closed = 1;
nodes = (
(874,2182,o),
(960,2067,o),
(1111,2067,cs),
(1235,2067,o),
(1312,2117,o),
(1390,2188,c),
(1330,1771,l),
(1295,1721,o),
(1244,1690,o),
(1169,1690,cs),
(1021,1690,o),
(926,1786,o),
(777,1786,cs),
(655,1786,o),
(574,1745,o),
(494,1681,c),
(556,2107,l),
(598,2154,o),
(647,2182,o),
(726,2182,cs)
);
},
{
closed = 1;
nodes = (
(1860,234.909,o),
(1511.2,-18,o),
(963,-18,cs),
(408.325,-18,o),
(68,232.078,o),
(68,786,cs),
(68,1320.21,o),
(429.622,1559,o),
(963,1559,cs),
(1496.41,1559,o),
(1860,1320.15,o),
(1860,786,cs)
);
},
{
closed = 1;
nodes = (
(1220,979.607,o),
(1158.99,1102,o),
(963,1102,cs),
(766.971,1102,o),
(708,979.712,o),
(708,786,cs),
(708,591.717,o),
(766.353,465,o),
(963,465,cs),
(1159.62,465,o),
(1220,591.795,o),
(1220,786,cs)
);
}
);
};
layerId = m001;
shapes = (
{
ref = O;
},
{
pos = (458,128);
ref = tildecomb;
}
);
userData = {
com.fontlab.hintData = {
hhints = (
{
position = -18;
width = 483;
},
{
position = 1102;
width = 457;
},
{
position = 1690;
width = 377;
},
{
position = 1786;
width = 396;
}
);
vhints = (
{
position = 68;
width = 640;
},
{
position = 1220;
width = 640;
}
);
};
};
width = 1928;
}
);
unicode = 213;
},
{
glyphname = OE;
lastChange = "2024-04-24 09:57:12 +0000";
layers = (
{
background = {
shapes = (
{
closed = 1;
nodes = (
(2058.07,459,o),
(2252.7,481.679,o),
(2416,540,c),
(2416,0,l),
(1257,0,l),
(1158.33,-26.667,o),
(1049.33,-40,o),
(930,-40,cs),
(377.599,-40,o),
(35,231.517,o),
(35,786,cs),
(35,1329.1,o),
(388.275,1576,o),
(930,1576,cs),
(1052,1576,o),
(1164,1562.67,o),
(1266,1536,c),
(2422,1536,l),
(2422,984,l),
(2263.73,1047.82,o),
(2060.64,1075,o),
(1827,1075,c),
(1827,879,l),
(2121,944,l),
(2121,590,l),
(1827,655,l),
(1827,459,l)
);
},
{
closed = 1;
nodes = (
(1117.18,1088.75,o),
(1033.44,1102,o),
(930,1102,cs),
(733.971,1102,o),
(675,979.712,o),
(675,786,cs),
(675,591.717,o),
(733.353,465,o),
(930,465,cs),
(1030.52,465,o),
(1111.52,473.147,o),
(1187,492,c),
(1187,1060,l)
);
}
);
};
layerId = m001;
shapes = (
{
closed = 1;
nodes = (
(1049,-40,o),
(1158,-27,o),
(1257,0,c),
(2416,0,l),
(2416,540,l),
(2253,482,o),
(2058,459,o),
(1827,459,c),
(1827,655,l),
(2121,590,l),
(2121,944,l),
(1827,879,l),
(1827,1075,l),
(2061,1075,o),
(2264,1048,o),
(2422,984,c),
(2422,1536,l),
(1266,1536,l),
(1164,1563,o),
(1052,1576,o),
(930,1576,cs),
(388,1576,o),
(35,1329,o),
(35,786,cs),
(35,232,o),
(378,-40,o),
(930,-40,cs)
);
},
{
closed = 1;
nodes = (
(733,465,o),
(675,592,o),
(675,786,cs),
(675,980,o),
(734,1102,o),
(930,1102,cs),
(1033,1102,o),
(1117,1089,o),
(1187,1060,c),
(1187,492,l),
(1112,473,o),
(1031,465,o),
(930,465,cs)
);
}
);
userData = {
com.fontlab.hintData = {
hhints = (
{
position = -40;
width = 505;
},
{
position = 0;
width = 465;
},
{
position = 1075;
width = 461;
},
{
position = 1102;
width = 474;
}
);
vhints = (
{
position = 35;
width = 640;
},
{
position = 1187;
width = 640;
}
);
};
};
width = 2494;
}
);
unicode = 338;
},
{
glyphname = P;
lastChange = "2024-04-24 09:57:12 +0000";
layers = (
{
anchors = (
{
name = bottom;
pos = (892,0);
},
{
name = top;
pos = (892,1536);
}
);
background = {
shapes = (
{
closed = 1;
nodes = (
(1728,620.352,o),
(1286.16,590,o),
(832,590,c),
(832,459,l),
(990,434,l),
(990,0,l),
(34,0,l),
(34,434,l),
(192,459,l),
(192,1077,l),
(34,1102,l),
(34,1536,l),
(935,1536,ls),
(1364.93,1536,o),
(1728,1487.93,o),
(1728,1065,cs)
);
},
{
closed = 1;
nodes = (
(991.026,865,o),
(1088,892.726,o),
(1088,1053,cs),
(1088,1210.94,o),
(989.254,1237,o),
(832,1237,c),
(832,865,l)
);
}
);
};
layerId = m001;
shapes = (
{
closed = 1;
nodes = (
(990,0,l),
(990,434,l),
(832,459,l),
(832,590,l),
(1286,590,o),
(1728,620,o),
(1728,1065,cs),
(1728,1488,o),
(1365,1536,o),
(935,1536,cs),
(34,1536,l),
(34,1102,l),
(192,1077,l),
(192,459,l),
(34,434,l),
(34,0,l)
);
},
{
closed = 1;
nodes = (
(832,1237,l),
(989,1237,o),
(1088,1211,o),
(1088,1053,cs),
(1088,893,o),
(991,865,o),
(832,865,c)
);
}
);
userData = {
com.fontlab.hintData = {
hhints = (
{
position = 0;
width = 21;
},
{
position = 590;
width = 275;
},
{
position = 1237;
width = 299;
}
);
vhints = (
{
position = 1088;
width = 640;
}
);
};
};
width = 1783;
}
);
unicode = 80;
},
{
glyphname = Thorn;
lastChange = "2024-04-24 09:57:12 +0000";
layers = (
{
background = {
shapes = (
{
closed = 1;
nodes = (
(1726,579.943,o),
(1268.05,543,o),
(830,543,c),
(830,459,l),
(958,434,l),
(958,0,l),
(62,0,l),
(62,434,l),
(190,459,l),
(190,1158,l),
(62,1183,l),
(62,1664,l),
(830,1664,l),
(830,1489,l),
(933,1489,ls),
(1307.53,1489,o),
(1660.73,1465.25,o),
(1714.5,1152,cs),
(1722.17,1107.33,o),
(1726,1058.33,o),
(1726,1005,cs)
);
},
{
closed = 1;
nodes = (
(989.026,818,o),
(1086,845.726,o),
(1086,1006,cs),
(1086,1163.94,o),
(987.254,1190,o),
(830,1190,c),
(830,818,l)
);
}
);
};
layerId = m001;
shapes = (
{
closed = 1;
nodes = (
(958,0,l),
(958,434,l),
(830,459,l),
(830,543,l),
(1268,543,o),
(1726,580,o),
(1726,1005,cs),
(1726,1058,o),
(1722,1107,o),
(1715,1152,cs),
(1661,1465,o),
(1308,1489,o),
(933,1489,cs),
(830,1489,l),
(830,1664,l),
(62,1664,l),
(62,1183,l),
(190,1158,l),
(190,459,l),
(62,434,l),
(62,0,l)
);
},
{
closed = 1;
nodes = (
(830,1190,l),
(987,1190,o),
(1086,1164,o),
(1086,1006,cs),
(1086,846,o),
(989,818,o),
(830,818,c)
);
}
);
userData = {
com.fontlab.hintData = {
hhints = (
{
position = 0;
width = 21;
},
{
position = 543;
width = 275;
},
{
position = 1190;
width = 299;
}
);
vhints = (
{
position = 190;
width = 640;
},
{
position = 1086;
width = 640;
}
);
};
};
width = 1771;
}
);
unicode = 222;
},
{
glyphname = Q;
lastChange = "2024-04-24 09:57:12 +0000";
layers = (
{
anchors = (
{
name = bottom;
pos = (964,0);
},
{
name = top;
pos = (964,1536);
}
);
background = {
shapes = (
{
closed = 1;
nodes = (
(1372.85,-62.809,o),
(1442.57,-143.881,o),
(1496,-208,c),
(1496,-459,l),
(900,-459,l),
(793.493,-341.475,o),
(711.809,-187.378,o),
(663,-7,c),
(298.085,79.353,o),
(68,333.581,o),
(68,786,cs),
(68,1319.85,o),
(430.549,1559,o),
(963,1559,cs),
(1494.74,1559,o),
(1860,1318.69,o),
(1860,786,cs),
(1860,352.37,o),
(1649.77,106.83,o),
(1317,7,c)
);
},
{
closed = 1;
nodes = (
(1220,979.607,o),
(1158.99,1102,o),
(963,1102,cs),
(766.971,1102,o),
(708,979.712,o),
(708,786,cs),
(708,591.717,o),
(766.353,465,o),
(963,465,cs),
(1159.62,465,o),
(1220,591.795,o),
(1220,786,cs)
);
}
);
};
layerId = m001;
shapes = (
{
closed = 1;
nodes = (
(1496,-459,l),
(1496,-208,l),
(1443,-144,o),
(1373,-63,o),
(1317,7,c),
(1650,107,o),
(1860,352,o),
(1860,786,cs),
(1860,1319,o),
(1495,1559,o),
(963,1559,cs),
(431,1559,o),
(68,1320,o),
(68,786,cs),
(68,334,o),
(298,79,o),
(663,-7,c),
(712,-187,o),
(793,-341,o),
(900,-459,c)
);
},
{
closed = 1;
nodes = (
(766,465,o),
(708,592,o),
(708,786,cs),
(708,980,o),
(767,1102,o),
(963,1102,cs),
(1159,1102,o),
(1220,980,o),
(1220,786,cs),
(1220,592,o),
(1160,465,o),
(963,465,cs)
);
}
);
userData = {
com.fontlab.hintData = {
hhints = (
{
position = -459;
width = 924;
},
{
position = 1102;
width = 457;
}
);
vhints = (
{
position = 68;
width = 640;
},
{
position = 1220;
width = 640;
}
);
};
};
width = 1928;
}
);
unicode = 81;
},
{
glyphname = R;
lastChange = "2024-04-24 09:57:12 +0000";
layers = (
{
anchors = (
{
name = bottom;
pos = (904,0);
},
{
name = top;
pos = (904,1536);
}
);
background = {
shapes = (
{
closed = 1;
nodes = (
(1536.39,464.777,o),
(1586.82,421.268,o),
(1783.69,421.268,cs),
(1798.89,421.268,o),
(1814.96,421.527,o),
(1832,422,c),
(1832,0,l),
(1102,0,l),
(1010.3,155.4,o),
(960.3,330.4,o),
(928,549,c),
(843,549,l),
(843,0,l),
(45,0,l),
(45,434,l),
(203,459,l),
(203,1077,l),
(45,1102,l),
(45,1536,l),
(946,1536,ls),
(1386.6,1536,o),
(1738,1492.06,o),
(1738,1055,cs),
(1738,811.518,o),
(1614.22,722.296,o),
(1434,651,c)
);
},
{
closed = 1;
nodes = (
(997.449,844,o),
(1099,863.866,o),
(1099,1019,cs),
(1099,1171.91,o),
(995.548,1196,o),
(843,1196,c),
(843,844,l)
);
}
);
};
layerId = m001;
shapes = (
{
closed = 1;
nodes = (
(843,0,l),
(843,549,l),
(928,549,l),
(960,330,o),
(1010,155,o),
(1102,0,c),
(1832,0,l),
(1832,422,l),
(1815,422,o),
(1799,421,o),
(1784,421,cs),
(1587,421,o),
(1536,465,o),
(1434,651,c),
(1614,722,o),
(1738,812,o),
(1738,1055,cs),
(1738,1492,o),
(1387,1536,o),
(946,1536,cs),
(45,1536,l),
(45,1102,l),
(203,1077,l),
(203,459,l),
(45,434,l),
(45,0,l)
);
},
{
closed = 1;
nodes = (
(843,1196,l),
(996,1196,o),
(1099,1172,o),
(1099,1019,cs),
(1099,864,o),
(997,844,o),
(843,844,c)
);
}
);
userData = {
com.fontlab.hintData = {
hhints = (
{
position = 0;
width = 434;
},
{
position = 1196;
width = 340;
}
);
vhints = (
{
position = 1099;
width = 639;
}
);
};
};
width = 1807;
}
);
unicode = 82;
},
{
glyphname = Racute;
lastChange = "2024-04-24 09:22:35 +0000";
layers = (
{
background = {
shapes = (
{
closed = 1;
nodes = (
(343,1681,l),
(682,2321,l),
(1172,2321,l),
(768,1681,l)
);
},
{
closed = 1;
nodes = (
(1536.39,464.777,o),
(1586.82,421.268,o),
(1783.69,421.268,cs),
(1798.89,421.268,o),
(1814.96,421.527,o),
(1832,422,c),
(1832,0,l),
(1102,0,l),
(1010.3,155.4,o),
(960.3,330.4,o),
(928,549,c),
(843,549,l),
(843,0,l),
(45,0,l),
(45,434,l),
(203,459,l),
(203,1077,l),
(45,1102,l),
(45,1536,l),
(946,1536,ls),
(1386.6,1536,o),
(1738,1492.06,o),
(1738,1055,cs),
(1738,811.518,o),
(1614.22,722.296,o),
(1434,651,c)
);
},
{
closed = 1;
nodes = (
(997.449,844,o),
(1099,863.866,o),
(1099,1019,cs),
(1099,1171.91,o),
(995.548,1196,o),
(843,1196,c),
(843,844,l)
);
}
);
};
layerId = m001;
shapes = (
{
ref = R;
},
{
pos = (647,126);
ref = acutecomb;
}
);
userData = {
com.fontlab.hintData = {
hhints = (
{
position = 0;
width = 434;
},
{
position = 1196;
width = 340;
},
{
position = 1681;
width = 640;
}
);
vhints = (
{
position = 1099;
width = 639;
}
);
};
};
width = 1807;
}
);
unicode = 340;
},
{
glyphname = Rcaron;
lastChange = "2024-04-24 09:30:34 +0000";
layers = (
{
background = {
shapes = (
{
closed = 1;
nodes = (
(541,1937,l),
(700,2320,l),
(1125,2320,l),
(786,1681,l),
(296,1681,l),
(-44,2320,l),
(381,2320,l)
);
},
{
closed = 1;
nodes = (
(1536.39,464.777,o),
(1586.82,421.268,o),
(1783.69,421.268,cs),
(1798.89,421.268,o),
(1814.96,421.527,o),
(1832,422,c),
(1832,0,l),
(1102,0,l),
(1010.3,155.4,o),
(960.3,330.4,o),
(928,549,c),
(843,549,l),
(843,0,l),
(45,0,l),
(45,434,l),
(203,459,l),
(203,1077,l),
(45,1102,l),
(45,1536,l),
(946,1536,ls),
(1386.6,1536,o),
(1738,1492.06,o),
(1738,1055,cs),
(1738,811.518,o),
(1614.22,722.296,o),
(1434,651,c)
);
},
{
closed = 1;
nodes = (
(997.449,844,o),
(1099,863.866,o),
(1099,1019,cs),
(1099,1171.91,o),
(995.548,1196,o),
(843,1196,c),
(843,844,l)
);
}
);
};
layerId = m001;
shapes = (
{
ref = R;
},
{
pos = (236,123);
ref = caroncomb;
}
);
userData = {
com.fontlab.hintData = {
hhints = (
{
position = 0;
width = 434;
},
{
position = 1196;
width = 340;
},
{
position = 1681;
width = 639;
}
);
vhints = (
{
position = 1099;
width = 639;
}
);
};
};
width = 1807;
}
);
unicode = 344;
},
{
glyphname = Rdblgrave;
lastChange = "2024-04-24 09:25:14 +0000";
layers = (
{
background = {
shapes = (
{
closed = 1;
nodes = (
(1536.39,464.777,o),
(1586.82,421.268,o),
(1783.69,421.268,cs),
(1798.89,421.268,o),
(1814.96,421.527,o),
(1832,422,c),
(1832,0,l),
(1102,0,l),
(1010.3,155.4,o),
(960.3,330.4,o),
(928,549,c),
(843,549,l),
(843,0,l),
(45,0,l),
(45,434,l),
(203,459,l),
(203,1077,l),
(45,1102,l),
(45,1536,l),
(946,1536,ls),
(1386.6,1536,o),
(1738,1492.06,o),
(1738,1055,cs),
(1738,811.518,o),
(1614.22,722.296,o),
(1434,651,c)
);
},
{
closed = 1;
nodes = (
(997.449,844,o),
(1099,863.866,o),
(1099,1019,cs),
(1099,1171.91,o),
(995.548,1196,o),
(843,1196,c),
(843,844,l)
);
}
);
};
layerId = m001;
shapes = (
{
ref = R;
},
{
pos = (151,123);
ref = dblgravecomb;
}
);
userData = {
com.fontlab.hintData = {
hhints = (
{
position = 0;
width = 434;
},
{
position = 1196;
width = 340;
},
{
position = 1681;
width = 640;
}
);
vhints = (
{
position = 1099;
width = 639;
}
);
};
};
width = 1807;
}
);
unicode = 528;
},
{
glyphname = Rinvertedbreve;
lastChange = "2024-04-24 09:29:25 +0000";
layers = (
{
background = {
shapes = (
{
closed = 1;
nodes = (
(1536.39,464.777,o),
(1586.82,421.268,o),
(1783.69,421.268,cs),
(1798.89,421.268,o),
(1814.96,421.527,o),
(1832,422,c),
(1832,0,l),
(1102,0,l),
(1010.3,155.4,o),
(960.3,330.4,o),
(928,549,c),
(843,549,l),
(843,0,l),
(45,0,l),
(45,434,l),
(203,459,l),
(203,1077,l),
(45,1102,l),
(45,1536,l),
(946,1536,ls),
(1386.6,1536,o),
(1738,1492.06,o),
(1738,1055,cs),
(1738,811.518,o),
(1614.22,722.296,o),
(1434,651,c)
);
},
{
closed = 1;
nodes = (
(997.449,844,o),
(1099,863.866,o),
(1099,1019,cs),
(1099,1171.91,o),
(995.548,1196,o),
(843,1196,c),
(843,844,l)
);
}
);
};
layerId = m001;
shapes = (
{
ref = R;
},
{
pos = (444,123);
ref = breveinvertedcomb;
}
);
userData = {
com.fontlab.hintData = {
hhints = (
{
position = 0;
width = 434;
},
{
position = 1196;
width = 340;
},
{
position = 1681;
width = 21;
},
{
position = 1833;
width = 293;
}
);
vhints = (
{
position = 1099;
width = 639;
}
);
};
};
width = 1807;
}
);
unicode = 530;
},
{
glyphname = S;
lastChange = "2024-04-24 09:57:08 +0000";
layers = (
{
anchors = (
{
name = bottom;
pos = (722,0);
},
{
name = top;
pos = (722,1536);
}
);
background = {
shapes = (
{
closed = 1;
nodes = (
(1092.2,1009.97,o),
(1391,899.744,o),
(1391,482,cs),
(1391,100.691,o),
(1088.47,-18,o),
(702,-18,cs),
(454.211,-18,o),
(243.93,7.758,o),
(70,99,c),
(70,494,l),
(371,494,l),
(426.657,416.937,o),
(506.99,354,o),
(623,354,cs),
(715.789,354,o),
(751,404.267,o),
(751,502,c),
(391.209,535.469,o),
(57,640.224,o),
(57,1033,cs),
(57,1426.02,o),
(342.196,1552,o),
(736,1552,cs),
(995.769,1552,o),
(1187.99,1510.61,o),
(1358,1433,c),
(1358,1043,l),
(1057,1043,l),
(1003.14,1119.04,o),
(927.368,1183,o),
(815,1183,cs),
(721.995,1183,o),
(683,1121.97,o),
(683,1024,c)
);
}
);
};
layerId = m001;
shapes = (
{
closed = 1;
nodes = (
(1088,-18,o),
(1391,101,o),
(1391,482,cs),
(1391,900,o),
(1092,1010,o),
(683,1024,c),
(683,1122,o),
(722,1183,o),
(815,1183,cs),
(927,1183,o),
(1003,1119,o),
(1057,1043,c),
(1358,1043,l),
(1358,1433,l),
(1188,1511,o),
(996,1552,o),
(736,1552,cs),
(342,1552,o),
(57,1426,o),
(57,1033,cs),
(57,640,o),
(391,535,o),
(751,502,c),
(751,404,o),
(716,354,o),
(623,354,cs),
(507,354,o),
(427,417,o),
(371,494,c),
(70,494,l),
(70,99,l),
(244,8,o),
(454,-18,o),
(702,-18,cs)
);
}
);
userData = {
com.fontlab.hintData = {
hhints = (
{
position = -18;
width = 372;
},
{
position = 1183;
width = 369;
}
);
};
};
width = 1444;
}
);
unicode = 83;
},
{
glyphname = Sacute;
lastChange = "2024-04-24 09:22:35 +0000";
layers = (
{
background = {
shapes = (
{
closed = 1;
nodes = (
(568,1681,l),
(907,2321,l),
(1397,2321,l),
(993,1681,l)
);
},
{
closed = 1;
nodes = (
(1092.2,1009.97,o),
(1391,899.744,o),
(1391,482,cs),
(1391,100.691,o),
(1088.47,-18,o),
(702,-18,cs),
(454.211,-18,o),
(243.93,7.758,o),
(70,99,c),
(70,494,l),
(371,494,l),
(426.657,416.937,o),
(506.99,354,o),
(623,354,cs),
(715.789,354,o),
(751,404.267,o),
(751,502,c),
(391.209,535.469,o),
(57,640.224,o),
(57,1033,cs),
(57,1426.02,o),
(342.196,1552,o),
(736,1552,cs),
(995.769,1552,o),
(1187.99,1510.61,o),
(1358,1433,c),
(1358,1043,l),
(1057,1043,l),
(1003.14,1119.04,o),
(927.368,1183,o),
(815,1183,cs),
(721.995,1183,o),
(683,1121.97,o),
(683,1024,c)
);
}
);
};
layerId = m001;
shapes = (
{
ref = S;
},
{
pos = (465,126);
ref = acutecomb;
}
);
userData = {
com.fontlab.hintData = {
hhints = (
{
position = -18;
width = 372;
},
{
position = 1183;
width = 369;
},
{
position = 1681;
width = 640;
}
);
};
};
width = 1444;
}
);
unicode = 346;
},
{
glyphname = Scaron;
lastChange = "2024-04-24 09:30:34 +0000";
layers = (
{
background = {
shapes = (
{
closed = 1;
nodes = (
(767,1937,l),
(926,2320,l),
(1351,2320,l),
(1012,1681,l),
(522,1681,l),
(182,2320,l),
(607,2320,l)
);
},
{
closed = 1;
nodes = (
(1092.2,1009.97,o),
(1391,899.744,o),
(1391,482,cs),
(1391,100.691,o),
(1088.47,-18,o),
(702,-18,cs),
(454.211,-18,o),
(243.93,7.758,o),
(70,99,c),
(70,494,l),
(371,494,l),
(426.657,416.937,o),
(506.99,354,o),
(623,354,cs),
(715.789,354,o),
(751,404.267,o),
(751,502,c),
(391.209,535.469,o),
(57,640.224,o),
(57,1033,cs),
(57,1426.02,o),
(342.196,1552,o),
(736,1552,cs),
(995.769,1552,o),
(1187.99,1510.61,o),
(1358,1433,c),
(1358,1043,l),
(1057,1043,l),
(1003.14,1119.04,o),
(927.368,1183,o),
(815,1183,cs),
(721.995,1183,o),
(683,1121.97,o),
(683,1024,c)
);
}
);
};
layerId = m001;
shapes = (
{
ref = S;
},
{
pos = (54,123);
ref = caroncomb;
}
);
userData = {
com.fontlab.hintData = {
hhints = (
{
position = -18;
width = 372;
},
{
position = 1183;
width = 369;
},
{
position = 1681;
width = 639;
}
);
};
};
width = 1444;
}
);
unicode = 352;
},
{
glyphname = Scedilla;
lastChange = "2024-04-24 09:31:53 +0000";
layers = (
{
background = {
shapes = (
{
closed = 1;
nodes = (
(863,-689,o),
(910,-649,o),
(910,-558,cs),
(910,-484,o),
(863,-427,o),
(791,-427,cs),
(746,-427,o),
(714,-453,o),
(693,-484,c),
(571,-484,l),
(571,12,l),
(792,12,l),
(792,-245,l),
(803,-245,ls),
(810,-245,o),
(816,-244,o),
(823,-244,c),
(812,-234,o),
(807,-227,o),
(807,-223,cs),
(807,-220,o),
(809,-218,o),
(814,-218,cs),
(866,-218,o),
(1170,-381,o),
(1170,-558,cs),
(1170,-773,o),
(1033,-885,o),
(819,-885,cs),
(728,-885,o),
(645,-866,o),
(571,-841,c),
(571,-651,l),
(636,-671,o),
(704,-689,o),
(774,-689,cs)
);
},
{
closed = 1;
nodes = (
(1092.2,1009.97,o),
(1391,899.744,o),
(1391,482,cs),
(1391,100.691,o),
(1088.47,-18,o),
(702,-18,cs),
(454.211,-18,o),
(243.93,7.758,o),
(70,99,c),
(70,494,l),
(371,494,l),
(426.657,416.937,o),
(506.99,354,o),
(623,354,cs),
(715.789,354,o),
(751,404.267,o),
(751,502,c),
(391.209,535.469,o),
(57,640.224,o),
(57,1033,cs),
(57,1426.02,o),
(342.196,1552,o),
(736,1552,cs),
(995.769,1552,o),
(1187.99,1510.61,o),
(1358,1433,c),
(1358,1043,l),
(1057,1043,l),
(1003.14,1119.04,o),
(927.368,1183,o),
(815,1183,cs),
(721.995,1183,o),
(683,1121.97,o),
(683,1024,c)
);
}
);
};
layerId = m001;
shapes = (
{
ref = S;
},
{
pos = (529,-117);
ref = cedillacomb;
}
);
userData = {
com.fontlab.hintData = {
hhints = (
{
position = -885;
width = 196;
},
{
position = -18;
width = 372;
},
{
position = 1183;
width = 369;
}
);
vhints = (
{
position = 571;
width = 221;
},
{
position = 910;
width = 260;
}
);
};
};
width = 1444;
}
);
unicode = 350;
},
{
glyphname = Scommaaccent;
lastChange = "2024-04-24 09:22:02 +0000";
layers = (
{
background = {
shapes = (
{
closed = 1;
nodes = (
(1092.2,1009.97,o),
(1391,899.744,o),
(1391,482,cs),
(1391,100.691,o),
(1088.47,-18,o),
(702,-18,cs),
(454.211,-18,o),
(243.93,7.758,o),
(70,99,c),
(70,494,l),
(371,494,l),
(426.657,416.937,o),
(506.99,354,o),
(623,354,cs),
(715.789,354,o),
(751,404.267,o),
(751,502,c),
(391.209,535.469,o),
(57,640.224,o),
(57,1033,cs),
(57,1426.02,o),
(342.196,1552,o),
(736,1552,cs),
(995.769,1552,o),
(1187.99,1510.61,o),
(1358,1433,c),
(1358,1043,l),
(1057,1043,l),
(1003.14,1119.04,o),
(927.368,1183,o),
(815,1183,cs),
(721.995,1183,o),
(683,1121.97,o),
(683,1024,c)
);
}
);
};
layerId = m001;
shapes = (
{
ref = S;
},
{
pos = (342,0);
ref = commaaccentcomb;
}
);
userData = {
com.fontlab.hintData = {
hhints = (
{
position = -18;
width = 372;
},
{
position = 1183;
width = 369;
}
);
vhints = (
{
position = 370;
width = 640;
}
);
};
};
width = 1444;
}
);
unicode = 536;
},
{
glyphname = T;
lastChange = "2024-04-24 09:57:08 +0000";
layers = (
{
anchors = (
{
name = bottom;
pos = (782,0);
},
{
name = center;
pos = (782,768);
},
{
name = top;
pos = (782,1536);
}
);
background = {
shapes = (
{
closed = 1;
nodes = (
(356.789,1152,o),
(292.559,1084.25,o),
(246,1024,c),
(78,1024,l),
(78,1536,l),
(1486,1536,l),
(1486,1024,l),
(1318,1024,l),
(1271.57,1084.08,o),
(1207.04,1152,o),
(1102,1152,c),
(1102,459,l),
(1260,434,l),
(1260,0,l),
(304,0,l),
(304,434,l),
(462,459,l),
(462,1152,l)
);
}
);
};
layerId = m001;
shapes = (
{
closed = 1;
nodes = (
(1260,0,l),
(1260,434,l),
(1102,459,l),
(1102,1152,l),
(1207,1152,o),
(1272,1084,o),
(1318,1024,c),
(1486,1024,l),
(1486,1536,l),
(78,1536,l),
(78,1024,l),
(246,1024,l),
(293,1084,o),
(357,1152,o),
(462,1152,c),
(462,459,l),
(304,434,l),
(304,0,l)
);
}
);
userData = {
com.fontlab.hintData = {
hhints = (
{
position = 0;
width = 21;
},
{
position = 1024;
width = 512;
},
{
position = 1152;
width = 384;
}
);
vhints = (
{
position = 462;
width = 640;
}
);
};
};
width = 1564;
}
);
unicode = 84;
},
{
glyphname = Tcaron;
lastChange = "2024-04-24 09:30:34 +0000";
layers = (
{
background = {
shapes = (
{
closed = 1;
nodes = (
(812,1937,l),
(971,2320,l),
(1396,2320,l),
(1057,1681,l),
(567,1681,l),
(227,2320,l),
(652,2320,l)
);
},
{
closed = 1;
nodes = (
(356.789,1152,o),
(292.559,1084.25,o),
(246,1024,c),
(78,1024,l),
(78,1536,l),
(1486,1536,l),
(1486,1024,l),
(1318,1024,l),
(1271.57,1084.08,o),
(1207.04,1152,o),
(1102,1152,c),
(1102,459,l),
(1260,434,l),
(1260,0,l),
(304,0,l),
(304,434,l),
(462,459,l),
(462,1152,l)
);
}
);
};
layerId = m001;
shapes = (
{
ref = T;
},
{
pos = (114,123);
ref = caroncomb;
}
);
userData = {
com.fontlab.hintData = {
hhints = (
{
position = 0;
width = 21;
},
{
position = 1024;
width = 512;
},
{
position = 1152;
width = 384;
},
{
position = 1681;
width = 639;
}
);
vhints = (
{
position = 462;
width = 640;
}
);
};
};
width = 1564;
}
);
unicode = 356;
},
{
glyphname = Tcedilla;
lastChange = "2024-04-24 09:31:53 +0000";
layers = (
{
background = {
shapes = (
{
closed = 1;
nodes = (
(942,-671,o),
(989,-631,o),
(989,-540,cs),
(989,-466,o),
(942,-409,o),
(870,-409,cs),
(825,-409,o),
(793,-435,o),
(772,-466,c),
(650,-466,l),
(650,30,l),
(871,30,l),
(871,-227,l),
(882,-227,ls),
(889,-227,o),
(895,-226,o),
(902,-226,c),
(891,-216,o),
(886,-209,o),
(886,-205,cs),
(886,-202,o),
(888,-200,o),
(893,-200,cs),
(945,-200,o),
(1249,-363,o),
(1249,-540,cs),
(1249,-755,o),
(1112,-867,o),
(898,-867,cs),
(807,-867,o),
(724,-848,o),
(650,-823,c),
(650,-633,l),
(715,-653,o),
(783,-671,o),
(853,-671,cs)
);
},
{
closed = 1;
nodes = (
(356.789,1152,o),
(292.559,1084.25,o),
(246,1024,c),
(78,1024,l),
(78,1536,l),
(1486,1536,l),
(1486,1024,l),
(1318,1024,l),
(1271.57,1084.08,o),
(1207.04,1152,o),
(1102,1152,c),
(1102,459,l),
(1260,434,l),
(1260,0,l),
(304,0,l),
(304,434,l),
(462,459,l),
(462,1152,l)
);
}
);
};
layerId = m001;
shapes = (
{
ref = T;
},
{
pos = (589,-117);
ref = cedillacomb;
}
);
userData = {
com.fontlab.hintData = {
hhints = (
{
position = -867;
width = 196;
},
{
position = 0;
width = 21;
},
{
position = 1024;
width = 512;
},
{
position = 1152;
width = 384;
}
);
vhints = (
{
position = 462;
width = 640;
},
{
position = 650;
width = 221;
},
{
position = 989;
width = 260;
}
);
};
};
width = 1564;
}
);
unicode = 354;
},
{
glyphname = Tcommaaccent;
lastChange = "2024-04-24 09:22:02 +0000";
layers = (
{
background = {
shapes = (
{
closed = 1;
nodes = (
(356.789,1152,o),
(292.559,1084.25,o),
(246,1024,c),
(78,1024,l),
(78,1536,l),
(1486,1536,l),
(1486,1024,l),
(1318,1024,l),
(1271.57,1084.08,o),
(1207.04,1152,o),
(1102,1152,c),
(1102,459,l),
(1260,434,l),
(1260,0,l),
(304,0,l),
(304,434,l),
(462,459,l),
(462,1152,l)
);
}
);
};
layerId = m001;
shapes = (
{
ref = T;
},
{
pos = (402,0);
ref = commaaccentcomb;
}
);
userData = {
com.fontlab.hintData = {
hhints = (
{
position = 0;
width = 21;
},
{
position = 1024;
width = 512;
},
{
position = 1152;
width = 384;
}
);
vhints = (
{
position = 450;
width = 640;
},
{
position = 462;
width = 640;
}
);
};
};
width = 1564;
}
);
unicode = 538;
},
{
glyphname = U;
lastChange = "2024-04-24 09:57:08 +0000";
layers = (
{
anchors = (
{
name = bottom;
pos = (988,0);
},
{
name = ogonek;
pos = (1328,10);
},
{
name = top;
pos = (1018,1536);
},
{
name = topright;
pos = (1955,1536);
}
);
background = {
shapes = (
{
closed = 1;
nodes = (
(1132,1102,l),
(1132,1536,l),
(1930,1536,l),
(1930,1102,l),
(1772,1077,l),
(1772,734,ls),
(1772,238.688,o),
(1527.96,-18,o),
(1041,-18,cs),
(504.968,-18,o),
(203,198.434,o),
(203,734,cs),
(203,1077,l),
(45,1102,l),
(45,1536,l),
(936,1536,l),
(936,1102,l),
(778,1077,l),
(778,754,ls),
(778,559.717,o),
(837.353,465,o),
(1034,465,cs),
(1230.62,465,o),
(1290,559.795,o),
(1290,754,cs),
(1290,1077,l)
);
}
);
};
layerId = m001;
shapes = (
{
closed = 1;
nodes = (
(1528,-18,o),
(1772,239,o),
(1772,734,cs),
(1772,1077,l),
(1930,1102,l),
(1930,1536,l),
(1132,1536,l),
(1132,1102,l),
(1290,1077,l),
(1290,754,ls),
(1290,560,o),
(1231,465,o),
(1034,465,cs),
(837,465,o),
(778,560,o),
(778,754,cs),
(778,1077,l),
(936,1102,l),
(936,1536,l),
(45,1536,l),
(45,1102,l),
(203,1077,l),
(203,734,ls),
(203,198,o),
(505,-18,o),
(1041,-18,cs)
);
}
);
userData = {
com.fontlab.hintData = {
hhints = (
{
position = -18;
width = 483;
},
{
position = 1102;
width = 434;
}
);
vhints = (
{
position = 203;
width = 575;
},
{
position = 1290;
width = 482;
}
);
};
};
width = 1975;
}
);
unicode = 85;
},
{
glyphname = Uacute;
lastChange = "2024-04-24 09:24:13 +0000";
layers = (
{
background = {
shapes = (
{
closed = 1;
nodes = (
(820,1681,l),
(1159,2321,l),
(1649,2321,l),
(1245,1681,l)
);
},
{
closed = 1;
nodes = (
(1132,1102,l),
(1132,1536,l),
(1930,1536,l),
(1930,1102,l),
(1772,1077,l),
(1772,734,ls),
(1772,238.688,o),
(1527.96,-18,o),
(1041,-18,cs),
(504.968,-18,o),
(203,198.434,o),
(203,734,cs),
(203,1077,l),
(45,1102,l),
(45,1536,l),
(936,1536,l),
(936,1102,l),
(778,1077,l),
(778,754,ls),
(778,559.717,o),
(837.353,465,o),
(1034,465,cs),
(1230.62,465,o),
(1290,559.795,o),
(1290,754,cs),
(1290,1077,l)
);
}
);
};
layerId = m001;
shapes = (
{
ref = U;
},
{
pos = (761,126);
ref = acutecomb;
}
);
userData = {
com.fontlab.hintData = {
hhints = (
{
position = -18;
width = 483;
},
{
position = 1102;
width = 434;
},
{
position = 1681;
width = 640;
}
);
vhints = (
{
position = 203;
width = 575;
},
{
position = 1290;
width = 482;
}
);
};
};
width = 1975;
}
);
unicode = 218;
},
{
glyphname = Ucircumflex;
lastChange = "2024-04-24 09:24:13 +0000";
layers = (
{
background = {
shapes = (
{
closed = 1;
nodes = (
(775,2320,l),
(1265,2320,l),
(1604,1681,l),
(1179,1681,l),
(1020,2064,l),
(860,1681,l),
(435,1681,l)
);
},
{
closed = 1;
nodes = (
(1132,1102,l),
(1132,1536,l),
(1930,1536,l),
(1930,1102,l),
(1772,1077,l),
(1772,734,ls),
(1772,238.688,o),
(1527.96,-18,o),
(1041,-18,cs),
(504.968,-18,o),
(203,198.434,o),
(203,734,cs),
(203,1077,l),
(45,1102,l),
(45,1536,l),
(936,1536,l),
(936,1102,l),
(778,1077,l),
(778,754,ls),
(778,559.717,o),
(837.353,465,o),
(1034,465,cs),
(1230.62,465,o),
(1290,559.795,o),
(1290,754,cs),
(1290,1077,l)
);
}
);
};
layerId = m001;
shapes = (
{
ref = U;
},
{
pos = (348,123);
ref = circumflexcomb;
}
);
userData = {
com.fontlab.hintData = {
hhints = (
{
position = -18;
width = 483;
},
{
position = 1102;
width = 434;
},
{
position = 1681;
width = 639;
}
);
vhints = (
{
position = 203;
width = 575;
},
{
position = 1290;
width = 482;
}
);
};
};
width = 1975;
}
);
unicode = 219;
},
{
glyphname = Udblgrave;
lastChange = "2024-04-24 09:25:14 +0000";
layers = (
{
background = {
shapes = (
{
closed = 1;
nodes = (
(1132,1102,l),
(1132,1536,l),
(1930,1536,l),
(1930,1102,l),
(1772,1077,l),
(1772,734,ls),
(1772,238.688,o),
(1527.96,-18,o),
(1041,-18,cs),
(504.968,-18,o),
(203,198.434,o),
(203,734,cs),
(203,1077,l),
(45,1102,l),
(45,1536,l),
(936,1536,l),
(936,1102,l),
(778,1077,l),
(778,754,ls),
(778,559.717,o),
(837.353,465,o),
(1034,465,cs),
(1230.62,465,o),
(1290,559.795,o),
(1290,754,cs),
(1290,1077,l)
);
}
);
};
layerId = m001;
shapes = (
{
ref = U;
},
{
pos = (265,123);
ref = dblgravecomb;
}
);
userData = {
com.fontlab.hintData = {
hhints = (
{
position = -18;
width = 483;
},
{
position = 1102;
width = 434;
},
{
position = 1681;
width = 640;
}
);
vhints = (
{
position = 203;
width = 575;
},
{
position = 1290;
width = 482;
}
);
};
};
width = 1975;
}
);
unicode = 532;
},
{
glyphname = Udieresis;
lastChange = "2024-04-24 09:25:30 +0000";
layers = (
{
background = {
shapes = (
{
closed = 1;
nodes = (
(1566,2065,l),
(1566,1681,l),
(1141,1681,l),
(1141,2065,l)
);
},
{
closed = 1;
nodes = (
(822,1681,l),
(397,1681,l),
(397,2065,l),
(822,2065,l)
);
},
{
closed = 1;
nodes = (
(1132,1102,l),
(1132,1536,l),
(1930,1536,l),
(1930,1102,l),
(1772,1077,l),
(1772,734,ls),
(1772,238.688,o),
(1527.96,-18,o),
(1041,-18,cs),
(504.968,-18,o),
(203,198.434,o),
(203,734,cs),
(203,1077,l),
(45,1102,l),
(45,1536,l),
(936,1536,l),
(936,1102,l),
(778,1077,l),
(778,754,ls),
(778,559.717,o),
(837.353,465,o),
(1034,465,cs),
(1230.62,465,o),
(1290,559.795,o),
(1290,754,cs),
(1290,1077,l)
);
}
);
};
layerId = m001;
shapes = (
{
ref = U;
},
{
pos = (344,123);
ref = dieresiscomb;
}
);
userData = {
com.fontlab.hintData = {
hhints = (
{
position = -18;
width = 483;
},
{
position = 1102;
width = 434;
},
{
position = 1681;
width = 384;
}
);
vhints = (
{
position = 203;
width = 575;
},
{
position = 397;
width = 425;
},
{
position = 1141;
width = 425;
},
{
position = 1290;
width = 482;
}
);
};
};
width = 1975;
}
);
unicode = 220;
},
{
glyphname = Ugrave;
lastChange = "2024-04-24 09:25:50 +0000";
layers = (
{
background = {
shapes = (
{
closed = 1;
nodes = (
(913,2321,l),
(1252,1681,l),
(827,1681,l),
(423,2321,l)
);
},
{
closed = 1;
nodes = (
(1132,1102,l),
(1132,1536,l),
(1930,1536,l),
(1930,1102,l),
(1772,1077,l),
(1772,734,ls),
(1772,238.688,o),
(1527.96,-18,o),
(1041,-18,cs),
(504.968,-18,o),
(203,198.434,o),
(203,734,cs),
(203,1077,l),
(45,1102,l),
(45,1536,l),
(936,1536,l),
(936,1102,l),
(778,1077,l),
(778,754,ls),
(778,559.717,o),
(837.353,465,o),
(1034,465,cs),
(1230.62,465,o),
(1290,559.795,o),
(1290,754,cs),
(1290,1077,l)
);
}
);
};
layerId = m001;
shapes = (
{
ref = U;
},
{
pos = (370,123);
ref = gravecomb;
}
);
userData = {
com.fontlab.hintData = {
hhints = (
{
position = -18;
width = 483;
},
{
position = 1102;
width = 434;
},
{
position = 1681;
width = 640;
}
);
vhints = (
{
position = 203;
width = 575;
},
{
position = 1290;
width = 482;
}
);
};
};
width = 1975;
}
);
unicode = 217;
},
{
glyphname = Uhungarumlaut;
lastChange = "2024-04-24 09:24:13 +0000";
layers = (
{
background = {
shapes = (
{
closed = 1;
nodes = (
(1021,1681,l),
(1426,2321,l),
(1916,2321,l),
(1456,1681,l)
);
},
{
closed = 1;
nodes = (
(383,1681,l),
(632,2321,l),
(1122,2321,l),
(788,1681,l)
);
},
{
closed = 1;
nodes = (
(1132,1102,l),
(1132,1536,l),
(1930,1536,l),
(1930,1102,l),
(1772,1077,l),
(1772,734,ls),
(1772,238.688,o),
(1527.96,-18,o),
(1041,-18,cs),
(504.968,-18,o),
(203,198.434,o),
(203,734,cs),
(203,1077,l),
(45,1102,l),
(45,1536,l),
(936,1536,l),
(936,1102,l),
(778,1077,l),
(778,754,ls),
(778,559.717,o),
(837.353,465,o),
(1034,465,cs),
(1230.62,465,o),
(1290,559.795,o),
(1290,754,cs),
(1290,1077,l)
);
}
);
};
layerId = m001;
shapes = (
{
ref = U;
},
{
pos = (165,128);
ref = hungarumlautcomb;
}
);
userData = {
com.fontlab.hintData = {
hhints = (
{
position = -18;
width = 483;
},
{
position = 1102;
width = 434;
},
{
position = 1681;
width = 640;
}
);
vhints = (
{
position = 203;
width = 575;
},
{
position = 1290;
width = 482;
}
);
};
};
width = 1975;
}
);
unicode = 368;
},
{
glyphname = Uinvertedbreve;
lastChange = "2024-04-24 09:29:25 +0000";
layers = (
{
background = {
shapes = (
{
closed = 1;
nodes = (
(1132,1102,l),
(1132,1536,l),
(1930,1536,l),
(1930,1102,l),
(1772,1077,l),
(1772,734,ls),
(1772,238.688,o),
(1527.96,-18,o),
(1041,-18,cs),
(504.968,-18,o),
(203,198.434,o),
(203,734,cs),
(203,1077,l),
(45,1102,l),
(45,1536,l),
(936,1536,l),
(936,1102,l),
(778,1077,l),
(778,754,ls),
(778,559.717,o),
(837.353,465,o),
(1034,465,cs),
(1230.62,465,o),
(1290,559.795,o),
(1290,754,cs),
(1290,1077,l)
);
}
);
};
layerId = m001;
shapes = (
{
ref = U;
},
{
pos = (558,123);
ref = breveinvertedcomb;
}
);
userData = {
com.fontlab.hintData = {
hhints = (
{
position = -18;
width = 483;
},
{
position = 1102;
width = 434;
},
{
position = 1681;
width = 21;
},
{
position = 1833;
width = 293;
}
);
vhints = (
{
position = 203;
width = 575;
},
{
position = 1290;
width = 482;
}
);
};
};
width = 1975;
}
);
unicode = 534;
},
{
color = 9;
glyphname = Umacron;
lastChange = "2024-04-24 09:24:13 +0000";
layers = (
{
background = {
shapes = (
{
closed = 1;
nodes = (
(1132,1102,l),
(1132,1536,l),
(1930,1536,l),
(1930,1102,l),
(1772,1077,l),
(1772,734,ls),
(1772,238.688,o),
(1527.96,-18,o),
(1041,-18,cs),
(504.968,-18,o),
(203,198.434,o),
(203,734,cs),
(203,1077,l),
(45,1102,l),
(45,1536,l),
(936,1536,l),
(936,1102,l),
(778,1077,l),
(778,754,ls),
(778,559.717,o),
(837.353,465,o),
(1034,465,cs),
(1230.62,465,o),
(1290,559.795,o),
(1290,754,cs),
(1290,1077,l)
);
},
{
closed = 1;
nodes = (
(2547,1536,l),
(2035,1536,l),
(2035,1752,l),
(2547,1752,l)
);
}
);
};
layerId = m001;
shapes = (
{
ref = U;
},
{
pos = (702,128);
ref = macroncomb;
}
);
width = 1975;
}
);
unicode = 362;
},
{
color = 9;
glyphname = Uogonek;
lastChange = "2024-04-24 09:35:57 +0000";
layers = (
{
background = {
shapes = (
{
closed = 1;
nodes = (
(1132,1102,l),
(1132,1536,l),
(1930,1536,l),
(1930,1102,l),
(1772,1077,l),
(1772,734,ls),
(1772,238.688,o),
(1527.96,-18,o),
(1041,-18,cs),
(504.968,-18,o),
(203,198.434,o),
(203,734,cs),
(203,1077,l),
(45,1102,l),
(45,1536,l),
(936,1536,l),
(936,1102,l),
(778,1077,l),
(778,754,ls),
(778,559.717,o),
(837.353,465,o),
(1034,465,cs),
(1230.62,465,o),
(1290,559.795,o),
(1290,754,cs),
(1290,1077,l)
);
},
{
closed = 1;
nodes = (
(2167,-876,o),
(2029,-740,o),
(2029,-492,cs),
(2029,-341,o),
(2094,-228,o),
(2156,-135,cs),
(2193,-80,o),
(2235,-29,o),
(2284,20,c),
(2618,20,l),
(2515,-80,o),
(2407,-198,o),
(2361,-349,cs),
(2353,-374,o),
(2349,-399,o),
(2349,-422,cs),
(2349,-513,o),
(2396,-553,o),
(2485,-553,cs),
(2530,-553,o),
(2591,-540,o),
(2668,-515,c),
(2668,-832,l),
(2594,-856,o),
(2502,-876,o),
(2412,-876,cs)
);
}
);
};
layerId = m001;
shapes = (
{
ref = U;
},
{
pos = (635,-10);
ref = ogonekcomb;
}
);
width = 1975;
}
);
unicode = 370;
},
{
glyphname = Uring;
lastChange = "2024-04-24 09:30:00 +0000";
layers = (
{
background = {
shapes = (
{
closed = 1;
nodes = (
(1202,2457,o),
(1370,2309,o),
(1370,2071,cs),
(1370,1831,o),
(1204,1681,o),
(967,1681,cs),
(732,1681,o),
(566,1832,o),
(566,2071,cs),
(566,2309,o),
(732,2457,o),
(967,2457,cs)
);
},
{
closed = 1;
nodes = (
(1077,1869,o),
(1141,1954,o),
(1141,2066,cs),
(1141,2177,o),
(1075,2261,o),
(967,2261,cs),
(859,2261,o),
(795,2177,o),
(795,2066,cs),
(795,1953,o),
(858,1869,o),
(968,1869,cs)
);
},
{
closed = 1;
nodes = (
(1132,1102,l),
(1132,1536,l),
(1930,1536,l),
(1930,1102,l),
(1772,1077,l),
(1772,734,ls),
(1772,238.688,o),
(1527.96,-18,o),
(1041,-18,cs),
(504.968,-18,o),
(203,198.434,o),
(203,734,cs),
(203,1077,l),
(45,1102,l),
(45,1536,l),
(936,1536,l),
(936,1102,l),
(778,1077,l),
(778,754,ls),
(778,559.717,o),
(837.353,465,o),
(1034,465,cs),
(1230.62,465,o),
(1290,559.795,o),
(1290,754,cs),
(1290,1077,l)
);
}
);
};
layerId = m001;
shapes = (
{
ref = U;
},
{
pos = (568,158);
ref = ringcomb;
}
);
userData = {
com.fontlab.hintData = {
hhints = (
{
position = -18;
width = 483;
},
{
position = 1102;
width = 434;
},
{
position = 1681;
width = 188;
},
{
position = 2261;
width = 196;
}
);
vhints = (
{
position = 203;
width = 575;
},
{
position = 566;
width = 229;
},
{
position = 1141;
width = 229;
},
{
position = 1290;
width = 482;
}
);
};
};
width = 1975;
}
);
unicode = 366;
},
{
glyphname = V;
lastChange = "2024-04-24 09:57:08 +0000";
layers = (
{
anchors = (
{
name = bottom;
pos = (994,0);
},
{
name = top;
pos = (994,1536);
}
);
background = {
shapes = (
{
closed = 1;
nodes = (
(229,1078,l),
(47,1102,l),
(47,1536,l),
(1011,1536,l),
(1011,1102,l),
(901,1078,l),
(1074,509,l),
(1247,1078,l),
(1137,1102,l),
(1137,1536,l),
(1940,1536,l),
(1940,1102,l),
(1759,1078,l),
(1350,-1,l),
(638,-1,l)
);
}
);
};
layerId = m001;
shapes = (
{
closed = 1;
nodes = (
(1350,-1,l),
(1759,1078,l),
(1940,1102,l),
(1940,1536,l),
(1137,1536,l),
(1137,1102,l),
(1247,1078,l),
(1074,509,l),
(901,1078,l),
(1011,1102,l),
(1011,1536,l),
(47,1536,l),
(47,1102,l),
(229,1078,l),
(638,-1,l)
);
}
);
userData = {
com.fontlab.hintData = {
hhints = (
{
position = -1;
width = 21;
},
{
position = 1102;
width = 434;
}
);
};
};
width = 1987;
}
);
unicode = 86;
},
{
glyphname = W;
lastChange = "2024-04-24 09:57:08 +0000";
layers = (
{
anchors = (
{
name = bottom;
pos = (1542,0);
},
{
name = top;
pos = (1682,1536);
}
);
background = {
shapes = (
{
closed = 1;
nodes = (
(229,1078,l),
(47,1102,l),
(47,1536,l),
(1048,1536,l),
(1048,1102,l),
(938,1078,l),
(1111,509,l),
(1284,1078,l),
(1174,1102,l),
(1174,1536,l),
(2145,1536,l),
(2145,1102,l),
(2035,1078,l),
(2208,509,l),
(2381,1078,l),
(2271,1102,l),
(2271,1536,l),
(3037,1536,l),
(3037,1102,l),
(2856,1078,l),
(2447,-1,l),
(1735,-1,l),
(1542,587,l),
(1350,-1,l),
(638,-1,l)
);
}
);
};
layerId = m001;
shapes = (
{
closed = 1;
nodes = (
(1350,-1,l),
(1542,587,l),
(1735,-1,l),
(2447,-1,l),
(2856,1078,l),
(3037,1102,l),
(3037,1536,l),
(2271,1536,l),
(2271,1102,l),
(2381,1078,l),
(2208,509,l),
(2035,1078,l),
(2145,1102,l),
(2145,1536,l),
(1174,1536,l),
(1174,1102,l),
(1284,1078,l),
(1111,509,l),
(938,1078,l),
(1048,1102,l),
(1048,1536,l),
(47,1536,l),
(47,1102,l),
(229,1078,l),
(638,-1,l)
);
}
);
userData = {
com.fontlab.hintData = {
hhints = (
{
position = -1;
width = 21;
},
{
position = 1102;
width = 434;
}
);
};
};
width = 3084;
}
);
unicode = 87;
},
{
color = 9;
glyphname = Wacute;
lastChange = "2024-04-24 09:36:28 +0000";
layers = (
{
background = {
shapes = (
{
closed = 1;
nodes = (
(229,1078,l),
(47,1102,l),
(47,1536,l),
(1048,1536,l),
(1048,1102,l),
(938,1078,l),
(1111,509,l),
(1284,1078,l),
(1174,1102,l),
(1174,1536,l),
(2145,1536,l),
(2145,1102,l),
(2035,1078,l),
(2208,509,l),
(2381,1078,l),
(2271,1102,l),
(2271,1536,l),
(3037,1536,l),
(3037,1102,l),
(2856,1078,l),
(2447,-1,l),
(1735,-1,l),
(1542,587,l),
(1350,-1,l),
(638,-1,l)
);
},
{
closed = 1;
nodes = (
(3169,1664,l),
(3508,2304,l),
(3998,2304,l),
(3594,1664,l)
);
}
);
};
layerId = m001;
shapes = (
{
ref = W;
},
{
pos = (1425,126);
ref = acutecomb;
}
);
width = 3084;
}
);
unicode = 7810;
},
{
color = 9;
glyphname = Wcircumflex;
lastChange = "2024-04-24 09:36:28 +0000";
layers = (
{
background = {
shapes = (
{
closed = 1;
nodes = (
(229,1078,l),
(47,1102,l),
(47,1536,l),
(1048,1536,l),
(1048,1102,l),
(938,1078,l),
(1111,509,l),
(1284,1078,l),
(1174,1102,l),
(1174,1536,l),
(2145,1536,l),
(2145,1102,l),
(2035,1078,l),
(2208,509,l),
(2381,1078,l),
(2271,1102,l),
(2271,1536,l),
(3037,1536,l),
(3037,1102,l),
(2856,1078,l),
(2447,-1,l),
(1735,-1,l),
(1542,587,l),
(1350,-1,l),
(638,-1,l)
);
},
{
closed = 1;
nodes = (
(3509,2303,l),
(3999,2303,l),
(4338,1664,l),
(3913,1664,l),
(3754,2047,l),
(3594,1664,l),
(3169,1664,l)
);
}
);
};
layerId = m001;
shapes = (
{
ref = W;
},
{
pos = (1012,123);
ref = circumflexcomb;
}
);
width = 3084;
}
);
unicode = 372;
},
{
color = 9;
glyphname = Wdieresis;
lastChange = "2024-04-24 09:36:28 +0000";
layers = (
{
background = {
shapes = (
{
closed = 1;
nodes = (
(229,1078,l),
(47,1102,l),
(47,1536,l),
(1048,1536,l),
(1048,1102,l),
(938,1078,l),
(1111,509,l),
(1284,1078,l),
(1174,1102,l),
(1174,1536,l),
(2145,1536,l),
(2145,1102,l),
(2035,1078,l),
(2208,509,l),
(2381,1078,l),
(2271,1102,l),
(2271,1536,l),
(3037,1536,l),
(3037,1102,l),
(2856,1078,l),
(2447,-1,l),
(1735,-1,l),
(1542,587,l),
(1350,-1,l),
(638,-1,l)
);
},
{
closed = 1;
nodes = (
(4342,2048,l),
(4342,1664,l),
(3917,1664,l),
(3917,2048,l)
);
},
{
closed = 1;
nodes = (
(3598,1664,l),
(3173,1664,l),
(3173,2048,l),
(3598,2048,l)
);
}
);
};
layerId = m001;
shapes = (
{
ref = W;
},
{
pos = (1008,123);
ref = dieresiscomb;
}
);
width = 3084;
}
);
unicode = 7812;
},
{
color = 9;
glyphname = Wgrave;
lastChange = "2024-04-24 09:36:28 +0000";
layers = (
{
background = {
shapes = (
{
closed = 1;
nodes = (
(229,1078,l),
(47,1102,l),
(47,1536,l),
(1048,1536,l),
(1048,1102,l),
(938,1078,l),
(1111,509,l),
(1284,1078,l),
(1174,1102,l),
(1174,1536,l),
(2145,1536,l),
(2145,1102,l),
(2035,1078,l),
(2208,509,l),
(2381,1078,l),
(2271,1102,l),
(2271,1536,l),
(3037,1536,l),
(3037,1102,l),
(2856,1078,l),
(2447,-1,l),
(1735,-1,l),
(1542,587,l),
(1350,-1,l),
(638,-1,l)
);
},
{
closed = 1;
nodes = (
(3657,2304,l),
(3996,1664,l),
(3571,1664,l),
(3167,2304,l)
);
}
);
};
layerId = m001;
shapes = (
{
ref = W;
},
{
pos = (1034,123);
ref = gravecomb;
}
);
width = 3084;
}
);
unicode = 7808;
},
{
glyphname = X;
lastChange = "2024-04-24 09:57:08 +0000";
layers = (
{
anchors = (
{
name = bottom;
pos = (1030,0);
},
{
name = top;
pos = (1030,1536);
}
);
background = {
shapes = (
{
closed = 1;
nodes = (
(2029,434,l),
(2029,0,l),
(985,0,l),
(985,434,l),
(1095,458,l),
(862,636,l),
(669,458,l),
(859,434,l),
(859,0,l),
(56,0,l),
(56,434,l),
(237,458,l),
(606,788,l),
(247,1078,l),
(35,1102,l),
(35,1536,l),
(1043,1536,l),
(1043,1102,l),
(933,1078,l),
(1192,890,l),
(1365,1078,l),
(1178,1102,l),
(1178,1536,l),
(1978,1536,l),
(1978,1102,l),
(1767,1078,l),
(1468,768,l),
(1847,458,l)
);
}
);
};
layerId = m001;
shapes = (
{
closed = 1;
nodes = (
(859,0,l),
(859,434,l),
(669,458,l),
(862,636,l),
(1095,458,l),
(985,434,l),
(985,0,l),
(2029,0,l),
(2029,434,l),
(1847,458,l),
(1468,768,l),
(1767,1078,l),
(1978,1102,l),
(1978,1536,l),
(1178,1536,l),
(1178,1102,l),
(1365,1078,l),
(1192,890,l),
(933,1078,l),
(1043,1102,l),
(1043,1536,l),
(35,1536,l),
(35,1102,l),
(247,1078,l),
(606,788,l),
(237,458,l),
(56,434,l),
(56,0,l)
);
}
);
userData = {
com.fontlab.hintData = {
hhints = (
{
position = 0;
width = 434;
},
{
position = 1102;
width = 434;
}
);
};
};
width = 2060;
}
);
unicode = 88;
},
{
glyphname = Y;
lastChange = "2024-04-24 09:57:08 +0000";
layers = (
{
anchors = (
{
name = bottom;
pos = (1034,0);
},
{
name = top;
pos = (1034,1536);
},
{
name = topleft;
pos = (20,1536);
}
);
background = {
shapes = (
{
closed = 1;
nodes = (
(550,432,l),
(678,464,l),
(239,1078,l),
(57,1102,l),
(57,1536,l),
(931,1536,l),
(931,1102,l),
(831,1078,l),
(1034,764,l),
(1237,1078,l),
(1137,1102,l),
(1137,1536,l),
(2020,1536,l),
(2020,1102,l),
(1829,1078,l),
(1390,464,l),
(1518,432,l),
(1518,0,l),
(550,0,l)
);
}
);
};
layerId = m001;
shapes = (
{
closed = 1;
nodes = (
(1518,0,l),
(1518,432,l),
(1390,464,l),
(1829,1078,l),
(2020,1102,l),
(2020,1536,l),
(1137,1536,l),
(1137,1102,l),
(1237,1078,l),
(1034,764,l),
(831,1078,l),
(931,1102,l),
(931,1536,l),
(57,1536,l),
(57,1102,l),
(239,1078,l),
(678,464,l),
(550,432,l),
(550,0,l)
);
}
);
userData = {
com.fontlab.hintData = {
hhints = (
{
position = 0;
width = 21;
},
{
position = 1102;
width = 434;
}
);
};
};
width = 2067;
}
);
unicode = 89;
},
{
glyphname = Yacute;
lastChange = "2024-04-24 09:22:35 +0000";
layers = (
{
background = {
shapes = (
{
closed = 1;
nodes = (
(866,1681,l),
(1205,2321,l),
(1695,2321,l),
(1291,1681,l)
);
},
{
closed = 1;
nodes = (
(550,432,l),
(678,464,l),
(239,1078,l),
(57,1102,l),
(57,1536,l),
(931,1536,l),
(931,1102,l),
(831,1078,l),
(1034,764,l),
(1237,1078,l),
(1137,1102,l),
(1137,1536,l),
(2020,1536,l),
(2020,1102,l),
(1829,1078,l),
(1390,464,l),
(1518,432,l),
(1518,0,l),
(550,0,l)
);
}
);
};
layerId = m001;
shapes = (
{
ref = Y;
},
{
pos = (777,126);
ref = acutecomb;
}
);
userData = {
com.fontlab.hintData = {
hhints = (
{
position = 0;
width = 21;
},
{
position = 1102;
width = 434;
},
{
position = 1681;
width = 640;
}
);
};
};
width = 2067;
}
);
unicode = 221;
},
{
color = 9;
glyphname = Ycircumflex;
lastChange = "2024-04-24 09:23:52 +0000";
layers = (
{
background = {
shapes = (
{
closed = 1;
nodes = (
(550,432,l),
(678,464,l),
(239,1078,l),
(57,1102,l),
(57,1536,l),
(931,1536,l),
(931,1102,l),
(831,1078,l),
(1034,764,l),
(1237,1078,l),
(1137,1102,l),
(1137,1536,l),
(2020,1536,l),
(2020,1102,l),
(1829,1078,l),
(1390,464,l),
(1518,432,l),
(1518,0,l),
(550,0,l)
);
},
{
closed = 1;
nodes = (
(2492,2303,l),
(2982,2303,l),
(3321,1664,l),
(2896,1664,l),
(2737,2047,l),
(2577,1664,l),
(2152,1664,l)
);
}
);
};
layerId = m001;
shapes = (
{
ref = Y;
},
{
pos = (364,123);
ref = circumflexcomb;
}
);
width = 2067;
}
);
unicode = 374;
},
{
glyphname = Ydieresis;
lastChange = "2024-04-24 09:25:30 +0000";
layers = (
{
background = {
shapes = (
{
closed = 1;
nodes = (
(1612,2065,l),
(1612,1681,l),
(1187,1681,l),
(1187,2065,l)
);
},
{
closed = 1;
nodes = (
(868,1681,l),
(443,1681,l),
(443,2065,l),
(868,2065,l)
);
},
{
closed = 1;
nodes = (
(550,432,l),
(678,464,l),
(239,1078,l),
(57,1102,l),
(57,1536,l),
(931,1536,l),
(931,1102,l),
(831,1078,l),
(1034,764,l),
(1237,1078,l),
(1137,1102,l),
(1137,1536,l),
(2020,1536,l),
(2020,1102,l),
(1829,1078,l),
(1390,464,l),
(1518,432,l),
(1518,0,l),
(550,0,l)
);
}
);
};
layerId = m001;
shapes = (
{
ref = Y;
},
{
pos = (360,123);
ref = dieresiscomb;
}
);
userData = {
com.fontlab.hintData = {
hhints = (
{
position = 0;
width = 21;
},
{
position = 1102;
width = 434;
},
{
position = 1681;
width = 384;
}
);
vhints = (
{
position = 443;
width = 425;
},
{
position = 1187;
width = 425;
}
);
};
};
width = 2067;
}
);
unicode = 376;
},
{
color = 9;
glyphname = Ygrave;
lastChange = "2024-04-24 09:25:50 +0000";
layers = (
{
background = {
shapes = (
{
closed = 1;
nodes = (
(550,432,l),
(678,464,l),
(239,1078,l),
(57,1102,l),
(57,1536,l),
(931,1536,l),
(931,1102,l),
(831,1078,l),
(1034,764,l),
(1237,1078,l),
(1137,1102,l),
(1137,1536,l),
(2020,1536,l),
(2020,1102,l),
(1829,1078,l),
(1390,464,l),
(1518,432,l),
(1518,0,l),
(550,0,l)
);
},
{
closed = 1;
nodes = (
(2640,2304,l),
(2979,1664,l),
(2554,1664,l),
(2150,2304,l)
);
}
);
};
layerId = m001;
shapes = (
{
ref = Y;
},
{
pos = (386,123);
ref = gravecomb;
}
);
width = 2067;
}
);
unicode = 7922;
},
{
glyphname = Z;
lastChange = "2024-04-24 09:57:08 +0000";
layers = (
{
anchors = (
{
name = bottom;
pos = (697,0);
},
{
name = center;
pos = (697,768);
},
{
name = top;
pos = (697,1536);
}
);
background = {
shapes = (
{
closed = 1;
nodes = (
(989.751,399,o),
(1081.86,452.752,o),
(1150,512,c),
(1318,512,l),
(1318,0,l),
(70,0,l),
(70,384,l),
(634,1152,l),
(485.095,1152,o),
(376.692,1092.28,o),
(296,1024,c),
(128,1024,l),
(128,1536,l),
(1318,1536,l),
(1318,1122,l),
(814,402,l),
(830.667,400,o),
(847,399,o),
(863,399,cs)
);
}
);
};
layerId = m001;
shapes = (
{
closed = 1;
nodes = (
(1318,0,l),
(1318,512,l),
(1150,512,l),
(1082,453,o),
(990,399,o),
(863,399,cs),
(847,399,o),
(831,400,o),
(814,402,c),
(1318,1122,l),
(1318,1536,l),
(128,1536,l),
(128,1024,l),
(296,1024,l),
(377,1092,o),
(485,1152,o),
(634,1152,c),
(70,384,l),
(70,0,l)
);
}
);
userData = {
com.fontlab.hintData = {
hhints = (
{
position = 0;
width = 399;
},
{
position = 1152;
width = 384;
}
);
};
};
width = 1393;
}
);
unicode = 90;
},
{
glyphname = Zacute;
lastChange = "2024-04-24 09:22:35 +0000";
layers = (
{
background = {
shapes = (
{
closed = 1;
nodes = (
(556,1681,l),
(895,2321,l),
(1385,2321,l),
(981,1681,l)
);
},
{
closed = 1;
nodes = (
(989.751,399,o),
(1081.86,452.752,o),
(1150,512,c),
(1318,512,l),
(1318,0,l),
(70,0,l),
(70,384,l),
(634,1152,l),
(485.095,1152,o),
(376.692,1092.28,o),
(296,1024,c),
(128,1024,l),
(128,1536,l),
(1318,1536,l),
(1318,1122,l),
(814,402,l),
(830.667,400,o),
(847,399,o),
(863,399,cs)
);
}
);
};
layerId = m001;
shapes = (
{
ref = Z;
},
{
pos = (440,126);
ref = acutecomb;
}
);
userData = {
com.fontlab.hintData = {
hhints = (
{
position = 0;
width = 399;
},
{
position = 1152;
width = 384;
},
{
position = 1681;
width = 640;
}
);
};
};
width = 1393;
}
);
unicode = 377;
},
{
glyphname = Zcaron;
lastChange = "2024-04-24 09:30:34 +0000";
layers = (
{
background = {
shapes = (
{
closed = 1;
nodes = (
(753,1937,l),
(912,2320,l),
(1337,2320,l),
(998,1681,l),
(508,1681,l),
(168,2320,l),
(593,2320,l)
);
},
{
closed = 1;
nodes = (
(989.751,399,o),
(1081.86,452.752,o),
(1150,512,c),
(1318,512,l),
(1318,0,l),
(70,0,l),
(70,384,l),
(634,1152,l),
(485.095,1152,o),
(376.692,1092.28,o),
(296,1024,c),
(128,1024,l),
(128,1536,l),
(1318,1536,l),
(1318,1122,l),
(814,402,l),
(830.667,400,o),
(847,399,o),
(863,399,cs)
);
}
);
};
layerId = m001;
shapes = (
{
ref = Z;
},
{
pos = (29,123);
ref = caroncomb;
}
);
userData = {
com.fontlab.hintData = {
hhints = (
{
position = 0;
width = 399;
},
{
position = 1152;
width = 384;
},
{
position = 1681;
width = 639;
}
);
};
};
width = 1393;
}
);
unicode = 381;
},
{
glyphname = Zdotaccent;
lastChange = "2024-04-24 09:22:02 +0000";
layers = (
{
background = {
shapes = (
{
closed = 1;
nodes = (
(1037,2193,l),
(1037,1681,l),
(397,1681,l),
(397,2193,l)
);
},
{
closed = 1;
nodes = (
(989.751,399,o),
(1081.86,452.752,o),
(1150,512,c),
(1318,512,l),
(1318,0,l),
(70,0,l),
(70,384,l),
(634,1152,l),
(485.095,1152,o),
(376.692,1092.28,o),
(296,1024,c),
(128,1024,l),
(128,1536,l),
(1318,1536,l),
(1318,1122,l),
(814,402,l),
(830.667,400,o),
(847,399,o),
(863,399,cs)
);
}
);
};
layerId = m001;
shapes = (
{
ref = Z;
},
{
pos = (288,128);
ref = dotaccentcomb;
}
);
userData = {
com.fontlab.hintData = {
hhints = (
{
position = 0;
width = 399;
},
{
position = 1152;
width = 384;
},
{
position = 1681;
width = 512;
}
);
vhints = (
{
position = 397;
width = 640;
}
);
};
};
width = 1393;
}
);
unicode = 379;
},
{
glyphname = a;
lastChange = "2024-04-24 09:57:12 +0000";
layers = (
{
anchors = (
{
name = bottom;
pos = (836,0);
},
{
name = ogonek;
pos = (1504,10);
},
{
name = top;
pos = (836,1408);
}
);
background = {
shapes = (
{
closed = 1;
nodes = (
(1028,237,l),
(635,237,l),
(585,0,l),
(50,0,l),
(50,464,l),
(166,487,l),
(443,1408,l),
(1219,1408,l),
(1498,487,l),
(1613,464,l),
(1613,0,l),
(1078,0,l)
);
},
{
closed = 1;
nodes = (
(967,553,l),
(831,1106,l),
(696,553,l)
);
}
);
};
layerId = m001;
shapes = (
{
closed = 1;
nodes = (
(585,0,l),
(635,237,l),
(1028,237,l),
(1078,0,l),
(1613,0,l),
(1613,464,l),
(1498,487,l),
(1219,1408,l),
(443,1408,l),
(166,487,l),
(50,464,l),
(50,0,l)
);
},
{
closed = 1;
nodes = (
(831,1106,l),
(967,553,l),
(696,553,l)
);
}
);
userData = {
com.fontlab.hintData = {
hhints = (
{
position = 0;
width = 21;
},
{
position = 237;
width = 316;
},
{
position = 1388;
width = 20;
},
{
position = 1388;
width = 20;
}
);
};
};
width = 1671;
}
);
unicode = 97;
},
{
glyphname = aacute;
lastChange = "2024-04-24 09:22:35 +0000";
layers = (
{
background = {
shapes = (
{
closed = 1;
nodes = (
(663,1568,l),
(1002,2208,l),
(1492,2208,l),
(1088,1568,l)
);
},
{
closed = 1;
nodes = (
(1028,237,l),
(635,237,l),
(585,0,l),
(50,0,l),
(50,464,l),
(166,487,l),
(443,1408,l),
(1219,1408,l),
(1498,487,l),
(1613,464,l),
(1613,0,l),
(1078,0,l)
);
},
{
closed = 1;
nodes = (
(967,553,l),
(831,1106,l),
(696,553,l)
);
}
);
};
layerId = m001;
shapes = (
{
ref = a;
},
{
pos = (579,-2);
ref = acutecomb;
}
);
userData = {
com.fontlab.hintData = {
hhints = (
{
position = 0;
width = 21;
},
{
position = 237;
width = 316;
},
{
position = 1388;
width = 20;
},
{
position = 1568;
width = 640;
}
);
};
};
width = 1671;
}
);
unicode = 225;
},
{
glyphname = abreve;
lastChange = "2024-04-24 09:22:02 +0000";
layers = (
{
background = {
shapes = (
{
closed = 1;
nodes = (
(1216,1754,o),
(1065,1568,o),
(813,1568,cs),
(561,1568,o),
(412,1757,o),
(412,2013,c),
(681,2013,l),
(681,1927,o),
(730,1861,o),
(814,1861,cs),
(897,1861,o),
(947,1927,o),
(947,2013,c),
(1216,2013,l)
);
},
{
closed = 1;
nodes = (
(1028,237,l),
(635,237,l),
(585,0,l),
(50,0,l),
(50,464,l),
(166,487,l),
(443,1408,l),
(1219,1408,l),
(1498,487,l),
(1613,464,l),
(1613,0,l),
(1078,0,l)
);
},
{
closed = 1;
nodes = (
(967,553,l),
(831,1106,l),
(696,553,l)
);
}
);
};
layerId = m001;
shapes = (
{
ref = a;
},
{
pos = (386,0);
ref = brevecomb;
}
);
userData = {
com.fontlab.hintData = {
hhints = (
{
position = 0;
width = 21;
},
{
position = 237;
width = 316;
},
{
position = 1388;
width = 20;
},
{
position = 1568;
width = 293;
}
);
};
};
width = 1671;
}
);
unicode = 259;
},
{
glyphname = acircumflex;
lastChange = "2024-04-24 09:23:52 +0000";
layers = (
{
background = {
shapes = (
{
closed = 1;
nodes = (
(619,2207,l),
(1109,2207,l),
(1448,1568,l),
(1023,1568,l),
(864,1951,l),
(704,1568,l),
(279,1568,l)
);
},
{
closed = 1;
nodes = (
(1028,237,l),
(635,237,l),
(585,0,l),
(50,0,l),
(50,464,l),
(166,487,l),
(443,1408,l),
(1219,1408,l),
(1498,487,l),
(1613,464,l),
(1613,0,l),
(1078,0,l)
);
},
{
closed = 1;
nodes = (
(967,553,l),
(831,1106,l),
(696,553,l)
);
}
);
};
layerId = m001;
shapes = (
{
ref = a;
},
{
pos = (166,-5);
ref = circumflexcomb;
}
);
userData = {
com.fontlab.hintData = {
hhints = (
{
position = 0;
width = 21;
},
{
position = 237;
width = 316;
},
{
position = 1388;
width = 20;
},
{
position = 1568;
width = 639;
}
);
};
};
width = 1671;
}
);
unicode = 226;
},
{
glyphname = adblgrave;
lastChange = "2024-04-24 09:25:14 +0000";
layers = (
{
background = {
shapes = (
{
closed = 1;
nodes = (
(1028,237,l),
(635,237,l),
(585,0,l),
(50,0,l),
(50,464,l),
(166,487,l),
(443,1408,l),
(1219,1408,l),
(1498,487,l),
(1613,464,l),
(1613,0,l),
(1078,0,l)
);
},
{
closed = 1;
nodes = (
(967,553,l),
(831,1106,l),
(696,553,l)
);
}
);
};
layerId = m001;
shapes = (
{
ref = a;
},
{
pos = (83,-5);
ref = dblgravecomb;
}
);
userData = {
com.fontlab.hintData = {
hhints = (
{
position = 0;
width = 21;
},
{
position = 237;
width = 316;
},
{
position = 1388;
width = 20;
},
{
position = 1568;
width = 640;
}
);
};
};
width = 1671;
}
);
unicode = 513;
},
{
glyphname = adieresis;
lastChange = "2024-04-24 09:25:30 +0000";
layers = (
{
background = {
shapes = (
{
closed = 1;
nodes = (
(1410,1952,l),
(1410,1568,l),
(985,1568,l),
(985,1952,l)
);
},
{
closed = 1;
nodes = (
(666,1568,l),
(241,1568,l),
(241,1952,l),
(666,1952,l)
);
},
{
closed = 1;
nodes = (
(1028,237,l),
(635,237,l),
(585,0,l),
(50,0,l),
(50,464,l),
(166,487,l),
(443,1408,l),
(1219,1408,l),
(1498,487,l),
(1613,464,l),
(1613,0,l),
(1078,0,l)
);
},
{
closed = 1;
nodes = (
(967,553,l),
(831,1106,l),
(696,553,l)
);
}
);
};
layerId = m001;
shapes = (
{
ref = a;
},
{
pos = (162,-5);
ref = dieresiscomb;
}
);
userData = {
com.fontlab.hintData = {
hhints = (
{
position = 0;
width = 21;
},
{
position = 237;
width = 316;
},
{
position = 1388;
width = 20;
},
{
position = 1568;
width = 384;
}
);
vhints = (
{
position = 241;
width = 425;
},
{
position = 985;
width = 425;
}
);
};
};
width = 1671;
}
);
unicode = 228;
},
{
glyphname = agrave;
lastChange = "2024-04-24 09:25:50 +0000";
layers = (
{
background = {
shapes = (
{
closed = 1;
nodes = (
(757,2208,l),
(1096,1568,l),
(671,1568,l),
(267,2208,l)
);
},
{
closed = 1;
nodes = (
(1028,237,l),
(635,237,l),
(585,0,l),
(50,0,l),
(50,464,l),
(166,487,l),
(443,1408,l),
(1219,1408,l),
(1498,487,l),
(1613,464,l),
(1613,0,l),
(1078,0,l)
);
},
{
closed = 1;
nodes = (
(967,553,l),
(831,1106,l),
(696,553,l)
);
}
);
};
layerId = m001;
shapes = (
{
ref = a;
},
{
pos = (188,-5);
ref = gravecomb;
}
);
userData = {
com.fontlab.hintData = {
hhints = (
{
position = 0;
width = 21;
},
{
position = 237;
width = 316;
},
{
position = 1388;
width = 20;
},
{
position = 1568;
width = 640;
}
);
};
};
width = 1671;
}
);
unicode = 224;
},
{
glyphname = ainvertedbreve;
lastChange = "2024-04-24 09:29:25 +0000";
layers = (
{
background = {
shapes = (
{
closed = 1;
nodes = (
(1028,237,l),
(635,237,l),
(585,0,l),
(50,0,l),
(50,464,l),
(166,487,l),
(443,1408,l),
(1219,1408,l),
(1498,487,l),
(1613,464,l),
(1613,0,l),
(1078,0,l)
);
},
{
closed = 1;
nodes = (
(967,553,l),
(831,1106,l),
(696,553,l)
);
}
);
};
layerId = m001;
shapes = (
{
ref = a;
},
{
pos = (376,-5);
ref = breveinvertedcomb;
}
);
userData = {
com.fontlab.hintData = {
hhints = (
{
position = 0;
width = 21;
},
{
position = 237;
width = 316;
},
{
position = 1388;
width = 20;
},
{
position = 1568;
width = 21;
},
{
position = 1720;
width = 293;
}
);
};
};
width = 1671;
}
);
unicode = 515;
},
{
color = 9;
glyphname = amacron;
lastChange = "2024-04-24 09:22:02 +0000";
layers = (
{
background = {
shapes = (
{
closed = 1;
nodes = (
(1028,237,l),
(635,237,l),
(585,0,l),
(50,0,l),
(50,464,l),
(166,487,l),
(443,1408,l),
(1219,1408,l),
(1498,487,l),
(1613,464,l),
(1613,0,l),
(1078,0,l)
);
},
{
closed = 1;
nodes = (
(967,553,l),
(831,1106,l),
(696,553,l)
);
},
{
closed = 1;
nodes = (
(2243,1536,l),
(1731,1536,l),
(1731,1752,l),
(2243,1752,l)
);
}
);
};
layerId = m001;
shapes = (
{
ref = a;
},
{
pos = (520,0);
ref = macroncomb;
}
);
width = 1671;
}
);
unicode = 257;
},
{
glyphname = aogonek;
lastChange = "2024-04-24 09:22:02 +0000";
layers = (
{
background = {
shapes = (
{
closed = 1;
nodes = (
(708,-866,o),
(570,-730,o),
(570,-482,cs),
(570,-331,o),
(635,-218,o),
(697,-125,cs),
(734,-70,o),
(776,-19,o),
(825,30,c),
(1159,30,l),
(1056,-70,o),
(948,-188,o),
(902,-339,cs),
(894,-364,o),
(890,-389,o),
(890,-412,cs),
(890,-503,o),
(937,-543,o),
(1026,-543,cs),
(1071,-543,o),
(1132,-530,o),
(1209,-505,c),
(1209,-822,l),
(1135,-846,o),
(1043,-866,o),
(953,-866,cs)
);
},
{
closed = 1;
nodes = (
(1001,237,l),
(608,237,l),
(558,0,l),
(23,0,l),
(23,464,l),
(139,487,l),
(416,1408,l),
(1192,1408,l),
(1471,487,l),
(1586,464,l),
(1586,0,l),
(1051,0,l)
);
},
{
closed = 1;
nodes = (
(940,553,l),
(804,1106,l),
(669,553,l)
);
}
);
};
layerId = m001;
shapes = (
{
ref = a;
},
{
pos = (811,-10);
ref = ogonekcomb;
}
);
userData = {
com.fontlab.hintData = {
hhints = (
{
position = -866;
width = 323;
},
{
position = 0;
width = 21;
},
{
position = 237;
width = 316;
},
{
position = 1388;
width = 20;
}
);
vhints = (
{
position = 570;
width = 320;
}
);
};
};
width = 1671;
}
);
unicode = 261;
},
{
glyphname = aring;
lastChange = "2024-04-24 09:30:00 +0000";
layers = (
{
background = {
shapes = (
{
closed = 1;
nodes = (
(1046,2344,o),
(1214,2196,o),
(1214,1958,cs),
(1214,1718,o),
(1048,1568,o),
(811,1568,cs),
(576,1568,o),
(410,1719,o),
(410,1958,cs),
(410,2196,o),
(576,2344,o),
(811,2344,cs)
);
},
{
closed = 1;
nodes = (
(921,1756,o),
(985,1841,o),
(985,1953,cs),
(985,2064,o),
(919,2148,o),
(811,2148,cs),
(703,2148,o),
(639,2064,o),
(639,1953,cs),
(639,1840,o),
(702,1756,o),
(812,1756,cs)
);
},
{
closed = 1;
nodes = (
(1028,237,l),
(635,237,l),
(585,0,l),
(50,0,l),
(50,464,l),
(166,487,l),
(443,1408,l),
(1219,1408,l),
(1498,487,l),
(1613,464,l),
(1613,0,l),
(1078,0,l)
);
},
{
closed = 1;
nodes = (
(967,553,l),
(831,1106,l),
(696,553,l)
);
}
);
};
layerId = m001;
shapes = (
{
ref = a;
},
{
pos = (386,30);
ref = ringcomb;
}
);
userData = {
com.fontlab.hintData = {
hhints = (
{
position = 0;
width = 21;
},
{
position = 237;
width = 316;
},
{
position = 1388;
width = 20;
},
{
position = 1568;
width = 188;
},
{
position = 2148;
width = 196;
}
);
vhints = (
{
position = 410;
width = 229;
},
{
position = 985;
width = 229;
}
);
};
};
width = 1671;
}
);
unicode = 229;
},
{
glyphname = atilde;
lastChange = "2024-04-24 09:22:02 +0000";
layers = (
{
background = {
shapes = (
{
closed = 1;
nodes = (
(742,2069,o),
(828,1954,o),
(979,1954,cs),
(1103,1954,o),
(1180,2004,o),
(1258,2075,c),
(1198,1658,l),
(1163,1608,o),
(1112,1577,o),
(1037,1577,cs),
(889,1577,o),
(794,1673,o),
(645,1673,cs),
(523,1673,o),
(442,1632,o),
(362,1568,c),
(424,1994,l),
(466,2041,o),
(515,2069,o),
(594,2069,cs)
);
},
{
closed = 1;
nodes = (
(1028,237,l),
(635,237,l),
(585,0,l),
(50,0,l),
(50,464,l),
(166,487,l),
(443,1408,l),
(1219,1408,l),
(1498,487,l),
(1613,464,l),
(1613,0,l),
(1078,0,l)
);
},
{
closed = 1;
nodes = (
(967,553,l),
(831,1106,l),
(696,553,l)
);
}
);
};
layerId = m001;
shapes = (
{
ref = a;
},
{
pos = (330,0);
ref = tildecomb;
}
);
userData = {
com.fontlab.hintData = {
hhints = (
{
position = 0;
width = 21;
},
{
position = 237;
width = 316;
},
{
position = 1388;
width = 20;
},
{
position = 1577;
width = 377;
},
{
position = 1673;
width = 396;
}
);
};
};
width = 1671;
}
);
unicode = 227;
},
{
glyphname = ae;
lastChange = "2024-04-24 09:57:12 +0000";
layers = (
{
background = {
shapes = (
{
closed = 1;
nodes = (
(1871.52,402,o),
(2008.51,442.632,o),
(2099,512,c),
(2266,512,l),
(2266,0,l),
(1052,0,l),
(1074,237,l),
(681,237,l),
(559,0,l),
(27,0,l),
(164,464,l),
(286,487,l),
(842,1408,l),
(2266,1408,l),
(2266,896,l),
(2099,896,l),
(2007.08,963.41,o),
(1870.67,1006,o),
(1712,1006,c),
(1712,789,l),
(1989,848,l),
(1989,563,l),
(1712,623,l),
(1712,402,l)
);
},
{
closed = 1;
nodes = (
(1138,553,l),
(1138,1106,l),
(837,553,l)
);
}
);
};
layerId = m001;
shapes = (
{
closed = 1;
nodes = (
(559,0,l),
(681,237,l),
(1074,237,l),
(1052,0,l),
(2266,0,l),
(2266,512,l),
(2099,512,l),
(2009,443,o),
(1872,402,o),
(1712,402,c),
(1712,623,l),
(1989,563,l),
(1989,848,l),
(1712,789,l),
(1712,1006,l),
(1871,1006,o),
(2007,963,o),
(2099,896,c),
(2266,896,l),
(2266,1408,l),
(842,1408,l),
(286,487,l),
(164,464,l),
(27,0,l)
);
},
{
closed = 1;
nodes = (
(1138,1106,l),
(1138,553,l),
(837,553,l)
);
}
);
userData = {
com.fontlab.hintData = {
hhints = (
{
position = 0;
width = 402;
},
{
position = 237;
width = 316;
},
{
position = 1006;
width = 402;
}
);
};
};
width = 2342;
}
);
unicode = 230;
},
{
glyphname = b;
lastChange = "2024-04-24 12:25:49 +0000";
layers = (
{
anchors = (
{
name = bottom;
pos = (854,0);
},
{
name = center;
pos = (427,1310);
},
{
name = top;
pos = (854,1408);
}
);
layerId = m001;
shapes = (
{
closed = 1;
nodes = (
(1155,0,ls),
(1477,0,o),
(1669,109,o),
(1669,422,cs),
(1669,635,o),
(1499,712,o),
(1299,723,c),
(1531,734,o),
(1573,943,o),
(1573,1083,cs),
(1573,1283,o),
(1452,1367,o),
(1278,1408,c),
(64,1408,l),
(64,1048,l),
(184,1025,l),
(184,422,l),
(64,399,l),
(64,0,l)
);
},
{
closed = 1;
nodes = (
(786,626,l),
(874,626,ls),
(992,626,o),
(1067,611,o),
(1067,491,cs),
(1067,364,o),
(998,342,o),
(874,342,cs),
(786,342,l)
);
},
{
closed = 1;
nodes = (
(786,1106,l),
(874,1106,ls),
(992,1106,o),
(1067,1090,o),
(1067,970,cs),
(1067,843,o),
(998,822,o),
(874,822,cs),
(786,822,l)
);
}
);
userData = {
com.fontlab.hintData = {
hhints = (
{
position = 0;
width = 342;
},
{
position = 626;
width = 196;
},
{
position = 1106;
width = 302;
}
);
vhints = (
{
position = 184;
width = 602;
},
{
position = 1067;
width = 602;
},
{
position = 1067;
width = 506;
}
);
};
};
width = 1708;
}
);
unicode = 98;
},
{
glyphname = c;
lastChange = "2024-04-24 09:57:08 +0000";
layers = (
{
anchors = (
{
name = bottom;
pos = (839,0);
},
{
name = top;
pos = (869,1408);
}
);
background = {
shapes = (
{
closed = 1;
nodes = (
(744.315,1024,o),
(637,894.46,o),
(637,723,cs),
(637,515.626,o),
(744.423,419,o),
(948,419,cs),
(1116.88,419,o),
(1265.35,460.69,o),
(1422,508,c),
(1422,73,l),
(1222,12.333,o),
(1029.67,-18,o),
(845,-18,cs),
(348.393,-18,o),
(34,225.47,o),
(34,723,cs),
(34,1221,o),
(340.862,1446,o),
(838,1446,cs),
(1076.24,1446,o),
(1263.7,1401.49,o),
(1422,1330,c),
(1422,895,l),
(1139,895,l),
(1087.8,965.394,o),
(1017.8,1024,o),
(912,1024,cs)
);
}
);
};
layerId = m001;
shapes = (
{
closed = 1;
nodes = (
(1030,-18,o),
(1222,12,o),
(1422,73,c),
(1422,508,l),
(1265,461,o),
(1117,419,o),
(948,419,cs),
(744,419,o),
(637,516,o),
(637,723,cs),
(637,894,o),
(744,1024,o),
(912,1024,cs),
(1018,1024,o),
(1088,965,o),
(1139,895,c),
(1422,895,l),
(1422,1330,l),
(1264,1401,o),
(1076,1446,o),
(838,1446,cs),
(341,1446,o),
(34,1221,o),
(34,723,cs),
(34,225,o),
(348,-18,o),
(845,-18,cs)
);
}
);
userData = {
com.fontlab.hintData = {
hhints = (
{
position = -18;
width = 437;
},
{
position = 1024;
width = 422;
}
);
vhints = (
{
position = 34;
width = 603;
}
);
};
};
width = 1497;
}
);
unicode = 99;
},
{
glyphname = cacute;
lastChange = "2024-04-24 09:36:46 +0000";
layers = (
{
background = {
shapes = (
{
closed = 1;
nodes = (
(670,1568,l),
(1009,2208,l),
(1499,2208,l),
(1095,1568,l)
);
},
{
closed = 1;
nodes = (
(744.315,1024,o),
(637,894.46,o),
(637,723,cs),
(637,515.626,o),
(744.423,419,o),
(948,419,cs),
(1116.88,419,o),
(1265.35,460.69,o),
(1422,508,c),
(1422,73,l),
(1222,12.333,o),
(1029.67,-18,o),
(845,-18,cs),
(348.393,-18,o),
(34,225.47,o),
(34,723,cs),
(34,1221,o),
(340.862,1446,o),
(838,1446,cs),
(1076.24,1446,o),
(1263.7,1401.49,o),
(1422,1330,c),
(1422,895,l),
(1139,895,l),
(1087.8,965.394,o),
(1017.8,1024,o),
(912,1024,cs)
);
}
);
};
layerId = m001;
shapes = (
{
ref = c;
},
{
pos = (612,-2);
ref = acutecomb;
}
);
userData = {
com.fontlab.hintData = {
hhints = (
{
position = -18;
width = 437;
},
{
position = 1024;
width = 422;
},
{
position = 1568;
width = 640;
}
);
vhints = (
{
position = 34;
width = 603;
}
);
};
};
width = 1497;
}
);
unicode = 263;
},
{
glyphname = ccaron;
lastChange = "2024-04-24 09:36:46 +0000";
layers = (
{
background = {
shapes = (
{
closed = 1;
nodes = (
(869,1824,l),
(1028,2207,l),
(1453,2207,l),
(1114,1568,l),
(624,1568,l),
(284,2207,l),
(709,2207,l)
);
},
{
closed = 1;
nodes = (
(744.315,1024,o),
(637,894.46,o),
(637,723,cs),
(637,515.626,o),
(744.423,419,o),
(948,419,cs),
(1116.88,419,o),
(1265.35,460.69,o),
(1422,508,c),
(1422,73,l),
(1222,12.333,o),
(1029.67,-18,o),
(845,-18,cs),
(348.393,-18,o),
(34,225.47,o),
(34,723,cs),
(34,1221,o),
(340.862,1446,o),
(838,1446,cs),
(1076.24,1446,o),
(1263.7,1401.49,o),
(1422,1330,c),
(1422,895,l),
(1139,895,l),
(1087.8,965.394,o),
(1017.8,1024,o),
(912,1024,cs)
);
}
);
};
layerId = m001;
shapes = (
{
ref = c;
},
{
pos = (201,-5);
ref = caroncomb;
}
);
userData = {
com.fontlab.hintData = {
hhints = (
{
position = -18;
width = 437;
},
{
position = 1024;
width = 422;
},
{
position = 1568;
width = 639;
}
);
vhints = (
{
position = 34;
width = 603;
}
);
};
};
width = 1497;
}
);
unicode = 269;
},
{
glyphname = ccedilla;
lastChange = "2024-04-24 09:32:05 +0000";
layers = (
{
background = {
shapes = (
{
closed = 1;
nodes = (
(1005,-689,o),
(1052,-649,o),
(1052,-558,cs),
(1052,-484,o),
(1005,-427,o),
(933,-427,cs),
(888,-427,o),
(856,-453,o),
(835,-484,c),
(713,-484,l),
(713,12,l),
(934,12,l),
(934,-245,l),
(945,-245,ls),
(952,-245,o),
(958,-244,o),
(965,-244,c),
(954,-234,o),
(949,-227,o),
(949,-223,cs),
(949,-220,o),
(951,-218,o),
(956,-218,cs),
(1008,-218,o),
(1312,-381,o),
(1312,-558,cs),
(1312,-773,o),
(1175,-885,o),
(961,-885,cs),
(870,-885,o),
(787,-866,o),
(713,-841,c),
(713,-651,l),
(778,-671,o),
(846,-689,o),
(916,-689,cs)
);
},
{
closed = 1;
nodes = (
(744.315,1024,o),
(637,894.46,o),
(637,723,cs),
(637,515.626,o),
(744.423,419,o),
(948,419,cs),
(1116.88,419,o),
(1265.35,460.69,o),
(1422,508,c),
(1422,73,l),
(1222,12.333,o),
(1029.67,-18,o),
(845,-18,cs),
(348.393,-18,o),
(34,225.47,o),
(34,723,cs),
(34,1221,o),
(340.862,1446,o),
(838,1446,cs),
(1076.24,1446,o),
(1263.7,1401.49,o),
(1422,1330,c),
(1422,895,l),
(1139,895,l),
(1087.8,965.394,o),
(1017.8,1024,o),
(912,1024,cs)
);
}
);
};
layerId = m001;
shapes = (
{
ref = c;
},
{
pos = (646,-117);
ref = cedillacomb;
}
);
userData = {
com.fontlab.hintData = {
hhints = (
{
position = -885;
width = 196;
},
{
position = -18;
width = 437;
},
{
position = 1024;
width = 422;
}
);
vhints = (
{
position = 34;
width = 603;
},
{
position = 713;
width = 221;
},
{
position = 1052;
width = 260;
}
);
};
};
width = 1497;
}
);
unicode = 231;
},
{
color = 9;
glyphname = cdotaccent;
lastChange = "2024-04-24 09:36:46 +0000";
layers = (
{
background = {
shapes = (
{
closed = 1;
nodes = (
(744.315,1024,o),
(637,894.46,o),
(637,723,cs),
(637,515.626,o),
(744.423,419,o),
(948,419,cs),
(1116.88,419,o),
(1265.35,460.69,o),
(1422,508,c),
(1422,73,l),
(1222,12.333,o),
(1029.67,-18,o),
(845,-18,cs),
(348.393,-18,o),
(34,225.47,o),
(34,723,cs),
(34,1221,o),
(340.862,1446,o),
(838,1446,cs),
(1076.24,1446,o),
(1263.7,1401.49,o),
(1422,1330,c),
(1422,895,l),
(1139,895,l),
(1087.8,965.394,o),
(1017.8,1024,o),
(912,1024,cs)
);
},
{
closed = 1;
nodes = (
(2226,2176,l),
(2226,1664,l),
(1586,1664,l),
(1586,2176,l)
);
}
);
};
layerId = m001;
shapes = (
{
ref = c;
},
{
pos = (460,0);
ref = dotaccentcomb;
}
);
width = 1497;
}
);
unicode = 267;
},
{
glyphname = d;
lastChange = "2024-04-24 09:57:12 +0000";
layers = (
{
anchors = (
{
name = bottom;
pos = (890,0);
},
{
name = center;
pos = (1334,1310);
},
{
name = top;
pos = (890,1408);
},
{
name = topright;
pos = (1759,1638);
}
);
background = {
shapes = (
{
closed = 1;
nodes = (
(1748,166.445,o),
(1343.59,0,o),
(786,0,cs),
(64,0,l),
(64,399,l),
(184,422,l),
(184,1025,l),
(64,1048,l),
(64,1408,l),
(1159,1408,l),
(1508.65,1333.44,o),
(1748,1145.71,o),
(1748,723,cs)
);
},
{
closed = 1;
nodes = (
(1097.81,422,o),
(1146,501.304,o),
(1146,723,cs),
(1146,940.373,o),
(1098.66,1025,o),
(878,1025,cs),
(786,1025,l),
(786,422,l),
(878,422,ls)
);
}
);
};
layerId = m001;
shapes = (
{
closed = 1;
nodes = (
(786,0,ls),
(1344,0,o),
(1748,166,o),
(1748,723,cs),
(1748,1146,o),
(1509,1333,o),
(1159,1408,c),
(64,1408,l),
(64,1048,l),
(184,1025,l),
(184,422,l),
(64,399,l),
(64,0,l)
);
},
{
closed = 1;
nodes = (
(786,1025,l),
(878,1025,ls),
(1099,1025,o),
(1146,940,o),
(1146,723,cs),
(1146,501,o),
(1098,422,o),
(878,422,cs),
(786,422,l)
);
}
);
userData = {
com.fontlab.hintData = {
hhints = (
{
position = 0;
width = 422;
},
{
position = 1025;
width = 383;
}
);
vhints = (
{
position = 184;
width = 602;
},
{
position = 1146;
width = 602;
}
);
};
};
width = 1779;
}
);
unicode = 100;
},
{
glyphname = dcaron;
lastChange = "2024-04-24 09:30:34 +0000";
layers = (
{
background = {
shapes = (
{
closed = 1;
nodes = (
(2539,1446,l),
(2539,935,ls),
(2539,626,o),
(2331,482,o),
(2027,482,c),
(2027,806,l),
(2102,810,o),
(2154,852,o),
(2154,934,c),
(1899,934,l),
(1899,1446,l)
);
},
{
closed = 1;
nodes = (
(1718,166,o),
(1314,0,o),
(756,0,cs),
(34,0,l),
(34,399,l),
(154,422,l),
(154,1025,l),
(34,1048,l),
(34,1408,l),
(1129,1408,l),
(1479,1333,o),
(1718,1146,o),
(1718,723,cs)
);
},
{
closed = 1;
nodes = (
(1068,422,o),
(1116,501,o),
(1116,723,cs),
(1116,940,o),
(1069,1025,o),
(848,1025,cs),
(756,1025,l),
(756,422,l),
(848,422,ls)
);
}
);
};
layerId = m001;
shapes = (
{
ref = d;
},
{
pos = (222,-5);
ref = caroncomb;
}
);
userData = {
com.fontlab.hintData = {
hhints = (
{
position = 0;
width = 422;
},
{
position = 1025;
width = 383;
}
);
vhints = (
{
position = 154;
width = 602;
},
{
position = 1116;
width = 602;
},
{
position = 1899;
width = 640;
}
);
};
};
width = 1779;
}
);
unicode = 271;
},
{
glyphname = dcroat;
lastChange = "2024-04-24 09:57:12 +0000";
layers = (
{
background = {
shapes = (
{
closed = 1;
nodes = (
(1759,166.445,o),
(1354.59,0,o),
(797,0,cs),
(75,0,l),
(75,399,l),
(195,422,l),
(195,598,l),
(74,598,l),
(74,854,l),
(195,854,l),
(195,1025,l),
(75,1048,l),
(75,1408,l),
(1170,1408,l),
(1519.65,1333.44,o),
(1759,1145.71,o),
(1759,723,cs)
);
},
{
closed = 1;
nodes = (
(1108.81,422,o),
(1157,501.304,o),
(1157,723,cs),
(1157,940.373,o),
(1109.66,1025,o),
(889,1025,cs),
(797,1025,l),
(797,854,l),
(925,854,l),
(925,598,l),
(797,598,l),
(797,422,l),
(889,422,ls)
);
}
);
};
layerId = m001;
shapes = (
{
closed = 1;
nodes = (
(797,0,ls),
(1355,0,o),
(1759,166,o),
(1759,723,cs),
(1759,1146,o),
(1520,1333,o),
(1170,1408,c),
(75,1408,l),
(75,1048,l),
(195,1025,l),
(195,854,l),
(74,854,l),
(74,598,l),
(195,598,l),
(195,422,l),
(75,399,l),
(75,0,l)
);
},
{
closed = 1;
nodes = (
(797,598,l),
(925,598,l),
(925,854,l),
(797,854,l),
(797,1025,l),
(889,1025,ls),
(1110,1025,o),
(1157,940,o),
(1157,723,cs),
(1157,501,o),
(1109,422,o),
(889,422,cs),
(797,422,l)
);
}
);
userData = {
com.fontlab.hintData = {
hhints = (
{
position = 0;
width = 422;
},
{
position = 598;
width = 256;
},
{
position = 1025;
width = 383;
}
);
vhints = (
{
position = 1157;
width = 602;
}
);
};
};
width = 1790;
}
);
unicode = 273;
},
{
glyphname = eth;
lastChange = "2024-04-24 09:57:12 +0000";
layers = (
{
background = {
shapes = (
{
closed = 1;
nodes = (
(1758,166.445,o),
(1353.59,0,o),
(796,0,cs),
(74,0,l),
(74,399,l),
(194,422,l),
(194,592,l),
(77,592,l),
(77,848,l),
(194,848,l),
(194,1025,l),
(74,1048,l),
(74,1408,l),
(1169,1408,l),
(1518.65,1333.44,o),
(1758,1145.71,o),
(1758,723,cs)
);
},
{
closed = 1;
nodes = (
(1107.81,422,o),
(1156,501.304,o),
(1156,723,cs),
(1156,940.373,o),
(1108.66,1025,o),
(888,1025,cs),
(796,1025,l),
(796,848,l),
(973,848,l),
(973,592,l),
(796,592,l),
(796,422,l),
(888,422,ls)
);
}
);
};
layerId = m001;
shapes = (
{
closed = 1;
nodes = (
(796,0,ls),
(1354,0,o),
(1758,166,o),
(1758,723,cs),
(1758,1146,o),
(1519,1333,o),
(1169,1408,c),
(74,1408,l),
(74,1048,l),
(194,1025,l),
(194,848,l),
(77,848,l),
(77,592,l),
(194,592,l),
(194,422,l),
(74,399,l),
(74,0,l)
);
},
{
closed = 1;
nodes = (
(796,592,l),
(973,592,l),
(973,848,l),
(796,848,l),
(796,1025,l),
(888,1025,ls),
(1109,1025,o),
(1156,940,o),
(1156,723,cs),
(1156,501,o),
(1108,422,o),
(888,422,cs),
(796,422,l)
);
}
);
userData = {
com.fontlab.hintData = {
hhints = (
{
position = 0;
width = 422;
},
{
position = 592;
width = 256;
},
{
position = 1025;
width = 383;
}
);
vhints = (
{
position = 1156;
width = 602;
}
);
};
};
width = 1789;
}
);
unicode = 240;
},
{
glyphname = e;
lastChange = "2024-04-24 09:57:08 +0000";
layers = (
{
anchors = (
{
name = bottom;
pos = (689,0);
},
{
name = ogonek;
pos = (900,30);
},
{
name = top;
pos = (689,1408);
}
);
background = {
shapes = (
{
closed = 1;
nodes = (
(943.96,402,o),
(1077.8,442.844,o),
(1165,512,c),
(1302,512,l),
(1302,0,l),
(66,0,l),
(66,399,l),
(186,422,l),
(186,989,l),
(66,1012,l),
(66,1408,l),
(1302,1408,l),
(1302,896,l),
(1165,896,l),
(1076.36,963.242,o),
(943.099,1006,o),
(788,1006,c),
(788,789,l),
(1065,848,l),
(1065,563,l),
(788,623,l),
(788,402,l)
);
}
);
};
layerId = m001;
shapes = (
{
closed = 1;
nodes = (
(1302,0,l),
(1302,512,l),
(1165,512,l),
(1078,443,o),
(944,402,o),
(788,402,c),
(788,623,l),
(1065,563,l),
(1065,848,l),
(788,789,l),
(788,1006,l),
(943,1006,o),
(1076,963,o),
(1165,896,c),
(1302,896,l),
(1302,1408,l),
(66,1408,l),
(66,1012,l),
(186,989,l),
(186,422,l),
(66,399,l),
(66,0,l)
);
}
);
userData = {
com.fontlab.hintData = {
hhints = (
{
position = 0;
width = 399;
},
{
position = 1012;
width = 396;
}
);
vhints = (
{
position = 186;
width = 602;
}
);
};
};
width = 1378;
}
);
unicode = 101;
},
{
glyphname = eacute;
lastChange = "2024-04-24 09:22:35 +0000";
layers = (
{
background = {
shapes = (
{
closed = 1;
nodes = (
(517,1568,l),
(856,2208,l),
(1346,2208,l),
(942,1568,l)
);
},
{
closed = 1;
nodes = (
(943.96,402,o),
(1077.8,442.844,o),
(1165,512,c),
(1302,512,l),
(1302,0,l),
(66,0,l),
(66,399,l),
(186,422,l),
(186,989,l),
(66,1012,l),
(66,1408,l),
(1302,1408,l),
(1302,896,l),
(1165,896,l),
(1076.36,963.242,o),
(943.099,1006,o),
(788,1006,c),
(788,789,l),
(1065,848,l),
(1065,563,l),
(788,623,l),
(788,402,l)
);
}
);
};
layerId = m001;
shapes = (
{
ref = e;
},
{
pos = (432,-2);
ref = acutecomb;
}
);
userData = {
com.fontlab.hintData = {
hhints = (
{
position = 0;
width = 399;
},
{
position = 1012;
width = 396;
},
{
position = 1568;
width = 640;
}
);
vhints = (
{
position = 186;
width = 602;
}
);
};
};
width = 1378;
}
);
unicode = 233;
},
{
glyphname = ecaron;
lastChange = "2024-04-24 09:30:34 +0000";
layers = (
{
background = {
shapes = (
{
closed = 1;
nodes = (
(714,1824,l),
(873,2207,l),
(1298,2207,l),
(959,1568,l),
(469,1568,l),
(129,2207,l),
(554,2207,l)
);
},
{
closed = 1;
nodes = (
(943.96,402,o),
(1077.8,442.844,o),
(1165,512,c),
(1302,512,l),
(1302,0,l),
(66,0,l),
(66,399,l),
(186,422,l),
(186,989,l),
(66,1012,l),
(66,1408,l),
(1302,1408,l),
(1302,896,l),
(1165,896,l),
(1076.36,963.242,o),
(943.099,1006,o),
(788,1006,c),
(788,789,l),
(1065,848,l),
(1065,563,l),
(788,623,l),
(788,402,l)
);
}
);
};
layerId = m001;
shapes = (
{
ref = e;
},
{
pos = (21,-5);
ref = caroncomb;
}
);
userData = {
com.fontlab.hintData = {
hhints = (
{
position = 0;
width = 399;
},
{
position = 1012;
width = 396;
},
{
position = 1568;
width = 639;
}
);
vhints = (
{
position = 186;
width = 602;
}
);
};
};
width = 1378;
}
);
unicode = 283;
},
{
glyphname = ecircumflex;
lastChange = "2024-04-24 09:23:52 +0000";
layers = (
{
background = {
shapes = (
{
closed = 1;
nodes = (
(471,2207,l),
(961,2207,l),
(1300,1568,l),
(875,1568,l),
(716,1951,l),
(556,1568,l),
(131,1568,l)
);
},
{
closed = 1;
nodes = (
(943.96,402,o),
(1077.8,442.844,o),
(1165,512,c),
(1302,512,l),
(1302,0,l),
(66,0,l),
(66,399,l),
(186,422,l),
(186,989,l),
(66,1012,l),
(66,1408,l),
(1302,1408,l),
(1302,896,l),
(1165,896,l),
(1076.36,963.242,o),
(943.099,1006,o),
(788,1006,c),
(788,789,l),
(1065,848,l),
(1065,563,l),
(788,623,l),
(788,402,l)
);
}
);
};
layerId = m001;
shapes = (
{
ref = e;
},
{
pos = (19,-5);
ref = circumflexcomb;
}
);
userData = {
com.fontlab.hintData = {
hhints = (
{
position = 0;
width = 399;
},
{
position = 1012;
width = 396;
},
{
position = 1568;
width = 639;
}
);
vhints = (
{
position = 186;
width = 602;
}
);
};
};
width = 1378;
}
);
unicode = 234;
},
{
glyphname = edblgrave;
lastChange = "2024-04-24 09:25:14 +0000";
layers = (
{
background = {
shapes = (
{
closed = 1;
nodes = (
(943.96,402,o),
(1077.8,442.844,o),
(1165,512,c),
(1302,512,l),
(1302,0,l),
(66,0,l),
(66,399,l),
(186,422,l),
(186,989,l),
(66,1012,l),
(66,1408,l),
(1302,1408,l),
(1302,896,l),
(1165,896,l),
(1076.36,963.242,o),
(943.099,1006,o),
(788,1006,c),
(788,789,l),
(1065,848,l),
(1065,563,l),
(788,623,l),
(788,402,l)
);
}
);
};
layerId = m001;
shapes = (
{
ref = e;
},
{
pos = (-64,-5);
ref = dblgravecomb;
}
);
userData = {
com.fontlab.hintData = {
hhints = (
{
position = 0;
width = 399;
},
{
position = 1012;
width = 396;
},
{
position = 1568;
width = 640;
}
);
vhints = (
{
position = 186;
width = 602;
}
);
};
};
width = 1378;
}
);
unicode = 517;
},
{
glyphname = edieresis;
lastChange = "2024-04-24 09:25:30 +0000";
layers = (
{
background = {
shapes = (
{
closed = 1;
nodes = (
(1262,1952,l),
(1262,1568,l),
(837,1568,l),
(837,1952,l)
);
},
{
closed = 1;
nodes = (
(518,1568,l),
(93,1568,l),
(93,1952,l),
(518,1952,l)
);
},
{
closed = 1;
nodes = (
(943.96,402,o),
(1077.8,442.844,o),
(1165,512,c),
(1302,512,l),
(1302,0,l),
(66,0,l),
(66,399,l),
(186,422,l),
(186,989,l),
(66,1012,l),
(66,1408,l),
(1302,1408,l),
(1302,896,l),
(1165,896,l),
(1076.36,963.242,o),
(943.099,1006,o),
(788,1006,c),
(788,789,l),
(1065,848,l),
(1065,563,l),
(788,623,l),
(788,402,l)
);
}
);
};
layerId = m001;
shapes = (
{
ref = e;
},
{
pos = (15,-5);
ref = dieresiscomb;
}
);
userData = {
com.fontlab.hintData = {
hhints = (
{
position = 0;
width = 399;
},
{
position = 1012;
width = 396;
},
{
position = 1568;
width = 384;
}
);
vhints = (
{
position = 93;
width = 425;
},
{
position = 186;
width = 602;
},
{
position = 837;
width = 425;
}
);
};
};
width = 1378;
}
);
unicode = 235;
},
{
color = 9;
glyphname = edotaccent;
lastChange = "2024-04-24 09:22:02 +0000";
layers = (
{
background = {
shapes = (
{
closed = 1;
nodes = (
(943.96,402,o),
(1077.8,442.844,o),
(1165,512,c),
(1302,512,l),
(1302,0,l),
(66,0,l),
(66,399,l),
(186,422,l),
(186,989,l),
(66,1012,l),
(66,1408,l),
(1302,1408,l),
(1302,896,l),
(1165,896,l),
(1076.36,963.242,o),
(943.099,1006,o),
(788,1006,c),
(788,789,l),
(1065,848,l),
(1065,563,l),
(788,623,l),
(788,402,l)
);
},
{
closed = 1;
nodes = (
(2107,2176,l),
(2107,1664,l),
(1467,1664,l),
(1467,2176,l)
);
}
);
};
layerId = m001;
shapes = (
{
ref = e;
},
{
pos = (280,0);
ref = dotaccentcomb;
}
);
width = 1378;
}
);
unicode = 279;
},
{
glyphname = egrave;
lastChange = "2024-04-24 09:25:50 +0000";
layers = (
{
background = {
shapes = (
{
closed = 1;
nodes = (
(609,2208,l),
(948,1568,l),
(523,1568,l),
(119,2208,l)
);
},
{
closed = 1;
nodes = (
(943.96,402,o),
(1077.8,442.844,o),
(1165,512,c),
(1302,512,l),
(1302,0,l),
(66,0,l),
(66,399,l),
(186,422,l),
(186,989,l),
(66,1012,l),
(66,1408,l),
(1302,1408,l),
(1302,896,l),
(1165,896,l),
(1076.36,963.242,o),
(943.099,1006,o),
(788,1006,c),
(788,789,l),
(1065,848,l),
(1065,563,l),
(788,623,l),
(788,402,l)
);
}
);
};
layerId = m001;
shapes = (
{
ref = e;
},
{
pos = (41,-5);
ref = gravecomb;
}
);
userData = {
com.fontlab.hintData = {
hhints = (
{
position = 0;
width = 399;
},
{
position = 1012;
width = 396;
},
{
position = 1568;
width = 640;
}
);
vhints = (
{
position = 186;
width = 602;
}
);
};
};
width = 1378;
}
);
unicode = 232;
},
{
glyphname = einvertedbreve;
lastChange = "2024-04-24 09:29:25 +0000";
layers = (
{
background = {
shapes = (
{
closed = 1;
nodes = (
(943.96,402,o),
(1077.8,442.844,o),
(1165,512,c),
(1302,512,l),
(1302,0,l),
(66,0,l),
(66,399,l),
(186,422,l),
(186,989,l),
(66,1012,l),
(66,1408,l),
(1302,1408,l),
(1302,896,l),
(1165,896,l),
(1076.36,963.242,o),
(943.099,1006,o),
(788,1006,c),
(788,789,l),
(1065,848,l),
(1065,563,l),
(788,623,l),
(788,402,l)
);
}
);
};
layerId = m001;
shapes = (
{
ref = e;
},
{
pos = (229,-5);
ref = breveinvertedcomb;
}
);
userData = {
com.fontlab.hintData = {
hhints = (
{
position = 0;
width = 399;
},
{
position = 1012;
width = 396;
},
{
position = 1568;
width = 21;
},
{
position = 1720;
width = 293;
}
);
vhints = (
{
position = 186;
width = 602;
}
);
};
};
width = 1378;
}
);
unicode = 519;
},
{
color = 9;
glyphname = emacron;
lastChange = "2024-04-24 09:22:02 +0000";
layers = (
{
background = {
shapes = (
{
closed = 1;
nodes = (
(943.96,402,o),
(1077.8,442.844,o),
(1165,512,c),
(1302,512,l),
(1302,0,l),
(66,0,l),
(66,399,l),
(186,422,l),
(186,989,l),
(66,1012,l),
(66,1408,l),
(1302,1408,l),
(1302,896,l),
(1165,896,l),
(1076.36,963.242,o),
(943.099,1006,o),
(788,1006,c),
(788,789,l),
(1065,848,l),
(1065,563,l),
(788,623,l),
(788,402,l)
);
},
{
closed = 1;
nodes = (
(1950,1536,l),
(1438,1536,l),
(1438,1752,l),
(1950,1752,l)
);
}
);
};
layerId = m001;
shapes = (
{
ref = e;
},
{
pos = (373,0);
ref = macroncomb;
}
);
width = 1378;
}
);
unicode = 275;
},
{
glyphname = eogonek;
lastChange = "2024-04-24 09:37:08 +0000";
layers = (
{
background = {
shapes = (
{
closed = 1;
nodes = (
(394,-866,o),
(256,-730,o),
(256,-482,cs),
(256,-331,o),
(321,-218,o),
(383,-125,cs),
(420,-70,o),
(462,-19,o),
(511,30,c),
(845,30,l),
(742,-70,o),
(634,-188,o),
(588,-339,cs),
(580,-364,o),
(576,-389,o),
(576,-412,cs),
(576,-503,o),
(623,-543,o),
(712,-543,cs),
(757,-543,o),
(818,-530,o),
(895,-505,c),
(895,-822,l),
(821,-846,o),
(729,-866,o),
(639,-866,cs)
);
},
{
closed = 1;
nodes = (
(943.96,402,o),
(1077.8,442.844,o),
(1165,512,c),
(1302,512,l),
(1302,0,l),
(66,0,l),
(66,399,l),
(186,422,l),
(186,989,l),
(66,1012,l),
(66,1408,l),
(1302,1408,l),
(1302,896,l),
(1165,896,l),
(1076.36,963.242,o),
(943.099,1006,o),
(788,1006,c),
(788,789,l),
(1065,848,l),
(1065,563,l),
(788,623,l),
(788,402,l)
);
}
);
};
layerId = m001;
shapes = (
{
ref = e;
},
{
pos = (207,10);
ref = ogonekcomb;
}
);
userData = {
com.fontlab.hintData = {
hhints = (
{
position = -866;
width = 323;
},
{
position = 0;
width = 399;
},
{
position = 1012;
width = 396;
}
);
vhints = (
{
position = 186;
width = 602;
},
{
position = 256;
width = 320;
}
);
};
};
width = 1378;
}
);
unicode = 281;
},
{
glyphname = f;
lastChange = "2024-04-24 09:57:08 +0000";
layers = (
{
anchors = (
{
name = bottom;
pos = (646,0);
},
{
name = top;
pos = (646,1638);
}
);
background = {
shapes = (
{
closed = 1;
nodes = (
(1044,818,l),
(1044,513,l),
(788,573,l),
(788,422,l),
(908,396,l),
(908,0,l),
(66,0,l),
(66,399,l),
(186,422,l),
(186,989,l),
(66,1012,l),
(66,1408,l),
(1229,1408,l),
(1229,896,l),
(1062,896,l),
(1004.34,956.334,o),
(907.36,1006,o),
(788,1006,c),
(788,759,l)
);
}
);
};
layerId = m001;
shapes = (
{
closed = 1;
nodes = (
(908,0,l),
(908,396,l),
(788,422,l),
(788,573,l),
(1044,513,l),
(1044,818,l),
(788,759,l),
(788,1006,l),
(907,1006,o),
(1004,956,o),
(1062,896,c),
(1229,896,l),
(1229,1408,l),
(66,1408,l),
(66,1012,l),
(186,989,l),
(186,422,l),
(66,399,l),
(66,0,l)
);
}
);
userData = {
com.fontlab.hintData = {
hhints = (
{
position = 0;
width = 21;
},
{
position = 1012;
width = 396;
}
);
};
};
width = 1291;
}
);
unicode = 102;
},
{
glyphname = g;
lastChange = "2024-04-24 09:57:08 +0000";
layers = (
{
anchors = (
{
name = bottom;
pos = (763,-410);
},
{
name = top;
pos = (823,1438);
}
);
background = {
shapes = (
{
closed = 1;
nodes = (
(335.273,-18,o),
(34,229.382,o),
(34,723,cs),
(34,1221.1,o),
(340.54,1446,o),
(838,1446,cs),
(1076.24,1446,o),
(1263.7,1401.49,o),
(1422,1330,c),
(1422,895,l),
(1139,895,l),
(1087.64,968.684,o),
(1035.38,1024,o),
(912,1024,cs),
(731.409,1024,o),
(637,908.483,o),
(637,723,cs),
(637,505.922,o),
(706.812,399,o),
(920,399,cs),
(980.07,399,o),
(1026.53,406.992,o),
(1078,423,c),
(1078,537,l),
(877,537,l),
(877,783,l),
(1462,783,l),
(1462,119,l),
(1281.43,43.353,o),
(1079.15,-18,o),
(827,-18,cs)
);
}
);
};
layerId = m001;
shapes = (
{
closed = 1;
nodes = (
(1079,-18,o),
(1281,43,o),
(1462,119,c),
(1462,783,l),
(877,783,l),
(877,537,l),
(1078,537,l),
(1078,423,l),
(1027,407,o),
(980,399,o),
(920,399,cs),
(707,399,o),
(637,506,o),
(637,723,cs),
(637,908,o),
(731,1024,o),
(912,1024,cs),
(1035,1024,o),
(1088,969,o),
(1139,895,c),
(1422,895,l),
(1422,1330,l),
(1264,1401,o),
(1076,1446,o),
(838,1446,cs),
(341,1446,o),
(34,1221,o),
(34,723,cs),
(34,229,o),
(335,-18,o),
(827,-18,cs)
);
}
);
userData = {
com.fontlab.hintData = {
hhints = (
{
position = -18;
width = 417;
},
{
position = 537;
width = 246;
},
{
position = 1024;
width = 422;
}
);
vhints = (
{
position = 34;
width = 603;
},
{
position = 1078;
width = 384;
}
);
};
};
width = 1525;
}
);
unicode = 103;
},
{
glyphname = gbreve;
lastChange = "2024-04-24 09:37:16 +0000";
layers = (
{
background = {
shapes = (
{
closed = 1;
nodes = (
(1223,1754,o),
(1072,1568,o),
(820,1568,cs),
(568,1568,o),
(419,1757,o),
(419,2013,c),
(688,2013,l),
(688,1927,o),
(737,1861,o),
(821,1861,cs),
(904,1861,o),
(954,1927,o),
(954,2013,c),
(1223,2013,l)
);
},
{
closed = 1;
nodes = (
(335.273,-18,o),
(34,229.382,o),
(34,723,cs),
(34,1221.1,o),
(340.54,1446,o),
(838,1446,cs),
(1076.24,1446,o),
(1263.7,1401.49,o),
(1422,1330,c),
(1422,895,l),
(1139,895,l),
(1087.64,968.684,o),
(1035.38,1024,o),
(912,1024,cs),
(731.409,1024,o),
(637,908.483,o),
(637,723,cs),
(637,505.922,o),
(706.812,399,o),
(920,399,cs),
(980.07,399,o),
(1026.53,406.992,o),
(1078,423,c),
(1078,537,l),
(877,537,l),
(877,783,l),
(1462,783,l),
(1462,119,l),
(1281.43,43.353,o),
(1079.15,-18,o),
(827,-18,cs)
);
}
);
};
layerId = m001;
shapes = (
{
ref = g;
},
{
pos = (373,30);
ref = brevecomb;
}
);
userData = {
com.fontlab.hintData = {
hhints = (
{
position = -18;
width = 417;
},
{
position = 537;
width = 246;
},
{
position = 1024;
width = 422;
},
{
position = 1568;
width = 293;
}
);
vhints = (
{
position = 34;
width = 603;
},
{
position = 1078;
width = 384;
}
);
};
};
width = 1525;
}
);
unicode = 287;
},
{
color = 9;
glyphname = gdotaccent;
lastChange = "2024-04-24 09:37:16 +0000";
layers = (
{
background = {
shapes = (
{
closed = 1;
nodes = (
(335.273,-18,o),
(34,229.382,o),
(34,723,cs),
(34,1221.1,o),
(340.54,1446,o),
(838,1446,cs),
(1076.24,1446,o),
(1263.7,1401.49,o),
(1422,1330,c),
(1422,895,l),
(1139,895,l),
(1087.64,968.684,o),
(1035.38,1024,o),
(912,1024,cs),
(731.409,1024,o),
(637,908.483,o),
(637,723,cs),
(637,505.922,o),
(706.812,399,o),
(920,399,cs),
(980.07,399,o),
(1026.53,406.992,o),
(1078,423,c),
(1078,537,l),
(877,537,l),
(877,783,l),
(1462,783,l),
(1462,119,l),
(1281.43,43.353,o),
(1079.15,-18,o),
(827,-18,cs)
);
},
{
closed = 1;
nodes = (
(2254,2176,l),
(2254,1664,l),
(1614,1664,l),
(1614,2176,l)
);
}
);
};
layerId = m001;
shapes = (
{
ref = g;
},
{
pos = (414,30);
ref = dotaccentcomb;
}
);
width = 1525;
}
);
unicode = 289;
},
{
glyphname = h;
lastChange = "2024-04-24 09:57:08 +0000";
layers = (
{
anchors = (
{
name = bottom;
pos = (1031,0);
},
{
name = center;
pos = (515,1310);
},
{
name = top;
pos = (1031,1408);
}
);
background = {
shapes = (
{
closed = 1;
nodes = (
(908,1408,l),
(908,1012,l),
(788,989,l),
(788,824,l),
(1269,824,l),
(1269,989,l),
(1149,1012,l),
(1149,1413,l),
(1991,1413,l),
(1991,1012,l),
(1871,989,l),
(1871,422,l),
(1991,399,l),
(1991,0,l),
(1149,0,l),
(1149,399,l),
(1269,422,l),
(1269,589,l),
(788,589,l),
(788,422,l),
(908,399,l),
(908,0,l),
(66,0,l),
(66,399,l),
(186,422,l),
(186,989,l),
(66,1012,l),
(66,1408,l)
);
}
);
};
layerId = m001;
shapes = (
{
closed = 1;
nodes = (
(908,0,l),
(908,399,l),
(788,422,l),
(788,589,l),
(1269,589,l),
(1269,422,l),
(1149,399,l),
(1149,0,l),
(1991,0,l),
(1991,399,l),
(1871,422,l),
(1871,989,l),
(1991,1012,l),
(1991,1413,l),
(1149,1413,l),
(1149,1012,l),
(1269,989,l),
(1269,824,l),
(788,824,l),
(788,989,l),
(908,1012,l),
(908,1408,l),
(66,1408,l),
(66,1012,l),
(186,989,l),
(186,422,l),
(66,399,l),
(66,0,l)
);
}
);
userData = {
com.fontlab.hintData = {
hhints = (
{
position = 0;
width = 399;
},
{
position = 589;
width = 235;
},
{
position = 1012;
width = 396;
}
);
vhints = (
{
position = 66;
width = 842;
},
{
position = 1149;
width = 842;
}
);
};
};
width = 2061;
}
);
unicode = 104;
},
{
color = 9;
glyphname = hbar;
lastChange = "2024-04-24 09:57:12 +0000";
layers = (
{
layerId = m001;
shapes = (
{
closed = 1;
nodes = (
(908,0,l),
(908,399,l),
(788,422,l),
(788,589,l),
(1269,589,l),
(1269,422,l),
(1149,399,l),
(1149,0,l),
(1991,0,l),
(1991,399,l),
(1871,422,l),
(1871,1408,l),
(1269,1408,l),
(1269,824,l),
(788,824,l),
(788,1408,l),
(186,1408,l),
(186,422,l),
(66,399,l),
(66,0,l)
);
},
{
closed = 1;
nodes = (
(2029,989,l),
(2029,1224,l),
(28,1224,l),
(28,989,l)
);
}
);
width = 2057;
}
);
unicode = 295;
},
{
glyphname = i;
lastChange = "2024-04-24 12:28:29 +0000";
layers = (
{
anchors = (
{
name = bottom;
pos = (489,0);
}
);
background = {
shapes = (
{
closed = 1;
nodes = (
(908,1408,l),
(908,1014,l),
(788,991,l),
(788,422,l),
(908,399,l),
(908,0,l),
(66,0,l),
(66,399,l),
(186,422,l),
(186,991,l),
(66,1014,l),
(66,1408,l)
);
}
);
};
layerId = m001;
shapes = (
{
ref = idotless;
}
);
userData = {
com.fontlab.hintData = {
hhints = (
{
position = 0;
width = 21;
},
{
position = 1388;
width = 20;
},
{
position = 1388;
width = 20;
}
);
vhints = (
{
position = 66;
width = 842;
},
{
position = 186;
width = 602;
}
);
};
};
width = 978;
}
);
unicode = 105;
},
{
glyphname = idotless;
lastChange = "2024-04-24 09:57:08 +0000";
layers = (
{
anchors = (
{
name = bottom;
pos = (489,0);
},
{
name = ogonek;
pos = (908,0);
},
{
name = top;
pos = (489,1408);
}
);
background = {
shapes = (
{
closed = 1;
nodes = (
(908,1408,l),
(908,1014,l),
(788,991,l),
(788,422,l),
(908,399,l),
(908,0,l),
(66,0,l),
(66,399,l),
(186,422,l),
(186,991,l),
(66,1014,l),
(66,1408,l)
);
}
);
};
layerId = m001;
shapes = (
{
closed = 1;
nodes = (
(908,0,l),
(908,399,l),
(788,422,l),
(788,991,l),
(908,1014,l),
(908,1408,l),
(66,1408,l),
(66,1014,l),
(186,991,l),
(186,422,l),
(66,399,l),
(66,0,l)
);
}
);
userData = {
com.fontlab.hintData = {
hhints = (
{
position = 0;
width = 21;
},
{
position = 1388;
width = 20;
},
{
position = 1388;
width = 20;
}
);
vhints = (
{
position = 66;
width = 842;
},
{
position = 186;
width = 602;
}
);
};
};
width = 978;
}
);
unicode = 305;
},
{
glyphname = iacute;
lastChange = "2024-04-24 09:23:08 +0000";
layers = (
{
background = {
shapes = (
{
closed = 1;
nodes = (
(320,1568,l),
(659,2208,l),
(1149,2208,l),
(745,1568,l)
);
}
);
};
layerId = m001;
shapes = (
{
ref = idotless;
},
{
pos = (232,-2);
ref = acutecomb;
}
);
userData = {
com.fontlab.hintData = {
hhints = (
{
position = 0;
width = 21;
},
{
position = 1388;
width = 20;
},
{
position = 1568;
width = 640;
}
);
vhints = (
{
position = 66;
width = 842;
},
{
position = 186;
width = 602;
}
);
};
};
width = 978;
}
);
unicode = 237;
},
{
glyphname = icircumflex;
lastChange = "2024-04-24 09:23:52 +0000";
layers = (
{
background = {
shapes = (
{
closed = 1;
nodes = (
(274,2207,l),
(764,2207,l),
(1103,1568,l),
(678,1568,l),
(519,1951,l),
(359,1568,l),
(-66,1568,l)
);
}
);
};
layerId = m001;
shapes = (
{
ref = idotless;
},
{
pos = (-181,-5);
ref = circumflexcomb;
}
);
userData = {
com.fontlab.hintData = {
hhints = (
{
position = 0;
width = 21;
},
{
position = 1388;
width = 20;
},
{
position = 1568;
width = 639;
}
);
vhints = (
{
position = 66;
width = 842;
},
{
position = 186;
width = 602;
}
);
};
};
width = 978;
}
);
unicode = 238;
},
{
glyphname = idieresis;
lastChange = "2024-04-24 09:25:30 +0000";
layers = (
{
background = {
shapes = (
{
closed = 1;
nodes = (
(1065,1952,l),
(1065,1568,l),
(640,1568,l),
(640,1952,l)
);
},
{
closed = 1;
nodes = (
(321,1568,l),
(-104,1568,l),
(-104,1952,l),
(321,1952,l)
);
}
);
};
layerId = m001;
shapes = (
{
ref = idotless;
},
{
pos = (-185,-5);
ref = dieresiscomb;
}
);
userData = {
com.fontlab.hintData = {
hhints = (
{
position = 0;
width = 21;
},
{
position = 1388;
width = 20;
},
{
position = 1568;
width = 384;
}
);
vhints = (
{
position = -104;
width = 425;
},
{
position = 66;
width = 842;
},
{
position = 186;
width = 602;
},
{
position = 640;
width = 425;
}
);
};
};
width = 978;
}
);
unicode = 239;
},
{
glyphname = igrave;
lastChange = "2024-04-24 09:25:50 +0000";
layers = (
{
background = {
shapes = (
{
closed = 1;
nodes = (
(412,2208,l),
(751,1568,l),
(326,1568,l),
(-78,2208,l)
);
}
);
};
layerId = m001;
shapes = (
{
ref = idotless;
},
{
pos = (-159,-5);
ref = gravecomb;
}
);
userData = {
com.fontlab.hintData = {
hhints = (
{
position = 0;
width = 21;
},
{
position = 1388;
width = 20;
},
{
position = 1568;
width = 640;
}
);
vhints = (
{
position = 66;
width = 842;
},
{
position = 186;
width = 602;
}
);
};
};
width = 978;
}
);
unicode = 236;
},
{
glyphname = j;
lastChange = "2024-04-24 09:57:08 +0000";
layers = (
{
background = {
shapes = (
{
closed = 1;
nodes = (
(608.538,389,o),
(652,489.662,o),
(652,589,cs),
(652,991,l),
(531,1014,l),
(531,1408,l),
(1374,1408,l),
(1374,1014,l),
(1253,991,l),
(1253,589,ls),
(1253,166.225,o),
(1012.12,-18,o),
(589,-18,cs),
(358.198,-18,o),
(195.38,12.859,o),
(51,87,c),
(51,518,l),
(334,518,l),
(370.246,451.55,o),
(427.752,389,o),
(514,389,cs)
);
}
);
};
layerId = m001;
shapes = (
{
closed = 1;
nodes = (
(1012,-18,o),
(1253,166,o),
(1253,589,cs),
(1253,991,l),
(1374,1014,l),
(1374,1408,l),
(531,1408,l),
(531,1014,l),
(652,991,l),
(652,589,ls),
(652,490,o),
(609,389,o),
(514,389,cs),
(428,389,o),
(370,452,o),
(334,518,c),
(51,518,l),
(51,87,l),
(195,13,o),
(358,-18,o),
(589,-18,cs)
);
}
);
userData = {
com.fontlab.hintData = {
hhints = (
{
position = -18;
width = 407;
},
{
position = 1388;
width = 20;
},
{
position = 1388;
width = 20;
}
);
vhints = (
{
position = 652;
width = 601;
}
);
};
};
width = 1404;
}
);
unicode = 106;
},
{
color = 9;
glyphname = jdotless;
lastChange = "2024-04-24 09:57:08 +0000";
layers = (
{
anchors = (
{
name = bottom;
pos = (702,-410);
},
{
name = top;
pos = (927,1408);
}
);
layerId = m001;
shapes = (
{
closed = 1;
nodes = (
(1012,-18,o),
(1253,166,o),
(1253,589,cs),
(1253,991,l),
(1374,1014,l),
(1374,1408,l),
(531,1408,l),
(531,1014,l),
(652,991,l),
(652,589,ls),
(652,490,o),
(609,389,o),
(514,389,cs),
(428,389,o),
(370,452,o),
(334,518,c),
(51,518,l),
(51,87,l),
(195,13,o),
(358,-18,o),
(589,-18,cs)
);
}
);
width = 1404;
}
);
unicode = 567;
},
{
glyphname = k;
lastChange = "2024-04-24 09:57:08 +0000";
layers = (
{
anchors = (
{
name = bottom;
pos = (892,0);
},
{
name = top;
pos = (892,1638);
}
);
background = {
shapes = (
{
closed = 1;
nodes = (
(1463.75,544.175,o),
(1584.92,356.087,o),
(1729,204,c),
(1729,0,l),
(1054,0,l),
(788,590,l),
(788,0,l),
(66,0,l),
(66,399,l),
(186,422,l),
(186,991,l),
(66,1014,l),
(66,1408,l),
(788,1408,l),
(788,846,l),
(1054,1408,l),
(1702,1408,l),
(1702,1154,l),
(1562.02,1035.37,o),
(1446.64,882.839,o),
(1350,725,c)
);
}
);
};
layerId = m001;
shapes = (
{
closed = 1;
nodes = (
(788,0,l),
(788,590,l),
(1054,0,l),
(1729,0,l),
(1729,204,l),
(1585,356,o),
(1464,544,o),
(1350,725,c),
(1447,883,o),
(1562,1035,o),
(1702,1154,c),
(1702,1408,l),
(1054,1408,l),
(788,846,l),
(788,1408,l),
(66,1408,l),
(66,1014,l),
(186,991,l),
(186,422,l),
(66,399,l),
(66,0,l)
);
}
);
userData = {
com.fontlab.hintData = {
hhints = (
{
position = 0;
width = 21;
},
{
position = 1388;
width = 20;
},
{
position = 1388;
width = 20;
}
);
vhints = (
{
position = 66;
width = 722;
}
);
};
};
width = 1783;
}
);
unicode = 107;
},
{
glyphname = l;
lastChange = "2024-04-24 09:57:08 +0000";
layers = (
{
anchors = (
{
name = bottom;
pos = (635,0);
},
{
name = center;
pos = (635,704);
},
{
name = top;
pos = (484,1408);
},
{
name = topright;
pos = (1098,1408);
}
);
background = {
shapes = (
{
closed = 1;
nodes = (
(904.421,384,o),
(987.647,448.345,o),
(1043,512,c),
(1210,512,l),
(1210,0,l),
(66,0,l),
(66,399,l),
(186,422,l),
(186,991,l),
(66,1014,l),
(66,1408,l),
(908,1408,l),
(908,1014,l),
(787,991,l),
(787,384,l)
);
}
);
};
layerId = m001;
shapes = (
{
closed = 1;
nodes = (
(1210,0,l),
(1210,512,l),
(1043,512,l),
(988,448,o),
(904,384,o),
(787,384,c),
(787,991,l),
(908,1014,l),
(908,1408,l),
(66,1408,l),
(66,1014,l),
(186,991,l),
(186,422,l),
(66,399,l),
(66,0,l)
);
}
);
userData = {
com.fontlab.hintData = {
hhints = (
{
position = 0;
width = 21;
},
{
position = 1388;
width = 20;
},
{
position = 1388;
width = 20;
}
);
vhints = (
{
position = 186;
width = 601;
}
);
};
};
width = 1269;
}
);
unicode = 108;
},
{
glyphname = lacute;
lastChange = "2024-04-24 09:23:22 +0000";
layers = (
{
background = {
shapes = (
{
closed = 1;
nodes = (
(320,1568,l),
(659,2208,l),
(1149,2208,l),
(745,1568,l)
);
},
{
closed = 1;
nodes = (
(904.421,384,o),
(987.647,448.345,o),
(1043,512,c),
(1210,512,l),
(1210,0,l),
(66,0,l),
(66,399,l),
(186,422,l),
(186,991,l),
(66,1014,l),
(66,1408,l),
(908,1408,l),
(908,1014,l),
(787,991,l),
(787,384,l)
);
}
);
};
layerId = m001;
shapes = (
{
ref = l;
},
{
pos = (227,-2);
ref = acutecomb;
}
);
userData = {
com.fontlab.hintData = {
hhints = (
{
position = 0;
width = 21;
},
{
position = 1388;
width = 20;
},
{
position = 1568;
width = 640;
}
);
vhints = (
{
position = 186;
width = 601;
}
);
};
};
width = 1269;
}
);
unicode = 314;
},
{
glyphname = lcaron;
lastChange = "2024-04-24 09:30:34 +0000";
layers = (
{
background = {
shapes = (
{
closed = 1;
nodes = (
(1699,1446,l),
(1699,935,ls),
(1699,626,o),
(1491,482,o),
(1187,482,c),
(1187,806,l),
(1262,810,o),
(1314,852,o),
(1314,934,c),
(1059,934,l),
(1059,1446,l)
);
},
{
closed = 1;
nodes = (
(873,384,o),
(957,448,o),
(1012,512,c),
(1179,512,l),
(1179,0,l),
(35,0,l),
(35,399,l),
(155,422,l),
(155,991,l),
(35,1014,l),
(35,1408,l),
(877,1408,l),
(877,1014,l),
(756,991,l),
(756,384,l)
);
}
);
};
layerId = m001;
shapes = (
{
ref = l;
},
{
pos = (-184,-5);
ref = caroncomb;
}
);
userData = {
com.fontlab.hintData = {
hhints = (
{
position = 0;
width = 21;
},
{
position = 1388;
width = 20;
}
);
vhints = (
{
position = 155;
width = 601;
},
{
position = 1059;
width = 640;
}
);
};
};
width = 1269;
}
);
unicode = 318;
},
{
glyphname = lslash;
lastChange = "2024-04-24 09:57:08 +0000";
layers = (
{
background = {
shapes = (
{
closed = 1;
nodes = (
(914.421,384,o),
(997.647,448.345,o),
(1053,512,c),
(1220,512,l),
(1220,0,l),
(76,0,l),
(76,399,l),
(196,422,l),
(196,640,l),
(76,640,l),
(76,896,l),
(196,896,l),
(196,991,l),
(76,1014,l),
(76,1413,l),
(918,1413,l),
(918,1014,l),
(797,991,l),
(797,896,l),
(886,896,l),
(886,640,l),
(797,640,l),
(797,384,l)
);
}
);
};
layerId = m001;
shapes = (
{
closed = 1;
nodes = (
(1220,0,l),
(1220,512,l),
(1053,512,l),
(998,448,o),
(914,384,o),
(797,384,c),
(797,640,l),
(886,640,l),
(886,896,l),
(797,896,l),
(797,991,l),
(918,1014,l),
(918,1413,l),
(76,1413,l),
(76,1014,l),
(196,991,l),
(196,896,l),
(76,896,l),
(76,640,l),
(196,640,l),
(196,422,l),
(76,399,l),
(76,0,l)
);
}
);
userData = {
com.fontlab.hintData = {
hhints = (
{
position = 0;
width = 21;
},
{
position = 640;
width = 256;
},
{
position = 1393;
width = 20;
},
{
position = 1393;
width = 20;
}
);
};
};
width = 1279;
}
);
unicode = 322;
},
{
glyphname = m;
lastChange = "2024-04-24 09:57:08 +0000";
layers = (
{
anchors = (
{
name = bottom;
pos = (1091,0);
},
{
name = top;
pos = (1091,1408);
}
);
background = {
shapes = (
{
closed = 1;
nodes = (
(787,0,l),
(66,0,l),
(66,399,l),
(186,422,l),
(186,991,l),
(66,1014,l),
(66,1408,l),
(787,1408,l),
(1090,870,l),
(1390,1408,l),
(2111,1408,l),
(2111,1014,l),
(1991,991,l),
(1991,422,l),
(2111,399,l),
(2111,0,l),
(1390,0,l),
(1390,689,l),
(1090,181,l),
(787,689,l)
);
}
);
};
layerId = m001;
shapes = (
{
closed = 1;
nodes = (
(787,0,l),
(787,689,l),
(1090,181,l),
(1390,689,l),
(1390,0,l),
(2111,0,l),
(2111,399,l),
(1991,422,l),
(1991,991,l),
(2111,1014,l),
(2111,1408,l),
(1390,1408,l),
(1090,870,l),
(787,1408,l),
(66,1408,l),
(66,1014,l),
(186,991,l),
(186,422,l),
(66,399,l),
(66,0,l)
);
}
);
userData = {
com.fontlab.hintData = {
hhints = (
{
position = 0;
width = 21;
},
{
position = 1388;
width = 20;
},
{
position = 1388;
width = 20;
}
);
};
};
width = 2181;
}
);
unicode = 109;
},
{
glyphname = n;
lastChange = "2024-04-24 09:57:08 +0000";
layers = (
{
anchors = (
{
name = bottom;
pos = (910,0);
},
{
name = top;
pos = (910,1408);
}
);
background = {
shapes = (
{
closed = 1;
nodes = (
(547,422,l),
(668,400,l),
(668,0,l),
(66,0,l),
(66,399,l),
(186,422,l),
(186,991,l),
(66,1014,l),
(66,1408,l),
(788,1408,l),
(1269,649,l),
(1269,989,l),
(1149,1014,l),
(1149,1408,l),
(1750,1408,l),
(1750,1014,l),
(1630,991,l),
(1630,422,l),
(1750,399,l),
(1750,0,l),
(1028,0,l),
(547,739,l)
);
}
);
};
layerId = m001;
shapes = (
{
closed = 1;
nodes = (
(668,0,l),
(668,400,l),
(547,422,l),
(547,739,l),
(1028,0,l),
(1750,0,l),
(1750,399,l),
(1630,422,l),
(1630,991,l),
(1750,1014,l),
(1750,1408,l),
(1149,1408,l),
(1149,1014,l),
(1269,989,l),
(1269,649,l),
(788,1408,l),
(66,1408,l),
(66,1014,l),
(186,991,l),
(186,422,l),
(66,399,l),
(66,0,l)
);
}
);
userData = {
com.fontlab.hintData = {
hhints = (
{
position = 0;
width = 399;
},
{
position = 1014;
width = 394;
}
);
vhints = (
{
position = 66;
width = 602;
},
{
position = 186;
width = 361;
},
{
position = 1149;
width = 601;
},
{
position = 1269;
width = 361;
}
);
};
};
width = 1820;
}
);
unicode = 110;
},
{
glyphname = nacute;
lastChange = "2024-04-24 09:22:35 +0000";
layers = (
{
background = {
shapes = (
{
closed = 1;
nodes = (
(740,1568,l),
(1079,2208,l),
(1569,2208,l),
(1165,1568,l)
);
},
{
closed = 1;
nodes = (
(547,422,l),
(668,400,l),
(668,0,l),
(66,0,l),
(66,399,l),
(186,422,l),
(186,991,l),
(66,1014,l),
(66,1408,l),
(788,1408,l),
(1269,649,l),
(1269,989,l),
(1149,1014,l),
(1149,1408,l),
(1750,1408,l),
(1750,1014,l),
(1630,991,l),
(1630,422,l),
(1750,399,l),
(1750,0,l),
(1028,0,l),
(547,739,l)
);
}
);
};
layerId = m001;
shapes = (
{
ref = n;
},
{
pos = (653,-2);
ref = acutecomb;
}
);
userData = {
com.fontlab.hintData = {
hhints = (
{
position = 0;
width = 399;
},
{
position = 1014;
width = 394;
},
{
position = 1568;
width = 640;
}
);
vhints = (
{
position = 66;
width = 602;
},
{
position = 186;
width = 361;
},
{
position = 1149;
width = 601;
},
{
position = 1269;
width = 361;
}
);
};
};
width = 1820;
}
);
unicode = 324;
},
{
glyphname = ncaron;
lastChange = "2024-04-24 09:30:34 +0000";
layers = (
{
background = {
shapes = (
{
closed = 1;
nodes = (
(939,1824,l),
(1098,2207,l),
(1523,2207,l),
(1184,1568,l),
(694,1568,l),
(354,2207,l),
(779,2207,l)
);
},
{
closed = 1;
nodes = (
(547,422,l),
(668,400,l),
(668,0,l),
(66,0,l),
(66,399,l),
(186,422,l),
(186,991,l),
(66,1014,l),
(66,1408,l),
(788,1408,l),
(1269,649,l),
(1269,989,l),
(1149,1014,l),
(1149,1408,l),
(1750,1408,l),
(1750,1014,l),
(1630,991,l),
(1630,422,l),
(1750,399,l),
(1750,0,l),
(1028,0,l),
(547,739,l)
);
}
);
};
layerId = m001;
shapes = (
{
ref = n;
},
{
pos = (242,-5);
ref = caroncomb;
}
);
userData = {
com.fontlab.hintData = {
hhints = (
{
position = 0;
width = 399;
},
{
position = 1014;
width = 394;
},
{
position = 1568;
width = 639;
}
);
vhints = (
{
position = 66;
width = 602;
},
{
position = 186;
width = 361;
},
{
position = 1149;
width = 601;
},
{
position = 1269;
width = 361;
}
);
};
};
width = 1820;
}
);
unicode = 328;
},
{
glyphname = ntilde;
lastChange = "2024-04-24 09:22:02 +0000";
layers = (
{
background = {
shapes = (
{
closed = 1;
nodes = (
(819,2069,o),
(905,1954,o),
(1056,1954,cs),
(1180,1954,o),
(1257,2004,o),
(1335,2075,c),
(1275,1658,l),
(1240,1608,o),
(1189,1577,o),
(1114,1577,cs),
(966,1577,o),
(871,1673,o),
(722,1673,cs),
(600,1673,o),
(519,1632,o),
(439,1568,c),
(501,1994,l),
(543,2041,o),
(592,2069,o),
(671,2069,cs)
);
},
{
closed = 1;
nodes = (
(547,422,l),
(668,400,l),
(668,0,l),
(66,0,l),
(66,399,l),
(186,422,l),
(186,991,l),
(66,1014,l),
(66,1408,l),
(788,1408,l),
(1269,649,l),
(1269,989,l),
(1149,1014,l),
(1149,1408,l),
(1750,1408,l),
(1750,1014,l),
(1630,991,l),
(1630,422,l),
(1750,399,l),
(1750,0,l),
(1028,0,l),
(547,739,l)
);
}
);
};
layerId = m001;
shapes = (
{
ref = n;
},
{
pos = (404,0);
ref = tildecomb;
}
);
userData = {
com.fontlab.hintData = {
hhints = (
{
position = 0;
width = 399;
},
{
position = 1014;
width = 394;
},
{
position = 1577;
width = 377;
},
{
position = 1673;
width = 396;
}
);
vhints = (
{
position = 66;
width = 602;
},
{
position = 186;
width = 361;
},
{
position = 1149;
width = 601;
},
{
position = 1269;
width = 361;
}
);
};
};
width = 1820;
}
);
unicode = 241;
},
{
glyphname = o;
lastChange = "2024-04-24 09:57:12 +0000";
layers = (
{
anchors = (
{
name = bottom;
pos = (875,0);
},
{
name = center;
pos = (875,704);
},
{
name = ogonek;
pos = (1574,10);
},
{
name = top;
pos = (875,1408);
},
{
name = topright;
pos = (1729,1408);
}
);
background = {
shapes = (
{
closed = 1;
nodes = (
(1718,208.391,o),
(1392.4,-18,o),
(875,-18,cs),
(362.617,-18,o),
(34,209.346,o),
(34,723,cs),
(34,1225.88,o),
(374.845,1446,o),
(875,1446,cs),
(1374.71,1446,o),
(1718,1225.54,o),
(1718,723,cs)
);
},
{
closed = 1;
nodes = (
(1117,905.658,o),
(1059.85,1020,o),
(875,1020,cs),
(692.542,1020,o),
(636,908.561,o),
(636,728,cs),
(636,541.684,o),
(686.321,418,o),
(875,418,cs),
(1060.81,418,o),
(1117,539.662,o),
(1117,723,cs)
);
}
);
};
layerId = m001;
shapes = (
{
closed = 1;
nodes = (
(1392,-18,o),
(1718,208,o),
(1718,723,cs),
(1718,1226,o),
(1375,1446,o),
(875,1446,cs),
(375,1446,o),
(34,1226,o),
(34,723,cs),
(34,209,o),
(363,-18,o),
(875,-18,cs)
);
},
{
closed = 1;
nodes = (
(686,418,o),
(636,542,o),
(636,728,cs),
(636,909,o),
(693,1020,o),
(875,1020,cs),
(1060,1020,o),
(1117,906,o),
(1117,723,cs),
(1117,540,o),
(1061,418,o),
(875,418,cs)
);
}
);
userData = {
com.fontlab.hintData = {
hhints = (
{
position = -18;
width = 436;
},
{
position = 1020;
width = 426;
}
);
vhints = (
{
position = 34;
width = 602;
},
{
position = 1117;
width = 601;
}
);
};
};
width = 1749;
}
);
unicode = 111;
},
{
glyphname = oacute;
lastChange = "2024-04-24 09:22:35 +0000";
layers = (
{
background = {
shapes = (
{
closed = 1;
nodes = (
(707,1568,l),
(1046,2208,l),
(1536,2208,l),
(1132,1568,l)
);
},
{
closed = 1;
nodes = (
(1718,208.391,o),
(1392.4,-18,o),
(875,-18,cs),
(362.617,-18,o),
(34,209.346,o),
(34,723,cs),
(34,1225.88,o),
(374.845,1446,o),
(875,1446,cs),
(1374.71,1446,o),
(1718,1225.54,o),
(1718,723,cs)
);
},
{
closed = 1;
nodes = (
(1117,905.658,o),
(1059.85,1020,o),
(875,1020,cs),
(692.542,1020,o),
(636,908.561,o),
(636,728,cs),
(636,541.684,o),
(686.321,418,o),
(875,418,cs),
(1060.81,418,o),
(1117,539.662,o),
(1117,723,cs)
);
}
);
};
layerId = m001;
shapes = (
{
ref = o;
},
{
pos = (618,-2);
ref = acutecomb;
}
);
userData = {
com.fontlab.hintData = {
hhints = (
{
position = -18;
width = 436;
},
{
position = 1020;
width = 426;
},
{
position = 1568;
width = 640;
}
);
vhints = (
{
position = 34;
width = 602;
},
{
position = 1117;
width = 601;
}
);
};
};
width = 1749;
}
);
unicode = 243;
},
{
glyphname = ocircumflex;
lastChange = "2024-04-24 09:23:52 +0000";
layers = (
{
background = {
shapes = (
{
closed = 1;
nodes = (
(663,2207,l),
(1153,2207,l),
(1492,1568,l),
(1067,1568,l),
(908,1951,l),
(748,1568,l),
(323,1568,l)
);
},
{
closed = 1;
nodes = (
(1718,208.391,o),
(1392.4,-18,o),
(875,-18,cs),
(362.617,-18,o),
(34,209.346,o),
(34,723,cs),
(34,1225.88,o),
(374.845,1446,o),
(875,1446,cs),
(1374.71,1446,o),
(1718,1225.54,o),
(1718,723,cs)
);
},
{
closed = 1;
nodes = (
(1117,905.658,o),
(1059.85,1020,o),
(875,1020,cs),
(692.542,1020,o),
(636,908.561,o),
(636,728,cs),
(636,541.684,o),
(686.321,418,o),
(875,418,cs),
(1060.81,418,o),
(1117,539.662,o),
(1117,723,cs)
);
}
);
};
layerId = m001;
shapes = (
{
ref = o;
},
{
pos = (205,-5);
ref = circumflexcomb;
}
);
userData = {
com.fontlab.hintData = {
hhints = (
{
position = -18;
width = 436;
},
{
position = 1020;
width = 426;
},
{
position = 1568;
width = 639;
}
);
vhints = (
{
position = 34;
width = 602;
},
{
position = 1117;
width = 601;
}
);
};
};
width = 1749;
}
);
unicode = 244;
},
{
glyphname = odblgrave;
lastChange = "2024-04-24 09:25:14 +0000";
layers = (
{
background = {
shapes = (
{
closed = 1;
nodes = (
(1718,208.391,o),
(1392.4,-18,o),
(875,-18,cs),
(362.617,-18,o),
(34,209.346,o),
(34,723,cs),
(34,1225.88,o),
(374.845,1446,o),
(875,1446,cs),
(1374.71,1446,o),
(1718,1225.54,o),
(1718,723,cs)
);
},
{
closed = 1;
nodes = (
(1117,905.658,o),
(1059.85,1020,o),
(875,1020,cs),
(692.542,1020,o),
(636,908.561,o),
(636,728,cs),
(636,541.684,o),
(686.321,418,o),
(875,418,cs),
(1060.81,418,o),
(1117,539.662,o),
(1117,723,cs)
);
}
);
};
layerId = m001;
shapes = (
{
ref = o;
},
{
pos = (122,-5);
ref = dblgravecomb;
}
);
userData = {
com.fontlab.hintData = {
hhints = (
{
position = -18;
width = 436;
},
{
position = 1020;
width = 426;
},
{
position = 1568;
width = 640;
}
);
vhints = (
{
position = 34;
width = 602;
},
{
position = 1117;
width = 601;
}
);
};
};
width = 1749;
}
);
unicode = 525;
},
{
glyphname = odieresis;
lastChange = "2024-04-24 09:25:30 +0000";
layers = (
{
background = {
shapes = (
{
closed = 1;
nodes = (
(1454,1952,l),
(1454,1568,l),
(1029,1568,l),
(1029,1952,l)
);
},
{
closed = 1;
nodes = (
(710,1568,l),
(285,1568,l),
(285,1952,l),
(710,1952,l)
);
},
{
closed = 1;
nodes = (
(1718,208.391,o),
(1392.4,-18,o),
(875,-18,cs),
(362.617,-18,o),
(34,209.346,o),
(34,723,cs),
(34,1225.88,o),
(374.845,1446,o),
(875,1446,cs),
(1374.71,1446,o),
(1718,1225.54,o),
(1718,723,cs)
);
},
{
closed = 1;
nodes = (
(1117,905.658,o),
(1059.85,1020,o),
(875,1020,cs),
(692.542,1020,o),
(636,908.561,o),
(636,728,cs),
(636,541.684,o),
(686.321,418,o),
(875,418,cs),
(1060.81,418,o),
(1117,539.662,o),
(1117,723,cs)
);
}
);
};
layerId = m001;
shapes = (
{
ref = o;
},
{
pos = (201,-5);
ref = dieresiscomb;
}
);
userData = {
com.fontlab.hintData = {
hhints = (
{
position = -18;
width = 436;
},
{
position = 1020;
width = 426;
},
{
position = 1568;
width = 384;
}
);
vhints = (
{
position = 34;
width = 602;
},
{
position = 285;
width = 425;
},
{
position = 1029;
width = 425;
},
{
position = 1117;
width = 601;
}
);
};
};
width = 1749;
}
);
unicode = 246;
},
{
glyphname = ograve;
lastChange = "2024-04-24 09:25:50 +0000";
layers = (
{
background = {
shapes = (
{
closed = 1;
nodes = (
(801,2208,l),
(1140,1568,l),
(715,1568,l),
(311,2208,l)
);
},
{
closed = 1;
nodes = (
(1718,208.391,o),
(1392.4,-18,o),
(875,-18,cs),
(362.617,-18,o),
(34,209.346,o),
(34,723,cs),
(34,1225.88,o),
(374.845,1446,o),
(875,1446,cs),
(1374.71,1446,o),
(1718,1225.54,o),
(1718,723,cs)
);
},
{
closed = 1;
nodes = (
(1117,905.658,o),
(1059.85,1020,o),
(875,1020,cs),
(692.542,1020,o),
(636,908.561,o),
(636,728,cs),
(636,541.684,o),
(686.321,418,o),
(875,418,cs),
(1060.81,418,o),
(1117,539.662,o),
(1117,723,cs)
);
}
);
};
layerId = m001;
shapes = (
{
ref = o;
},
{
pos = (227,-5);
ref = gravecomb;
}
);
userData = {
com.fontlab.hintData = {
hhints = (
{
position = -18;
width = 436;
},
{
position = 1020;
width = 426;
},
{
position = 1568;
width = 640;
}
);
vhints = (
{
position = 34;
width = 602;
},
{
position = 1117;
width = 601;
}
);
};
};
width = 1749;
}
);
unicode = 242;
},
{
glyphname = ohungarumlaut;
lastChange = "2024-04-24 09:22:02 +0000";
layers = (
{
background = {
shapes = (
{
closed = 1;
nodes = (
(908,1568,l),
(1313,2208,l),
(1803,2208,l),
(1343,1568,l)
);
},
{
closed = 1;
nodes = (
(270,1568,l),
(519,2208,l),
(1009,2208,l),
(675,1568,l)
);
},
{
closed = 1;
nodes = (
(1718,208.391,o),
(1392.4,-18,o),
(875,-18,cs),
(362.617,-18,o),
(34,209.346,o),
(34,723,cs),
(34,1225.88,o),
(374.845,1446,o),
(875,1446,cs),
(1374.71,1446,o),
(1718,1225.54,o),
(1718,723,cs)
);
},
{
closed = 1;
nodes = (
(1117,905.658,o),
(1059.85,1020,o),
(875,1020,cs),
(692.542,1020,o),
(636,908.561,o),
(636,728,cs),
(636,541.684,o),
(686.321,418,o),
(875,418,cs),
(1060.81,418,o),
(1117,539.662,o),
(1117,723,cs)
);
}
);
};
layerId = m001;
shapes = (
{
ref = o;
},
{
pos = (22,0);
ref = hungarumlautcomb;
}
);
userData = {
com.fontlab.hintData = {
hhints = (
{
position = -18;
width = 436;
},
{
position = 1020;
width = 426;
},
{
position = 1568;
width = 640;
}
);
vhints = (
{
position = 34;
width = 602;
},
{
position = 1117;
width = 601;
}
);
};
};
width = 1749;
}
);
unicode = 337;
},
{
glyphname = oinvertedbreve;
lastChange = "2024-04-24 09:29:25 +0000";
layers = (
{
background = {
shapes = (
{
closed = 1;
nodes = (
(1718,208.391,o),
(1392.4,-18,o),
(875,-18,cs),
(362.617,-18,o),
(34,209.346,o),
(34,723,cs),
(34,1225.88,o),
(374.845,1446,o),
(875,1446,cs),
(1374.71,1446,o),
(1718,1225.54,o),
(1718,723,cs)
);
},
{
closed = 1;
nodes = (
(1117,905.658,o),
(1059.85,1020,o),
(875,1020,cs),
(692.542,1020,o),
(636,908.561,o),
(636,728,cs),
(636,541.684,o),
(686.321,418,o),
(875,418,cs),
(1060.81,418,o),
(1117,539.662,o),
(1117,723,cs)
);
}
);
};
layerId = m001;
shapes = (
{
ref = o;
},
{
pos = (415,-5);
ref = breveinvertedcomb;
}
);
userData = {
com.fontlab.hintData = {
hhints = (
{
position = -18;
width = 436;
},
{
position = 1020;
width = 426;
},
{
position = 1568;
width = 21;
},
{
position = 1720;
width = 293;
}
);
vhints = (
{
position = 34;
width = 602;
},
{
position = 1117;
width = 601;
}
);
};
};
width = 1749;
}
);
unicode = 527;
},
{
glyphname = oslash;
lastChange = "2024-04-24 09:57:12 +0000";
layers = (
{
background = {
shapes = (
{
closed = 1;
nodes = (
(1718,208.292,o),
(1388.48,-37,o),
(875,-37,cs),
(788.374,-37,o),
(715.81,-30.125,o),
(641,-17,c),
(550,-208,l),
(358,-128,l),
(440,43,l),
(190.92,151.296,o),
(34,365.454,o),
(34,723,cs),
(34,1227.83,o),
(372.965,1450,o),
(875,1450,cs),
(959.318,1450,o),
(1035.9,1444.11,o),
(1108,1431,c),
(1190,1600,l),
(1382,1536,l),
(1305,1376,l),
(1553.3,1274.54,o),
(1718,1072.32,o),
(1718,723,cs)
);
},
{
closed = 1;
nodes = (
(896.783,1013.27,o),
(886.176,1014,o),
(875,1014,cs),
(693.443,1014,o),
(636,904.385,o),
(636,725,cs),
(636,647.438,o),
(643.938,576.82,o),
(673,527,c),
(907,1012,l)
);
},
{
closed = 1;
nodes = (
(1058.2,428,o),
(1117,542.371,o),
(1117,723,cs),
(1117,796.039,o),
(1108.76,860.643,o),
(1082,908,c),
(853,428,l),
(875,428,ls)
);
}
);
};
layerId = m001;
shapes = (
{
closed = 1;
nodes = (
(641,-17,l),
(716,-30,o),
(788,-37,o),
(875,-37,cs),
(1388,-37,o),
(1718,208,o),
(1718,723,cs),
(1718,1072,o),
(1553,1275,o),
(1305,1376,c),
(1382,1536,l),
(1190,1600,l),
(1108,1431,l),
(1036,1444,o),
(959,1450,o),
(875,1450,cs),
(373,1450,o),
(34,1228,o),
(34,723,cs),
(34,365,o),
(191,151,o),
(440,43,c),
(358,-128,l),
(550,-208,l)
);
},
{
closed = 1;
nodes = (
(644,577,o),
(636,647,o),
(636,725,cs),
(636,904,o),
(693,1014,o),
(875,1014,cs),
(886,1014,o),
(897,1013,o),
(907,1012,c),
(673,527,l)
);
},
{
closed = 1;
nodes = (
(1082,908,l),
(1109,861,o),
(1117,796,o),
(1117,723,cs),
(1117,542,o),
(1058,428,o),
(875,428,cs),
(853,428,l)
);
}
);
userData = {
com.fontlab.hintData = {
hhints = (
{
position = -37;
width = 465;
},
{
position = 1014;
width = 436;
}
);
vhints = (
{
position = 34;
width = 602;
},
{
position = 1117;
width = 601;
}
);
};
};
width = 1749;
}
);
unicode = 248;
},
{
glyphname = otilde;
lastChange = "2024-04-24 09:22:02 +0000";
layers = (
{
background = {
shapes = (
{
closed = 1;
nodes = (
(786,2069,o),
(872,1954,o),
(1023,1954,cs),
(1147,1954,o),
(1224,2004,o),
(1302,2075,c),
(1242,1658,l),
(1207,1608,o),
(1156,1577,o),
(1081,1577,cs),
(933,1577,o),
(838,1673,o),
(689,1673,cs),
(567,1673,o),
(486,1632,o),
(406,1568,c),
(468,1994,l),
(510,2041,o),
(559,2069,o),
(638,2069,cs)
);
},
{
closed = 1;
nodes = (
(1718,208.391,o),
(1392.4,-18,o),
(875,-18,cs),
(362.617,-18,o),
(34,209.346,o),
(34,723,cs),
(34,1225.88,o),
(374.845,1446,o),
(875,1446,cs),
(1374.71,1446,o),
(1718,1225.54,o),
(1718,723,cs)
);
},
{
closed = 1;
nodes = (
(1117,905.658,o),
(1059.85,1020,o),
(875,1020,cs),
(692.542,1020,o),
(636,908.561,o),
(636,728,cs),
(636,541.684,o),
(686.321,418,o),
(875,418,cs),
(1060.81,418,o),
(1117,539.662,o),
(1117,723,cs)
);
}
);
};
layerId = m001;
shapes = (
{
ref = o;
},
{
pos = (369,0);
ref = tildecomb;
}
);
userData = {
com.fontlab.hintData = {
hhints = (
{
position = -18;
width = 436;
},
{
position = 1020;
width = 426;
},
{
position = 1577;
width = 377;
},
{
position = 1673;
width = 396;
}
);
vhints = (
{
position = 34;
width = 602;
},
{
position = 1117;
width = 601;
}
);
};
};
width = 1749;
}
);
unicode = 245;
},
{
glyphname = oe;
lastChange = "2024-04-24 09:57:12 +0000";
layers = (
{
background = {
shapes = (
{
closed = 1;
nodes = (
(361.501,-37,o),
(34,207.93,o),
(34,723,cs),
(34,1228.78,o),
(372.6,1450,o),
(875,1450,cs),
(995,1450,o),
(1106.67,1436,o),
(1210,1408,c),
(2270,1408,l),
(2270,896,l),
(2103,896,l),
(2011.08,963.41,o),
(1874.67,1006,o),
(1716,1006,c),
(1716,789,l),
(1992,848,l),
(1992,563,l),
(1716,623,l),
(1716,402,l),
(1875.52,402,o),
(2012.51,442.632,o),
(2103,512,c),
(2270,512,l),
(2270,0,l),
(1183,0,l),
(1089,-24.667,o),
(986.333,-37,o),
(875,-37,cs)
);
},
{
closed = 1;
nodes = (
(1045.44,1006.04,o),
(966.119,1014,o),
(875,1014,cs),
(693.443,1014,o),
(636,904.385,o),
(636,725,cs),
(636,543.006,o),
(690.732,428,o),
(875,428,cs),
(975.242,428,o),
(1049.77,435.928,o),
(1114,458,c),
(1114,987,l)
);
}
);
};
layerId = m001;
shapes = (
{
closed = 1;
nodes = (
(986,-37,o),
(1089,-25,o),
(1183,0,c),
(2270,0,l),
(2270,512,l),
(2103,512,l),
(2013,443,o),
(1876,402,o),
(1716,402,c),
(1716,623,l),
(1992,563,l),
(1992,848,l),
(1716,789,l),
(1716,1006,l),
(1875,1006,o),
(2011,963,o),
(2103,896,c),
(2270,896,l),
(2270,1408,l),
(1210,1408,l),
(1107,1436,o),
(995,1450,o),
(875,1450,cs),
(373,1450,o),
(34,1229,o),
(34,723,cs),
(34,208,o),
(362,-37,o),
(875,-37,cs)
);
},
{
closed = 1;
nodes = (
(691,428,o),
(636,543,o),
(636,725,cs),
(636,904,o),
(693,1014,o),
(875,1014,cs),
(966,1014,o),
(1045,1006,o),
(1114,987,c),
(1114,458,l),
(1050,436,o),
(975,428,o),
(875,428,cs)
);
}
);
userData = {
com.fontlab.hintData = {
hhints = (
{
position = -37;
width = 465;
},
{
position = 0;
width = 402;
},
{
position = 1006;
width = 402;
},
{
position = 1014;
width = 436;
}
);
vhints = (
{
position = 34;
width = 602;
},
{
position = 1114;
width = 602;
}
);
};
};
width = 2346;
}
);
unicode = 339;
},
{
glyphname = p;
lastChange = "2024-04-24 09:57:12 +0000";
layers = (
{
anchors = (
{
name = bottom;
pos = (834,0);
},
{
name = top;
pos = (834,1408);
}
);
background = {
shapes = (
{
closed = 1;
nodes = (
(1630,567.344,o),
(1210.15,543,o),
(788,543,c),
(788,422,l),
(908,399,l),
(908,0,l),
(66,0,l),
(66,399,l),
(186,422,l),
(186,991,l),
(66,1014,l),
(66,1408,l),
(885,1408,ls),
(1282.33,1408,o),
(1630,1370.79,o),
(1630,980,cs)
);
},
{
closed = 1;
nodes = (
(945.321,796,o),
(1029,829.951,o),
(1029,989,cs),
(1029,1141.08,o),
(939.276,1168,o),
(788,1168,c),
(788,796,l)
);
}
);
};
layerId = m001;
shapes = (
{
closed = 1;
nodes = (
(908,0,l),
(908,399,l),
(788,422,l),
(788,543,l),
(1210,543,o),
(1630,567,o),
(1630,980,cs),
(1630,1371,o),
(1282,1408,o),
(885,1408,cs),
(66,1408,l),
(66,1014,l),
(186,991,l),
(186,422,l),
(66,399,l),
(66,0,l)
);
},
{
closed = 1;
nodes = (
(788,1168,l),
(939,1168,o),
(1029,1141,o),
(1029,989,cs),
(1029,830,o),
(945,796,o),
(788,796,c)
);
}
);
userData = {
com.fontlab.hintData = {
hhints = (
{
position = 0;
width = 21;
},
{
position = 543;
width = 253;
},
{
position = 1168;
width = 240;
}
);
vhints = (
{
position = 1029;
width = 601;
}
);
};
};
width = 1667;
}
);
unicode = 112;
},
{
glyphname = thorn;
lastChange = "2024-04-24 09:57:12 +0000";
layers = (
{
background = {
shapes = (
{
closed = 1;
nodes = (
(1626,497.344,o),
(1206.15,473,o),
(784,473,c),
(784,422,l),
(904,399,l),
(904,0,l),
(62,0,l),
(62,399,l),
(182,422,l),
(182,1119,l),
(62,1142,l),
(62,1536,l),
(784,1536,l),
(784,1338,l),
(881,1338,ls),
(1278.33,1338,o),
(1626,1300.79,o),
(1626,910,cs)
);
},
{
closed = 1;
nodes = (
(941.319,726,o),
(1025,759.951,o),
(1025,919,cs),
(1025,1071.08,o),
(935.276,1098,o),
(784,1098,c),
(784,726,l)
);
}
);
};
layerId = m001;
shapes = (
{
closed = 1;
nodes = (
(904,0,l),
(904,399,l),
(784,422,l),
(784,473,l),
(1206,473,o),
(1626,497,o),
(1626,910,cs),
(1626,1301,o),
(1278,1338,o),
(881,1338,cs),
(784,1338,l),
(784,1536,l),
(62,1536,l),
(62,1142,l),
(182,1119,l),
(182,422,l),
(62,399,l),
(62,0,l)
);
},
{
closed = 1;
nodes = (
(784,1098,l),
(935,1098,o),
(1025,1071,o),
(1025,919,cs),
(1025,760,o),
(941,726,o),
(784,726,c)
);
}
);
userData = {
com.fontlab.hintData = {
hhints = (
{
position = 0;
width = 21;
},
{
position = 473;
width = 253;
},
{
position = 1098;
width = 240;
},
{
position = 1516;
width = 20;
}
);
vhints = (
{
position = 182;
width = 602;
},
{
position = 1025;
width = 601;
}
);
};
};
width = 1657;
}
);
unicode = 254;
},
{
glyphname = q;
lastChange = "2024-04-24 09:57:12 +0000";
layers = (
{
anchors = (
{
name = bottom;
pos = (875,0);
},
{
name = top;
pos = (875,1408);
}
);
background = {
shapes = (
{
closed = 1;
nodes = (
(1269.42,-49.945,o),
(1332.46,-122.33,o),
(1380,-176,c),
(1380,-407,l),
(907,-407,l),
(782.775,-305.075,o),
(662.434,-177.394,o),
(603,-9,c),
(257.275,68.442,o),
(34,298.96,o),
(34,723,cs),
(34,1225.88,o),
(374.845,1446,o),
(875,1446,cs),
(1374.71,1446,o),
(1718,1225.54,o),
(1718,723,cs),
(1718,327.372,o),
(1522.81,103.287,o),
(1221,10,c)
);
},
{
closed = 1;
nodes = (
(865,1020,ls),
(688.184,1020,o),
(636,902.464,o),
(636,728,cs),
(636,541.684,o),
(686.321,418,o),
(875,418,cs),
(1060.81,418,o),
(1117,539.662,o),
(1117,723,cs),
(1117,900.559,o),
(1064.62,1020,o),
(885,1020,cs)
);
}
);
};
layerId = m001;
shapes = (
{
closed = 1;
nodes = (
(1380,-407,l),
(1380,-176,l),
(1332,-122,o),
(1269,-50,o),
(1221,10,c),
(1523,103,o),
(1718,327,o),
(1718,723,cs),
(1718,1226,o),
(1375,1446,o),
(875,1446,cs),
(375,1446,o),
(34,1226,o),
(34,723,cs),
(34,299,o),
(257,68,o),
(603,-9,c),
(662,-177,o),
(783,-305,o),
(907,-407,c)
);
},
{
closed = 1;
nodes = (
(686,418,o),
(636,542,o),
(636,728,cs),
(636,902,o),
(688,1020,o),
(865,1020,cs),
(885,1020,ls),
(1065,1020,o),
(1117,901,o),
(1117,723,cs),
(1117,540,o),
(1061,418,o),
(875,418,cs)
);
}
);
userData = {
com.fontlab.hintData = {
hhints = (
{
position = 1020;
width = 426;
}
);
vhints = (
{
position = 34;
width = 602;
},
{
position = 1117;
width = 601;
}
);
};
};
width = 1749;
}
);
unicode = 113;
},
{
glyphname = r;
lastChange = "2024-04-24 09:57:12 +0000";
layers = (
{
anchors = (
{
name = bottom;
pos = (846,0);
},
{
name = top;
pos = (846,1408);
}
);
background = {
shapes = (
{
closed = 1;
nodes = (
(1408.99,467.012,o),
(1534.73,337.838,o),
(1629,231,c),
(1629,0,l),
(1031,0,l),
(949.045,152.202,o),
(865.8,315.206,o),
(821,505,c),
(788,505,l),
(788,0,l),
(66,0,l),
(66,399,l),
(186,422,l),
(186,991,l),
(66,1014,l),
(66,1408,l),
(885,1408,ls),
(1231.07,1408,o),
(1569.39,1381.75,o),
(1619,1094,cs),
(1625.67,1055.33,o),
(1629,1014.33,o),
(1629,971,cs),
(1629,745.319,o),
(1511.69,663.729,o),
(1343,599,c)
);
},
{
closed = 1;
nodes = (
(940.521,776,o),
(1029,803.251,o),
(1029,957,cs),
(1029,1109.71,o),
(939.965,1140,o),
(788,1140,c),
(788,776,l)
);
}
);
};
layerId = m001;
shapes = (
{
closed = 1;
nodes = (
(788,0,l),
(788,505,l),
(821,505,l),
(866,315,o),
(949,152,o),
(1031,0,c),
(1629,0,l),
(1629,231,l),
(1535,338,o),
(1409,467,o),
(1343,599,c),
(1512,664,o),
(1629,745,o),
(1629,971,cs),
(1629,1014,o),
(1626,1055,o),
(1619,1094,cs),
(1569,1382,o),
(1231,1408,o),
(885,1408,cs),
(66,1408,l),
(66,1014,l),
(186,991,l),
(186,422,l),
(66,399,l),
(66,0,l)
);
},
{
closed = 1;
nodes = (
(788,1140,l),
(940,1140,o),
(1029,1110,o),
(1029,957,cs),
(1029,803,o),
(941,776,o),
(788,776,c)
);
}
);
userData = {
com.fontlab.hintData = {
hhints = (
{
position = 0;
width = 21;
},
{
position = 1140;
width = 268;
}
);
vhints = (
{
position = 66;
width = 722;
}
);
};
};
width = 1691;
}
);
unicode = 114;
},
{
glyphname = racute;
lastChange = "2024-04-24 09:22:35 +0000";
layers = (
{
background = {
shapes = (
{
closed = 1;
nodes = (
(680,1568,l),
(1019,2208,l),
(1509,2208,l),
(1105,1568,l)
);
},
{
closed = 1;
nodes = (
(1408.99,467.012,o),
(1534.73,337.838,o),
(1629,231,c),
(1629,0,l),
(1031,0,l),
(949.045,152.202,o),
(865.8,315.206,o),
(821,505,c),
(788,505,l),
(788,0,l),
(66,0,l),
(66,399,l),
(186,422,l),
(186,991,l),
(66,1014,l),
(66,1408,l),
(885,1408,ls),
(1231.07,1408,o),
(1569.39,1381.75,o),
(1619,1094,cs),
(1625.67,1055.33,o),
(1629,1014.33,o),
(1629,971,cs),
(1629,745.319,o),
(1511.69,663.729,o),
(1343,599,c)
);
},
{
closed = 1;
nodes = (
(940.521,776,o),
(1029,803.251,o),
(1029,957,cs),
(1029,1109.71,o),
(939.965,1140,o),
(788,1140,c),
(788,776,l)
);
}
);
};
layerId = m001;
shapes = (
{
ref = r;
},
{
pos = (589,-2);
ref = acutecomb;
}
);
userData = {
com.fontlab.hintData = {
hhints = (
{
position = 0;
width = 21;
},
{
position = 1140;
width = 268;
},
{
position = 1568;
width = 640;
}
);
vhints = (
{
position = 66;
width = 722;
}
);
};
};
width = 1691;
}
);
unicode = 341;
},
{
glyphname = rcaron;
lastChange = "2024-04-24 09:30:34 +0000";
layers = (
{
background = {
shapes = (
{
closed = 1;
nodes = (
(878,1824,l),
(1037,2207,l),
(1462,2207,l),
(1123,1568,l),
(633,1568,l),
(293,2207,l),
(718,2207,l)
);
},
{
closed = 1;
nodes = (
(1408.99,467.012,o),
(1534.73,337.838,o),
(1629,231,c),
(1629,0,l),
(1031,0,l),
(949.045,152.202,o),
(865.8,315.206,o),
(821,505,c),
(788,505,l),
(788,0,l),
(66,0,l),
(66,399,l),
(186,422,l),
(186,991,l),
(66,1014,l),
(66,1408,l),
(885,1408,ls),
(1231.07,1408,o),
(1569.39,1381.75,o),
(1619,1094,cs),
(1625.67,1055.33,o),
(1629,1014.33,o),
(1629,971,cs),
(1629,745.319,o),
(1511.69,663.729,o),
(1343,599,c)
);
},
{
closed = 1;
nodes = (
(940.521,776,o),
(1029,803.251,o),
(1029,957,cs),
(1029,1109.71,o),
(939.965,1140,o),
(788,1140,c),
(788,776,l)
);
}
);
};
layerId = m001;
shapes = (
{
ref = r;
},
{
pos = (178,-5);
ref = caroncomb;
}
);
userData = {
com.fontlab.hintData = {
hhints = (
{
position = 0;
width = 21;
},
{
position = 1140;
width = 268;
},
{
position = 1568;
width = 639;
}
);
vhints = (
{
position = 66;
width = 722;
}
);
};
};
width = 1691;
}
);
unicode = 345;
},
{
glyphname = rdblgrave;
lastChange = "2024-04-24 09:25:14 +0000";
layers = (
{
background = {
shapes = (
{
closed = 1;
nodes = (
(1408.99,467.012,o),
(1534.73,337.838,o),
(1629,231,c),
(1629,0,l),
(1031,0,l),
(949.045,152.202,o),
(865.8,315.206,o),
(821,505,c),
(788,505,l),
(788,0,l),
(66,0,l),
(66,399,l),
(186,422,l),
(186,991,l),
(66,1014,l),
(66,1408,l),
(885,1408,ls),
(1231.07,1408,o),
(1569.39,1381.75,o),
(1619,1094,cs),
(1625.67,1055.33,o),
(1629,1014.33,o),
(1629,971,cs),
(1629,745.319,o),
(1511.69,663.729,o),
(1343,599,c)
);
},
{
closed = 1;
nodes = (
(940.521,776,o),
(1029,803.251,o),
(1029,957,cs),
(1029,1109.71,o),
(939.965,1140,o),
(788,1140,c),
(788,776,l)
);
}
);
};
layerId = m001;
shapes = (
{
ref = r;
},
{
pos = (93,-5);
ref = dblgravecomb;
}
);
userData = {
com.fontlab.hintData = {
hhints = (
{
position = 0;
width = 21;
},
{
position = 1140;
width = 268;
},
{
position = 1568;
width = 640;
}
);
vhints = (
{
position = 66;
width = 722;
}
);
};
};
width = 1691;
}
);
unicode = 529;
},
{
glyphname = rinvertedbreve;
lastChange = "2024-04-24 09:29:25 +0000";
layers = (
{
background = {
shapes = (
{
closed = 1;
nodes = (
(1408.99,467.012,o),
(1534.73,337.838,o),
(1629,231,c),
(1629,0,l),
(1031,0,l),
(949.045,152.202,o),
(865.8,315.206,o),
(821,505,c),
(788,505,l),
(788,0,l),
(66,0,l),
(66,399,l),
(186,422,l),
(186,991,l),
(66,1014,l),
(66,1408,l),
(885,1408,ls),
(1231.07,1408,o),
(1569.39,1381.75,o),
(1619,1094,cs),
(1625.67,1055.33,o),
(1629,1014.33,o),
(1629,971,cs),
(1629,745.319,o),
(1511.69,663.729,o),
(1343,599,c)
);
},
{
closed = 1;
nodes = (
(940.521,776,o),
(1029,803.251,o),
(1029,957,cs),
(1029,1109.71,o),
(939.965,1140,o),
(788,1140,c),
(788,776,l)
);
}
);
};
layerId = m001;
shapes = (
{
ref = r;
},
{
pos = (386,-5);
ref = breveinvertedcomb;
}
);
userData = {
com.fontlab.hintData = {
hhints = (
{
position = 0;
width = 21;
},
{
position = 1140;
width = 268;
},
{
position = 1568;
width = 21;
},
{
position = 1720;
width = 293;
}
);
vhints = (
{
position = 66;
width = 722;
}
);
};
};
width = 1691;
}
);
unicode = 531;
},
{
glyphname = s;
lastChange = "2024-04-24 09:57:08 +0000";
layers = (
{
anchors = (
{
name = bottom;
pos = (638,0);
},
{
name = top;
pos = (668,1408);
}
);
background = {
shapes = (
{
closed = 1;
nodes = (
(1004.91,918.33,o),
(1295,827.049,o),
(1295,443,cs),
(1295,81.252,o),
(1012.33,-18,o),
(647,-18,cs),
(407.339,-18,o),
(234.377,11.312,o),
(83,87,c),
(83,434,l),
(366,434,l),
(410.205,364.535,o),
(475.033,306,o),
(573,306,cs),
(668.251,306,o),
(693,370.594,o),
(693,472,c),
(361.15,500.679,o),
(41,590.514,o),
(41,950,cs),
(41,1321.42,o),
(309.709,1446,o),
(679,1446,cs),
(912.141,1446,o),
(1090.54,1401,o),
(1244,1330,c),
(1244,980,l),
(941,980,l),
(902.803,1052.37,o),
(846.038,1118,o),
(754,1118,cs),
(657.161,1118,o),
(629,1035.52,o),
(629,932,c)
);
}
);
};
layerId = m001;
shapes = (
{
closed = 1;
nodes = (
(1012,-18,o),
(1295,81,o),
(1295,443,cs),
(1295,827,o),
(1005,918,o),
(629,932,c),
(629,1036,o),
(657,1118,o),
(754,1118,cs),
(846,1118,o),
(903,1052,o),
(941,980,c),
(1244,980,l),
(1244,1330,l),
(1091,1401,o),
(912,1446,o),
(679,1446,cs),
(310,1446,o),
(41,1321,o),
(41,950,cs),
(41,591,o),
(361,501,o),
(693,472,c),
(693,371,o),
(668,306,o),
(573,306,cs),
(475,306,o),
(410,365,o),
(366,434,c),
(83,434,l),
(83,87,l),
(234,11,o),
(407,-18,o),
(647,-18,cs)
);
}
);
userData = {
com.fontlab.hintData = {
hhints = (
{
position = -18;
width = 324;
},
{
position = 1118;
width = 328;
}
);
};
};
width = 1336;
}
);
unicode = 115;
},
